{
.appVersion = "118";
DisplayStrings = (
t,
m,
a
);
copyright = "© 2006 Microsoft Corporation. All Rights Reserved.";
date = "1997-03-14 10:39:51 +0000";
designer = "V.Connare,S.Lightfoot,I.Patterson,G.Wade";
designerURL = "http://www.microsoft.com/truetype/";
familyName = Webdings;
featurePrefixes = (
{
automatic = 1;
code = "languagesystem DFLT dflt;\012";
name = Languagesystems;
}
);
fontMaster = (
{
ascender = 1638;
capHeight = 700;
customParameters = (
{
name = "Prep Table Assembly";

glyphs = (
{
glyphname = F;
lastChange = "2023-10-03 10:04:04 +0000";
layers = (
{
layerId = "841189CE-7A88-49C9-B3DD-2B83509AFCBE";
paths = (
{
closed = 1;
nodes = (
"1638 1449 LINE",
"1568 1640 LINE",
"311 1183 LINE",
"381 991 LINE",
"1638 1449 LINE"
);
},
{
closed = 1;
nodes = (
"1729 131 LINE",
"1729 981 LINE",
"383 981 LINE",
"383 131 LINE",
"1729 131 LINE"
);
},
{
closed = 1;
nodes = (
"1561 1448 LINE",
"1472 1415 LINE",
"1472 1579 LINE",
"1561 1611 LINE",
"1561 1448 LINE"
);
},
{
closed = 1;
nodes = (
"1384 1383 LINE",
"1295 1350 LINE",
"1295 1515 LINE",
"1384 1547 LINE",
"1384 1383 LINE"
);
},
{
closed = 1;
nodes = (
"1201 1320 LINE",
"1112 1287 LINE",
"1112 1450 LINE",
"1201 1482 LINE",
"1201 1320 LINE"
);
},
{
closed = 1;
nodes = (
"1704 801 LINE",
"1609 801 LINE",
"1553 955 LINE",
"1648 955 LINE",
"1704 801 LINE"
);
},
{
closed = 1;
nodes = (
"1510 801 LINE",
"1415 801 LINE",
"1359 955 LINE",
"1454 955 LINE",
"1510 801 LINE"
);
},
{
closed = 1;
nodes = (
"1023 1251 LINE",
"934 1219 LINE",
"934 1383 LINE",
"1023 1415 LINE",
"1023 1251 LINE"
);
},
{
closed = 1;
nodes = (
"1323 801 LINE",
"1228 801 LINE",
"1172 955 LINE",
"1267 955 LINE",
"1323 801 LINE"
);
},
{
closed = 1;
nodes = (
"840 1188 LINE",
"750 1155 LINE",
"750 1319 LINE",
"840 1351 LINE",
"840 1188 LINE"
);
},
{
closed = 1;
nodes = (
"1129 801 LINE",
"1034 801 LINE",
"978 955 LINE",
"1073 955 LINE",
"1129 801 LINE"
);
},
{
closed = 1;
nodes = (
"665 1121 LINE",
"575 1089 LINE",
"575 1252 LINE",
"665 1285 LINE",
"665 1121 LINE"
);
},
{
closed = 1;
nodes = (
"938 801 LINE",
"843 801 LINE",
"787 955 LINE",
"882 955 LINE",
"938 801 LINE"
);
},
{
closed = 1;
nodes = (
"481 1058 LINE",
"392 1025 LINE",
"392 1189 LINE",
"481 1221 LINE",
"481 1058 LINE"
);
},
{
closed = 1;
nodes = (
"745 801 LINE",
"649 801 LINE",
"594 955 LINE",
"688 955 LINE",
"745 801 LINE"
);
},
{
closed = 1;
nodes = (
"556 801 LINE",
"460 801 LINE",
"404 955 LINE",
"499 955 LINE",
"556 801 LINE"
);
}
);
userData = {
assembly = "NPUSHB[ ]	/* 131 values pushed */\01224 27 32 35 40 43 48 51 56 59 10 23 60 63 25 26 33 34 41 42 49 50 57 58 10 22 61 62 5 23 20 22 21 20 4 11 8 0 15 12 19 16 31 28 39 36 47 44 12 16 28 36 44 44 36 28 16 12 5 53 10 9 3 0 4 5 52 55 2 53 54 1 2 5 64 63 59 51 43 35 27 23 62 58 50 42 34 26 21 7 10 13 14 17 18 29 30 37 38 45 46 11 9 53 12 15 16 19 28 31 36 39 44 47 52 11 11 55 2 1 7 8 0 11 9 3 0 7 5 5 64 \012SVTCA[0]	/* SetFreedomAndProjectionVectorToAxis */\012SRP0[ ]	/* SetRefPoint0 */\012ALIGNRP[ ]	/* AlignRelativePt */\012SRP0[ ]	/* SetRefPoint0 */\012MDRP[11100]	/* MoveDirectRelPt */\012MDRP[11110]	/* MoveDirectRelPt */\012MDRP[11101]	/* MoveDirectRelPt */\012MDRP[10101]	/* MoveDirectRelPt */\012MDRP[01110]	/* MoveDirectRelPt */\012SRP1[ ]	/* SetRefPoint1 */\012IP[ ]	/* InterpolatePts */\012SRP0[ ]	/* SetRefPoint0 */\012MDRP[10110]	/* MoveDirectRelPt */\012MDRP[01101]	/* MoveDirectRelPt */\012MDRP[10101]	/* MoveDirectRelPt */\012SRP1[ ]	/* SetRefPoint1 */\012SLOOP[ ]	/* SetLoopVariable */\012IP[ ]	/* InterpolatePts */\012MDRP[01110]	/* MoveDirectRelPt */\012SRP1[ ]	/* SetRefPoint1 */\012SLOOP[ ]	/* SetLoopVariable */\012IP[ ]	/* InterpolatePts */\012SRP0[ ]	/* SetRefPoint0 */\012MDRP[10101]	/* MoveDirectRelPt */\012ALIGNRP[ ]	/* AlignRelativePt */\012ALIGNRP[ ]	/* AlignRelativePt */\012ALIGNRP[ ]	/* AlignRelativePt */\012ALIGNRP[ ]	/* AlignRelativePt */\012ALIGNRP[ ]	/* AlignRelativePt */\012ALIGNRP[ ]	/* AlignRelativePt */\012MDRP[11110]	/* MoveDirectRelPt */\012ALIGNRP[ ]	/* AlignRelativePt */\012ALIGNRP[ ]	/* AlignRelativePt */\012ALIGNRP[ ]	/* AlignRelativePt */\012ALIGNRP[ ]	/* AlignRelativePt */\012ALIGNRP[ ]	/* AlignRelativePt */\012ALIGNRP[ ]	/* AlignRelativePt */\012SVTCA[1]	/* SetFreedomAndProjectionVectorToAxis */\012SRP0[ ]	/* SetRefPoint0 */\012MDRP[11110]	/* MoveDirectRelPt */\012MDRP[10110]	/* MoveDirectRelPt */\012MDRP[00101]	/* MoveDirectRelPt */\012MDRP[10101]	/* MoveDirectRelPt */\012MDRP[00110]	/* MoveDirectRelPt */\012SRP0[ ]	/* SetRefPoint0 */\012MDRP[10101]	/* MoveDirectRelPt */\012MDRP[00110]	/* MoveDirectRelPt */\012SRP0[ ]	/* SetRefPoint0 */\012MDRP[11101]	/* MoveDirectRelPt */\012MDRP[10100]	/* MoveDirectRelPt */\012MDRP[10101]	/* MoveDirectRelPt */\012MDRP[10101]	/* MoveDirectRelPt */\012MDRP[00110]	/* MoveDirectRelPt */\012SRP1[ ]	/* SetRefPoint1 */\012SLOOP[ ]	/* SetLoopVariable */\012IP[ ]	/* InterpolatePts */\012MDAP[1]	/* MoveDirectAbsPt */\012MDAP[1]	/* MoveDirectAbsPt */\012MDAP[1]	/* MoveDirectAbsPt */\012MDAP[1]	/* MoveDirectAbsPt */\012MDAP[1]	/* MoveDirectAbsPt */\012SRP0[ ]	/* SetRefPoint0 */\012MDRP[00110]	/* MoveDirectRelPt */\012SRP0[ ]	/* SetRefPoint0 */\012MDRP[00110]	/* MoveDirectRelPt */\012SRP0[ ]	/* SetRefPoint0 */\012MDRP[00110]	/* MoveDirectRelPt */\012SRP0[ ]	/* SetRefPoint0 */\012MDRP[00110]	/* MoveDirectRelPt */\012SRP0[ ]	/* SetRefPoint0 */\012MDRP[00110]	/* MoveDirectRelPt */\012SRP0[ ]	/* SetRefPoint0 */\012MDRP[10101]	/* MoveDirectRelPt */\012MDRP[00110]	/* MoveDirectRelPt */\012SRP0[ ]	/* SetRefPoint0 */\012MDRP[10101]	/* MoveDirectRelPt */\012MDRP[10110]	/* MoveDirectRelPt */\012MDRP[00110]	/* MoveDirectRelPt */\012SRP0[ ]	/* SetRefPoint0 */\012MDRP[00110]	/* MoveDirectRelPt */\012SRP0[ ]	/* SetRefPoint0 */\012MDRP[10101]	/* MoveDirectRelPt */\012MDRP[00110]	/* MoveDirectRelPt */\012SRP1[ ]	/* SetRefPoint1 */\012SLOOP[ ]	/* SetLoopVariable */\012IP[ ]	/* InterpolatePts */\012MDRP[10110]	/* MoveDirectRelPt */\012MDRP[00110]	/* MoveDirectRelPt */\012SRP1[ ]	/* SetRefPoint1 */\012SLOOP[ ]	/* SetLoopVariable */\012IP[ ]	/* InterpolatePts */\012IUP[1]	/* InterpolateUntPts */\012IUP[0]	/* InterpolateUntPts */";
};
width = 2048;
}
);
note = film;
unicode = 0046;
},
{
glyphname = a;
lastChange = "2024-02-13 05:00:22 +0000";
layers = (
{
background = {
paths = (
{
closed = 1;
nodes = (
"454 925 LINE",
"454 1039 LINE",
"339 1039 LINE",
"339 705 LINE",
"454 705 LINE",
"454 803 LINE",
"78 803 LINE",
"78 705 LINE",
"198 705 LINE",
"198 1039 LINE",
"78 1039 LINE",
"78 925 LINE"
);
}
);
};
guideLines = (
{
alignment = center;
angle = 180;
position = "{6273, 1284}";
}
);
layerId = "841189CE-7A88-49C9-B3DD-2B83509AFCBE";
paths = (
{
closed = 1;
nodes = (
"698 1294 OFFCURVE",
"671 1244 OFFCURVE",
"671 1101 CURVE SMOOTH",
"671 973 OFFCURVE",
"672 317 OFFCURVE",
"671 263 CURVE SMOOTH",
"669 152 OFFCURVE",
"657 81 OFFCURVE",
"463 81 CURVE SMOOTH",
"252 81 OFFCURVE",
"252 415 OFFCURVE",
"463 415 CURVE SMOOTH",
"560 415 OFFCURVE",
"1275 415 OFFCURVE",
"1435 415 CURVE SMOOTH",
"1681 392 OFFCURVE",
"1637 80 OFFCURVE",
"1435 80 CURVE SMOOTH",
"1296 80 OFFCURVE",
"1251 208 OFFCURVE",
"1251 263 CURVE SMOOTH",
"1251 359 OFFCURVE",
"1257 832 OFFCURVE",
"1251 1101 CURVE SMOOTH",
"1249 1213 OFFCURVE",
"1296 1286 OFFCURVE",
"1435 1286 CURVE SMOOTH",
"1667 1286 OFFCURVE",
"1681 973 OFFCURVE",
"1435 973 CURVE SMOOTH",
"1152 973 OFFCURVE",
"671 973 OFFCURVE",
"463 973 CURVE SMOOTH",
"252 973 OFFCURVE",
"252 1294 OFFCURVE",
"463 1294 CURVE"
);
},
{
closed = 1;
nodes = (
"463 555 LINE SMOOTH",
"88 555 OFFCURVE",
"88 -59 OFFCURVE",
"463 -59 CURVE SMOOTH",
"731 -59 OFFCURVE",
"800 21 OFFCURVE",
"800 263 CURVE SMOOTH",
"800 320 OFFCURVE",
"800 1092 OFFCURVE",
"800 1101 CURVE SMOOTH",
"800 1370 OFFCURVE",
"731 1434 OFFCURVE",
"463 1434 CURVE SMOOTH",
"88 1434 OFFCURVE",
"88 833 OFFCURVE",
"463 833 CURVE SMOOTH",
"565 833 OFFCURVE",
"1216 832 OFFCURVE",
"1435 833 CURVE SMOOTH",
"1864 834 OFFCURVE",
"1864 1426 OFFCURVE",
"1435 1426 CURVE SMOOTH",
"1239 1426 OFFCURVE",
"1110 1422 OFFCURVE",
"1110 1101 CURVE SMOOTH",
"1110 973 OFFCURVE",
"1110 415 OFFCURVE",
"1110 263 CURVE SMOOTH",
"1110 79 OFFCURVE",
"1183 -62 OFFCURVE",
"1435 -60 CURVE SMOOTH",
"1864 -57 OFFCURVE",
"1864 555 OFFCURVE",
"1435 555 CURVE",
"557 555 LINE"
);
}
);
width = 2000;
}
);
unicode = 0061;
},
{
glyphname = m;
lastChange = "2023-10-03 15:07:44 +0000";
layers = (
{
layerId = "841189CE-7A88-49C9-B3DD-2B83509AFCBE";
paths = (
{
closed = 1;
nodes = (
"1914 1073.667 OFFCURVE",
"1872.167 1174.833 OFFCURVE",
"1788.5 1258.5 CURVE SMOOTH",
"1704.833 1342.167 OFFCURVE",
"1603.667 1384 OFFCURVE",
"1485 1384 CURVE SMOOTH",
"1372.333 1384 OFFCURVE",
"1274.833 1345.667 OFFCURVE",
"1192.5 1269 CURVE SMOOTH",
"1110.167 1192.333 OFFCURVE",
"1065 1098.333 OFFCURVE",
"1057 987 CURVE",
"823 987 LINE",
"793 1049.667 OFFCURVE",
"749 1099.667 OFFCURVE",
"691 1137 CURVE SMOOTH",
"631 1175 OFFCURVE",
"565.333 1194 OFFCURVE",
"494 1194 CURVE SMOOTH",
"393.333 1194 OFFCURVE",
"307.333 1158.5 OFFCURVE",
"236 1087.5 CURVE SMOOTH",
"164.667 1016.5 OFFCURVE",
"129 930.667 OFFCURVE",
"129 830 CURVE SMOOTH",
"129 736 OFFCURVE",
"160.5 654.333 OFFCURVE",
"223.5 585 CURVE SMOOTH",
"286.5 515.667 OFFCURVE",
"364 476.333 OFFCURVE",
"456 467 CURVE",
"456 116 LINE",
"542 116 LINE",
"542 -10 LINE",
"1217 -10 LINE",
"1217 116 LINE",
"1357 116 LINE",
"1357 197 LINE",
"1390 197 LINE",
"1390 145 LINE",
"1523 145 LINE",
"1523 483 LINE",
"1390 483 LINE",
"1390 422 LINE",
"1357 422 LINE",
"1357 545 LINE",
"1398.333 532.333 OFFCURVE",
"1441 526 OFFCURVE",
"1485 526 CURVE SMOOTH",
"1603.667 526 OFFCURVE",
"1704.833 567.833 OFFCURVE",
"1788.5 651.5 CURVE SMOOTH",
"1872.167 735.167 OFFCURVE",
"1914 836.333 OFFCURVE",
"1914 955 CURVE",
"1914 955 LINE"
);
},
{
closed = 1;
nodes = (
"1786 1116 LINE",
"1716 1079 LINE SMOOTH",
"1668.667 1054.333 OFFCURVE",
"1640 1042 OFFCURVE",
"1630 1042 CURVE SMOOTH",
"1610.667 1042 OFFCURVE",
"1589.667 1050 OFFCURVE",
"1567 1066 CURVE SMOOTH",
"1539 1086 OFFCURVE",
"1525.333 1110.333 OFFCURVE",
"1526 1139 CURVE",
"1525.333 1199.667 OFFCURVE",
"1526.667 1250.333 OFFCURVE",
"1530 1291 CURVE",
"1553 1294 LINE",
"1594.333 1294 OFFCURVE",
"1640.667 1274.333 OFFCURVE",
"1692 1235 CURVE SMOOTH",
"1743.333 1195.667 OFFCURVE",
"1774.667 1156 OFFCURVE",
"1786 1116 CURVE"
);
},
{
closed = 1;
nodes = (
"1841 903.333 OFFCURVE",
"1833 860.333 OFFCURVE",
"1817 815 CURVE SMOOTH",
"1798.333 762.333 OFFCURVE",
"1774.667 727.667 OFFCURVE",
"1746 711 CURVE",
"1712 745 OFFCURVE",
"1685.667 771 OFFCURVE",
"1667 789 CURVE SMOOTH",
"1637.667 819 OFFCURVE",
"1623 853.667 OFFCURVE",
"1623 893 CURVE SMOOTH",
"1623 909 OFFCURVE",
"1636.333 929.333 OFFCURVE",
"1663 954 CURVE SMOOTH",
"1689.667 978.667 OFFCURVE",
"1712.333 993 OFFCURVE",
"1731 997 CURVE SMOOTH",
"1824 1020 LINE",
"1835.333 1002.667 OFFCURVE",
"1841 977.333 OFFCURVE",
"1841 944 CURVE",
"1841 944 LINE"
);
},
{
closed = 1;
nodes = (
"1453.667 1119 OFFCURVE",
"1444.667 1095.667 OFFCURVE",
"1424 1073 CURVE SMOOTH",
"1402.667 1048.333 OFFCURVE",
"1378.333 1036 OFFCURVE",
"1351 1036 CURVE SMOOTH",
"1341 1036 OFFCURVE",
"1331 1038 OFFCURVE",
"1321 1042 CURVE SMOOTH",
"1234.333 1075.333 OFFCURVE",
"1181 1096.333 OFFCURVE",
"1161 1105 CURVE",
"1174.333 1151 OFFCURVE",
"1206 1193.667 OFFCURVE",
"1256 1233 CURVE SMOOTH",
"1306 1272.333 OFFCURVE",
"1354.333 1292 OFFCURVE",
"1401 1292 CURVE SMOOTH",
"1413.667 1292 OFFCURVE",
"1425.667 1290.667 OFFCURVE",
"1437 1288 CURVE",
"1451 1143 LINE",
"1451 1143 LINE"
);
},
{
closed = 1;
nodes = (
"1550 940 OFFCURVE",
"1544.667 926.5 OFFCURVE",
"1534 915.5 CURVE SMOOTH",
"1523.333 904.5 OFFCURVE",
"1510 899 OFFCURVE",
"1494 899 CURVE SMOOTH",
"1478 899 OFFCURVE",
"1464.833 903.667 OFFCURVE",
"1454.5 913 CURVE SMOOTH",
"1444.167 922.333 OFFCURVE",
"1439 936.667 OFFCURVE",
"1439 956 CURVE SMOOTH",
"1439 969.333 OFFCURVE",
"1441.667 979 OFFCURVE",
"1447 985 CURVE",
"1428 1006 LINE",
"1445 1023 LINE",
"1465 1004 LINE",
"1473.667 1008.667 OFFCURVE",
"1483.667 1011 OFFCURVE",
"1495 1011 CURVE SMOOTH",
"1512.333 1011 OFFCURVE",
"1525.833 1005.333 OFFCURVE",
"1535.5 994 CURVE SMOOTH",
"1545.167 982.667 OFFCURVE",
"1550 970 OFFCURVE",
"1550 956 CURVE",
"1550 956 LINE"
);
},
{
closed = 1;
nodes = (
"1389 905 LINE",
"1357 832 LINE",
"1357 913 LINE",
"1389 905 LINE"
);
},
{
closed = 1;
nodes = (
"1630.333 616 OFFCURVE",
"1579.667 602 OFFCURVE",
"1507 602 CURVE SMOOTH",
"1443.667 602 OFFCURVE",
"1393.667 612.333 OFFCURVE",
"1357 633 CURVE",
"1357 694 LINE",
"1407 780 LINE SMOOTH",
"1426.333 813.333 OFFCURVE",
"1456 830 OFFCURVE",
"1496 830 CURVE SMOOTH",
"1529.333 830 OFFCURVE",
"1559 809 OFFCURVE",
"1585 767 CURVE SMOOTH",
"1659 644 LINE",
"1659 644 LINE"
);
},
{
closed = 1;
nodes = (
"1311 984 LINE",
"1138 984 LINE",
"1141 1010 LINE",
"1311 984 LINE"
);
},
{
closed = 1;
nodes = (
"742 987 LINE",
"529 987 LINE",
"528.333 1033.667 OFFCURVE",
"529.333 1074.667 OFFCURVE",
"532 1110 CURVE",
"552 1110 LINE",
"586.667 1112 OFFCURVE",
"623 1100.167 OFFCURVE",
"661 1074.5 CURVE SMOOTH",
"699 1048.833 OFFCURVE",
"726 1019.667 OFFCURVE",
"742 987 CURVE"
);
},
{
closed = 1;
nodes = (
"465 987 LINE",
"456 987 LINE",
"456 951 LINE",
"438 915.667 OFFCURVE",
"413 898 OFFCURVE",
"381 898 CURVE SMOOTH",
"371.667 898 OFFCURVE",
"363 899.667 OFFCURVE",
"355 903 CURVE SMOOTH",
"289 929.667 OFFCURVE",
"247.667 946.667 OFFCURVE",
"231 954 CURVE",
"242.333 993.333 OFFCURVE",
"266.333 1028.667 OFFCURVE",
"303 1060 CURVE SMOOTH",
"339.667 1091.333 OFFCURVE",
"378 1107 OFFCURVE",
"418 1107 CURVE SMOOTH",
"420.667 1107 OFFCURVE",
"426.5 1107.5 OFFCURVE",
"435.5 1108.5 CURVE SMOOTH",
"444.5 1109.5 OFFCURVE",
"452.667 1110 OFFCURVE",
"460 1110 CURVE",
"463.333 1052 OFFCURVE",
"465 1011 OFFCURVE",
"465 987 CURVE"
);
},
{
closed = 1;
nodes = (
"331.667 662 OFFCURVE",
"310 635.667 OFFCURVE",
"296 619 CURVE",
"272.667 632.333 OFFCURVE",
"252.167 658.333 OFFCURVE",
"234.5 697 CURVE SMOOTH",
"216.833 735.667 OFFCURVE",
"208 774.333 OFFCURVE",
"208 813 CURVE SMOOTH",
"208 842.333 OFFCURVE",
"209.333 860 OFFCURVE",
"212 866 CURVE",
"329 850 LINE SMOOTH",
"362.333 844.667 OFFCURVE",
"379 813.667 OFFCURVE",
"379 757 CURVE SMOOTH",
"379 731.667 OFFCURVE",
"373 712 OFFCURVE",
"361 698 CURVE",
"361 698 LINE"
);
},
{
closed = 1;
nodes = (
"416 538.667 OFFCURVE",
"386.667 550.333 OFFCURVE",
"368 569 CURVE",
"428 675 LINE SMOOTH",
"434.667 686.333 OFFCURVE",
"444 696 OFFCURVE",
"456 704 CURVE",
"456 534 LINE",
"456 534 LINE"
);
}
);
userData = {
assembly = "NPUSHB[ ]	/* 129 values pushed */\0127 33 1 1 7 32 23 32 2 150 144 146 141 117 118 146 146 19 126 139 141 111 30 23 119 141 19 10 8 11 14 97 60 104 50 104 6 94 96 96 6 70 109 64 52 37 50 43 86 56 92 92 50 109 31 119 110 171 50 119 0 6 6 14 16 17 19 152 150 144 20 119 71 146 1 0 146 18 18 15 103 104 106 109 74 47 37 52 47 83 79 100 119 89 89 106 67 41 119 34 171 60 106 119 3 8 6 11 13 15 17 152 144 138 130 118 118 31 120 26 119 115 111 111 31 96 95 110 31 \012SVTCA[0]	/* SetFreedomAndProjectionVectorToAxis */\012MDAP[1]	/* MoveDirectAbsPt */\012MDRP[00101]	/* MoveDirectRelPt */\012MDRP[10101]	/* MoveDirectRelPt */\012MDRP[01110]	/* MoveDirectRelPt */\012SRP0[ ]	/* SetRefPoint0 */\012ALIGNRP[ ]	/* AlignRelativePt */\012SRP0[ ]	/* SetRefPoint0 */\012MDRP[11110]	/* MoveDirectRelPt */\012MIRP[01101]	/* MoveIndirectRelPt */\012ALIGNRP[ ]	/* AlignRelativePt */\012SRP0[ ]	/* SetRefPoint0 */\012ALIGNRP[ ]	/* AlignRelativePt */\012SRP0[ ]	/* SetRefPoint0 */\012MDRP[10100]	/* MoveDirectRelPt */\012MDRP[11101]	/* MoveDirectRelPt */\012MDRP[00110]	/* MoveDirectRelPt */\012SRP0[ ]	/* SetRefPoint0 */\012MDRP[10110]	/* MoveDirectRelPt */\012MDRP[11101]	/* MoveDirectRelPt */\012MDRP[11101]	/* MoveDirectRelPt */\012MDRP[01110]	/* MoveDirectRelPt */\012MDRP[11101]	/* MoveDirectRelPt */\012MDRP[11110]	/* MoveDirectRelPt */\012MDRP[10110]	/* MoveDirectRelPt */\012MIRP[11101]	/* MoveIndirectRelPt */\012MDRP[00100]	/* MoveDirectRelPt */\012MIRP[11100]	/* MoveIndirectRelPt */\012MIRP[11101]	/* MoveIndirectRelPt */\012MDRP[00100]	/* MoveDirectRelPt */\012SRP2[ ]	/* SetRefPoint2 */\012IP[ ]	/* InterpolatePts */\012MDAP[1]	/* MoveDirectAbsPt */\012MIRP[01101]	/* MoveIndirectRelPt */\012MDRP[11110]	/* MoveDirectRelPt */\012MDRP[00100]	/* MoveDirectRelPt */\012MDRP[10101]	/* MoveDirectRelPt */\012MDRP[10101]	/* MoveDirectRelPt */\012MDRP[00101]	/* MoveDirectRelPt */\012SRP0[ ]	/* SetRefPoint0 */\012MDRP[10100]	/* MoveDirectRelPt */\012MDRP[01101]	/* MoveDirectRelPt */\012SRP0[ ]	/* SetRefPoint0 */\012MDRP[10110]	/* MoveDirectRelPt */\012MDRP[01110]	/* MoveDirectRelPt */\012SRP0[ ]	/* SetRefPoint0 */\012ALIGNRP[ ]	/* AlignRelativePt */\012SRP0[ ]	/* SetRefPoint0 */\012MDRP[11101]	/* MoveDirectRelPt */\012SDS[ ]	/* SetDeltaShiftInGState */\012DELTAP2[ ]	/* DeltaExceptionP2 */\012MIRP[01101]	/* MoveIndirectRelPt */\012SRP2[ ]	/* SetRefPoint2 */\012IP[ ]	/* InterpolatePts */\012SVTCA[1]	/* SetFreedomAndProjectionVectorToAxis */\012SRP0[ ]	/* SetRefPoint0 */\012MDRP[11110]	/* MoveDirectRelPt */\012MDRP[11110]	/* MoveDirectRelPt */\012MDRP[11101]	/* MoveDirectRelPt */\012MDRP[11110]	/* MoveDirectRelPt */\012ALIGNRP[ ]	/* AlignRelativePt */\012SRP0[ ]	/* SetRefPoint0 */\012MDRP[11100]	/* MoveDirectRelPt */\012MIRP[01101]	/* MoveIndirectRelPt */\012MIRP[11100]	/* MoveIndirectRelPt */\012MIRP[01101]	/* MoveIndirectRelPt */\012MDRP[00110]	/* MoveDirectRelPt */\012SRP1[ ]	/* SetRefPoint1 */\012IP[ ]	/* InterpolatePts */\012MDAP[1]	/* MoveDirectAbsPt */\012MDRP[01101]	/* MoveDirectRelPt */\012MDRP[01110]	/* MoveDirectRelPt */\012MDRP[10100]	/* MoveDirectRelPt */\012SRP1[ ]	/* SetRefPoint1 */\012IP[ ]	/* InterpolatePts */\012IP[ ]	/* InterpolatePts */\012MDRP[01101]	/* MoveDirectRelPt */\012SRP1[ ]	/* SetRefPoint1 */\012IP[ ]	/* InterpolatePts */\012SRP0[ ]	/* SetRefPoint0 */\012ALIGNRP[ ]	/* AlignRelativePt */\012SRP0[ ]	/* SetRefPoint0 */\012MDRP[00110]	/* MoveDirectRelPt */\012SRP0[ ]	/* SetRefPoint0 */\012ALIGNRP[ ]	/* AlignRelativePt */\012SRP1[ ]	/* SetRefPoint1 */\012SRP2[ ]	/* SetRefPoint2 */\012IP[ ]	/* InterpolatePts */\012IP[ ]	/* InterpolatePts */\012SRP0[ ]	/* SetRefPoint0 */\012MDRP[11110]	/* MoveDirectRelPt */\012ALIGNRP[ ]	/* AlignRelativePt */\012MDRP[01101]	/* MoveDirectRelPt */\012SRP0[ ]	/* SetRefPoint0 */\012MDRP[10100]	/* MoveDirectRelPt */\012MIRP[01101]	/* MoveIndirectRelPt */\012MDRP[11100]	/* MoveDirectRelPt */\012MDRP[01101]	/* MoveDirectRelPt */\012SRP0[ ]	/* SetRefPoint0 */\012MDRP[00110]	/* MoveDirectRelPt */\012SHP[0]	/* ShiftPointByLastPoint */\012SRP0[ ]	/* SetRefPoint0 */\012ALIGNRP[ ]	/* AlignRelativePt */\012SRP0[ ]	/* SetRefPoint0 */\012MDRP[10101]	/* MoveDirectRelPt */\012MDRP[01101]	/* MoveDirectRelPt */\012SRP1[ ]	/* SetRefPoint1 */\012SRP2[ ]	/* SetRefPoint2 */\012IP[ ]	/* InterpolatePts */\012IP[ ]	/* InterpolatePts */\012IUP[1]	/* InterpolateUntPts */\012IUP[0]	/* InterpolateUntPts */\012DELTAP3[ ]	/* DeltaExceptionP3 */\012SDS[ ]	/* SetDeltaShiftInGState */\012DELTAP3[ ]	/* DeltaExceptionP3 */";
};
width = 2048;
}
);
note = movies;
unicode = 006D;
},
{
glyphname = t;
lastChange = "2023-10-03 09:58:11 +0000";
layers = (
{
layerId = "841189CE-7A88-49C9-B3DD-2B83509AFCBE";
paths = (
{
closed = 1;
nodes = (
"1636 0 LINE",
"1636 1322 LINE",
"1355 1620 LINE",
"387 1620 LINE",
"387 0 LINE",
"1636 0 LINE"
);
},
{
closed = 1;
nodes = (
"1600 41 LINE",
"424 41 LINE",
"424 1590 LINE",
"1355 1590 LINE",
"1355 1322 LINE",
"1600 1322 LINE",
"1600 41 LINE"
);
},
{
closed = 1;
nodes = (
"1261 1274 LINE",
"1261 1351 LINE",
"545 1351 LINE",
"545 1274 LINE",
"1261 1274 LINE"
);
},
{
closed = 1;
nodes = (
"1501 1070 LINE",
"1501 1147 LINE",
"545 1147 LINE",
"545 1070 LINE",
"1501 1070 LINE"
);
},
{
closed = 1;
nodes = (
"921 866 LINE",
"921 943 LINE",
"545 943 LINE",
"545 866 LINE",
"921 866 LINE"
);
},
{
closed = 1;
nodes = (
"1501 662 LINE",
"1501 739 LINE",
"545 739 LINE",
"545 662 LINE",
"1501 662 LINE"
);
},
{
closed = 1;
nodes = (
"1501 458 LINE",
"1501 535 LINE",
"545 535 LINE",
"545 458 LINE",
"1501 458 LINE"
);
},
{
closed = 1;
nodes = (
"1501 254 LINE",
"1501 331 LINE",
"545 331 LINE",
"545 254 LINE",
"1501 254 LINE"
);
}
);
userData = {
assembly = "NPUSHB[ ]	/* 98 values pushed */\01227 23 15 31 5 11 167 7 1 7 103 5 128 0 36 22 20 20 28 24 16 12 32 10 128 1 35 27 133 135 29 1 29 33 26 132 135 24 1 87 24 1 24 24 12 33 132 136 32 1 32 10 128 1 35 215 22 1 183 22 1 88 22 1 22 133 184 20 1 20 136 18 152 18 168 18 3 18 133 16 12 132 151 13 1 88 13 1 13 167 7 1 0 7 103 9 128 2 \012SVTCA[0]	/* SetFreedomAndProjectionVectorToAxis */\012MDAP[1]	/* MoveDirectAbsPt */\012MIRP[11101]	/* MoveIndirectRelPt */\012MIRP[01100]	/* MoveIndirectRelPt */\012SDS[ ]	/* SetDeltaShiftInGState */\012DELTAP1[ ]	/* DeltaExceptionP1 */\012MDRP[11110]	/* MoveDirectRelPt */\012DELTAP1[ ]	/* DeltaExceptionP1 */\012DELTAP1[ ]	/* DeltaExceptionP1 */\012MIRP[11101]	/* MoveIndirectRelPt */\012MDRP[11110]	/* MoveDirectRelPt */\012MIRP[00101]	/* MoveIndirectRelPt */\012DELTAP1[ ]	/* DeltaExceptionP1 */\012MDRP[11110]	/* MoveDirectRelPt */\012DELTAP2[ ]	/* DeltaExceptionP2 */\012MIRP[00101]	/* MoveIndirectRelPt */\012DELTAP1[ ]	/* DeltaExceptionP1 */\012DELTAP1[ ]	/* DeltaExceptionP1 */\012DELTAP1[ ]	/* DeltaExceptionP1 */\012SRP0[ ]	/* SetRefPoint0 */\012MDRP[11110]	/* MoveDirectRelPt */\012MIRP[11101]	/* MoveIndirectRelPt */\012MDRP[11110]	/* MoveDirectRelPt */\012DELTAP1[ ]	/* DeltaExceptionP1 */\012MIRP[01101]	/* MoveIndirectRelPt */\012SRP1[ ]	/* SetRefPoint1 */\012IP[ ]	/* InterpolatePts */\012MDAP[1]	/* MoveDirectAbsPt */\012DELTAP1[ ]	/* DeltaExceptionP1 */\012DELTAP1[ ]	/* DeltaExceptionP1 */\012MIRP[01101]	/* MoveIndirectRelPt */\012SRP0[ ]	/* SetRefPoint0 */\012MDRP[11110]	/* MoveDirectRelPt */\012DELTAP1[ ]	/* DeltaExceptionP1 */\012MIRP[00101]	/* MoveIndirectRelPt */\012SVTCA[1]	/* SetFreedomAndProjectionVectorToAxis */\012SRP0[ ]	/* SetRefPoint0 */\012MDRP[10110]	/* MoveDirectRelPt */\012MIRP[11101]	/* MoveIndirectRelPt */\012MDRP[11110]	/* MoveDirectRelPt */\012ALIGNRP[ ]	/* AlignRelativePt */\012ALIGNRP[ ]	/* AlignRelativePt */\012ALIGNRP[ ]	/* AlignRelativePt */\012ALIGNRP[ ]	/* AlignRelativePt */\012ALIGNRP[ ]	/* AlignRelativePt */\012SRP0[ ]	/* SetRefPoint0 */\012MDRP[01101]	/* MoveDirectRelPt */\012SRP0[ ]	/* SetRefPoint0 */\012MDRP[11110]	/* MoveDirectRelPt */\012MIRP[11101]	/* MoveIndirectRelPt */\012MIRP[11100]	/* MoveIndirectRelPt */\012DELTAP1[ ]	/* DeltaExceptionP1 */\012MDRP[01110]	/* MoveDirectRelPt */\012SRP0[ ]	/* SetRefPoint0 */\012MDRP[11110]	/* MoveDirectRelPt */\012ALIGNRP[ ]	/* AlignRelativePt */\012ALIGNRP[ ]	/* AlignRelativePt */\012ALIGNRP[ ]	/* AlignRelativePt */\012IUP[1]	/* InterpolateUntPts */\012IUP[0]	/* InterpolateUntPts */";
};
width = 2048;
}
);
note = textdoc;
unicode = 0074;
},
{
glyphname = slash;
layers = (
{
layerId = "841189CE-7A88-49C9-B3DD-2B83509AFCBE";
paths = (
{
closed = 1;
nodes = (
"2048 1638 LINE",
"1024 1638 LINE",
"0 -410 LINE",
"1024 -410 LINE",
"2048 1638 LINE"
);
}
);
userData = {
assembly = "NPUSHB[ ]	/* 14 values pushed */\0123 105 0 1 105 2 0 5 2 4 2 14 0 0 \012SVTCA[0]	/* SetFreedomAndProjectionVectorToAxis */\012MIAP[1]	/* MoveIndirectAbsPt */\012MIAP[1]	/* MoveIndirectAbsPt */\012SVTCA[1]	/* SetFreedomAndProjectionVectorToAxis */\012SRP0[ ]	/* SetRefPoint0 */\012ALIGNRP[ ]	/* AlignRelativePt */\012SRP0[ ]	/* SetRefPoint0 */\012ALIGNRP[ ]	/* AlignRelativePt */\012SRP0[ ]	/* SetRefPoint0 */\012MIRP[01101]	/* MoveIndirectRelPt */\012SRP0[ ]	/* SetRefPoint0 */\012MIRP[01101]	/* MoveIndirectRelPt */\012IUP[1]	/* InterpolateUntPts */\012IUP[0]	/* InterpolateUntPts */";
};
width = 2048;
}
);
note = slash;
unicode = 002F;
},
{
glyphname = backslash;
layers = (
{
layerId = "841189CE-7A88-49C9-B3DD-2B83509AFCBE";
paths = (
{
closed = 1;
nodes = (
"2048 -410 LINE",
"1024 1638 LINE",
"0 1638 LINE",
"1024 -410 LINE",
"2048 -410 LINE"
);
}
);
userData = {
assembly = "NPUSHB[ ]	/* 14 values pushed */\0123 105 2 1 105 0 0 5 2 4 0 14 2 0 \012SVTCA[0]	/* SetFreedomAndProjectionVectorToAxis */\012MIAP[1]	/* MoveIndirectAbsPt */\012MIAP[1]	/* MoveIndirectAbsPt */\012SVTCA[1]	/* SetFreedomAndProjectionVectorToAxis */\012SRP0[ ]	/* SetRefPoint0 */\012ALIGNRP[ ]	/* AlignRelativePt */\012SRP0[ ]	/* SetRefPoint0 */\012ALIGNRP[ ]	/* AlignRelativePt */\012SRP0[ ]	/* SetRefPoint0 */\012MIRP[01101]	/* MoveIndirectRelPt */\012SRP0[ ]	/* SetRefPoint0 */\012MIRP[01101]	/* MoveIndirectRelPt */\012IUP[1]	/* InterpolateUntPts */\012IUP[0]	/* InterpolateUntPts */";
};
width = 2048;
}
);
note = backslash;
unicode = 005C;
},
{
glyphname = .notdef;
layers = (
{
layerId = "841189CE-7A88-49C9-B3DD-2B83509AFCBE";
paths = (
{
closed = 1;
nodes = (
"128 0 LINE",
"896 0 LINE",
"896 1238 LINE",
"128 1238 LINE",
"128 0 LINE"
);
},
{
closed = 1;
nodes = (
"276 148 LINE",
"276 1090 LINE",
"748 1090 LINE",
"748 148 LINE",
"276 148 LINE"
);
}
);
userData = {
assembly = "NPUSHB[ ]	/* 12 values pushed */\0125 3 9 4 0 8 4 0 0 8 7 1 \012SVTCA[0]	/* SetFreedomAndProjectionVectorToAxis */\012MDAP[1]	/* MoveDirectAbsPt */\012MDRP[01101]	/* MoveDirectRelPt */\012SRP0[ ]	/* SetRefPoint0 */\012ALIGNRP[ ]	/* AlignRelativePt */\012SRP0[ ]	/* SetRefPoint0 */\012MDRP[01101]	/* MoveDirectRelPt */\012SVTCA[1]	/* SetFreedomAndProjectionVectorToAxis */\012SRP0[ ]	/* SetRefPoint0 */\012MDRP[10110]	/* MoveDirectRelPt */\012MDRP[01101]	/* MoveDirectRelPt */\012SRP0[ ]	/* SetRefPoint0 */\012MDRP[10110]	/* MoveDirectRelPt */\012MDRP[01101]	/* MoveDirectRelPt */\012IUP[1]	/* InterpolateUntPts */\012IUP[0]	/* InterpolateUntPts */";
};
width = 1024;
}
);
note = .notdef;
},
{
glyphname = lightning;
layers = (
{
layerId = "841189CE-7A88-49C9-B3DD-2B83509AFCBE";
paths = (
{
closed = 1;
nodes = (
"1770.667 794.667 OFFCURVE",
"1741.333 826.667 OFFCURVE",
"1688 840 CURVE",
"1690 856.667 OFFCURVE",
"1691 871.333 OFFCURVE",
"1691 884 CURVE SMOOTH",
"1691 930.667 OFFCURVE",
"1677.333 968 OFFCURVE",
"1650 996 CURVE SMOOTH",
"1622.667 1024 OFFCURVE",
"1585.667 1038 OFFCURVE",
"1539 1038 CURVE SMOOTH",
"1522.333 1038 OFFCURVE",
"1508 1036 OFFCURVE",
"1496 1032 CURVE",
"1479.333 1167.333 OFFCURVE",
"1410.333 1235 OFFCURVE",
"1289 1235 CURVE SMOOTH",
"1240.333 1235 OFFCURVE",
"1195.667 1223 OFFCURVE",
"1155 1199 CURVE",
"1087.667 1261.667 OFFCURVE",
"1012.667 1293 OFFCURVE",
"930 1293 CURVE SMOOTH",
"870.667 1293 OFFCURVE",
"817.333 1275.667 OFFCURVE",
"770 1241 CURVE SMOOTH",
"720.667 1205.667 OFFCURVE",
"688.667 1159.667 OFFCURVE",
"674 1103 CURVE",
"659.333 1107 OFFCURVE",
"643 1109 OFFCURVE",
"625 1109 CURVE SMOOTH",
"485 1109 OFFCURVE",
"412 1027.333 OFFCURVE",
"406 864 CURVE",
"343.333 854.667 OFFCURVE",
"299 814.667 OFFCURVE",
"273 744 CURVE",
"1776 744 LINE",
"1776 744 LINE"
);
},
{
closed = 1;
nodes = (
"1134 485 LINE",
"973 519 LINE",
"1058 656 LINE",
"926 656 LINE",
"799 452 LINE",
"950 415 LINE",
"865 168 LINE",
"1134 485 LINE"
);
}
);
userData = {
assembly = "NPUSHB[ ]	/* 50 values pushed */\01228 119 27 135 27 151 27 3 27 104 26 120 26 136 26 3 26 32 29 31 30 29 29 1 0 34 1 33 29 28 103 27 119 27 135 27 151 27 4 0 27 26 32 30 1 13 15 11 1 33 \012SVTCA[0]	/* SetFreedomAndProjectionVectorToAxis */\012SRP0[ ]	/* SetRefPoint0 */\012MDRP[11110]	/* MoveDirectRelPt */\012MDRP[11101]	/* MoveDirectRelPt */\012MDRP[10100]	/* MoveDirectRelPt */\012MDRP[01101]	/* MoveDirectRelPt */\012SRP0[ ]	/* SetRefPoint0 */\012MDRP[11110]	/* MoveDirectRelPt */\012MDRP[11101]	/* MoveDirectRelPt */\012MDRP[00101]	/* MoveDirectRelPt */\012MDRP[01100]	/* MoveDirectRelPt */\012SDS[ ]	/* SetDeltaShiftInGState */\012DELTAP1[ ]	/* DeltaExceptionP1 */\012MDRP[11101]	/* MoveDirectRelPt */\012MDRP[00101]	/* MoveDirectRelPt */\012SVTCA[1]	/* SetFreedomAndProjectionVectorToAxis */\012SRP0[ ]	/* SetRefPoint0 */\012MDRP[01110]	/* MoveDirectRelPt */\012SRP0[ ]	/* SetRefPoint0 */\012MDRP[01110]	/* MoveDirectRelPt */\012SRP1[ ]	/* SetRefPoint1 */\012IP[ ]	/* InterpolatePts */\012MDAP[1]	/* MoveDirectAbsPt */\012MDRP[10101]	/* MoveDirectRelPt */\012MDRP[01101]	/* MoveDirectRelPt */\012SRP0[ ]	/* SetRefPoint0 */\012MDRP[11101]	/* MoveDirectRelPt */\012MDRP[11101]	/* MoveDirectRelPt */\012DELTAP1[ ]	/* DeltaExceptionP1 */\012MDRP[00101]	/* MoveDirectRelPt */\012DELTAP1[ ]	/* DeltaExceptionP1 */\012MDRP[01101]	/* MoveDirectRelPt */\012IUP[1]	/* InterpolateUntPts */\012IUP[0]	/* InterpolateUntPts */";
};
width = 2048;
}
);
note = lightning;
unicode = 2607;
},
{
glyphname = caution;
layers = (
{
layerId = "841189CE-7A88-49C9-B3DD-2B83509AFCBE";
paths = (
{
closed = 1;
nodes = (
"1775 377 LINE",
"1233 1297 LINE SMOOTH",
"1180.333 1385.667 OFFCURVE",
"1110.667 1430 OFFCURVE",
"1024 1430 CURVE SMOOTH",
"936.667 1430 OFFCURVE",
"867 1385.667 OFFCURVE",
"815 1297 CURVE SMOOTH",
"273 377 LINE SMOOTH",
"244.333 327.667 OFFCURVE",
"230 277.333 OFFCURVE",
"230 226 CURVE SMOOTH",
"230 163.333 OFFCURVE",
"250 110 OFFCURVE",
"290 66 CURVE SMOOTH",
"330 22 OFFCURVE",
"379.333 0 OFFCURVE",
"438 0 CURVE SMOOTH",
"1610 0 LINE SMOOTH",
"1668.667 0 OFFCURVE",
"1718 22 OFFCURVE",
"1758 66 CURVE SMOOTH",
"1798 110 OFFCURVE",
"1818 163.333 OFFCURVE",
"1818 226 CURVE SMOOTH",
"1818 277.333 OFFCURVE",
"1803.667 327.667 OFFCURVE",
"1775 377 CURVE"
);
},
{
closed = 1;
nodes = (
"1621.667 326.667 OFFCURVE",
"1645 267.667 OFFCURVE",
"1645 229 CURVE SMOOTH",
"1645 172.333 OFFCURVE",
"1592.333 144 OFFCURVE",
"1487 144 CURVE SMOOTH",
"561 144 LINE SMOOTH",
"455.667 144 OFFCURVE",
"403 172.333 OFFCURVE",
"403 229 CURVE SMOOTH",
"403 267.667 OFFCURVE",
"426.333 326.667 OFFCURVE",
"473 406 CURVE SMOOTH",
"873 1078 LINE SMOOTH",
"936.333 1184.667 OFFCURVE",
"986.667 1238 OFFCURVE",
"1024 1238 CURVE SMOOTH",
"1060.667 1238 OFFCURVE",
"1110.667 1184.667 OFFCURVE",
"1174 1078 CURVE SMOOTH",
"1575 406 LINE",
"1575 406 LINE"
);
}
);
userData = {
assembly = "NPUSHB[ ]	/* 21 values pushed */\01214 20 14 20 25 30 166 2 33 25 166 9 32 20 166 14 27 166 6 6 32 \012SVTCA[0]	/* SetFreedomAndProjectionVectorToAxis */\012SRP0[ ]	/* SetRefPoint0 */\012ALIGNRP[ ]	/* AlignRelativePt */\012SRP0[ ]	/* SetRefPoint0 */\012MIRP[11101]	/* MoveIndirectRelPt */\012MDRP[11100]	/* MoveDirectRelPt */\012MIRP[01101]	/* MoveIndirectRelPt */\012SVTCA[1]	/* SetFreedomAndProjectionVectorToAxis */\012SRP0[ ]	/* SetRefPoint0 */\012MDRP[10110]	/* MoveDirectRelPt */\012MIRP[01101]	/* MoveIndirectRelPt */\012SRP0[ ]	/* SetRefPoint0 */\012MDRP[11110]	/* MoveDirectRelPt */\012MIRP[01101]	/* MoveIndirectRelPt */\012SRP1[ ]	/* SetRefPoint1 */\012IP[ ]	/* InterpolatePts */\012IP[ ]	/* InterpolatePts */\012RTDG[ ]	/* RoundToDoubleGrid */\012MDAP[1]	/* MoveDirectAbsPt */\012MDAP[1]	/* MoveDirectAbsPt */\012IUP[1]	/* InterpolateUntPts */\012IUP[0]	/* InterpolateUntPts */";
};
width = 2048;
}
);
note = caution;
unicode = 2621;
},
{
glyphname = peace;
layers = (
{
layerId = "841189CE-7A88-49C9-B3DD-2B83509AFCBE";
paths = (
{
closed = 1;
nodes = (
"1866 1456.667 OFFCURVE",
"1860 1464 OFFCURVE",
"1848 1464 CURVE SMOOTH",
"1840.667 1464 OFFCURVE",
"1834.333 1459.333 OFFCURVE",
"1829 1450 CURVE SMOOTH",
"1817 1428.667 OFFCURVE",
"1806 1413.667 OFFCURVE",
"1796 1405 CURVE SMOOTH",
"1772 1383.667 OFFCURVE",
"1733.333 1364.333 OFFCURVE",
"1680 1347 CURVE SMOOTH",
"1621.333 1327.667 OFFCURVE",
"1581.333 1310.333 OFFCURVE",
"1560 1295 CURVE SMOOTH",
"1518.667 1266.333 OFFCURVE",
"1490.333 1222.667 OFFCURVE",
"1475 1164 CURVE",
"1513 1154 LINE",
"1528.333 1213.333 OFFCURVE",
"1563 1254.667 OFFCURVE",
"1617 1278 CURVE",
"1669 1298 OFFCURVE",
"1720.667 1318.333 OFFCURVE",
"1772 1339 CURVE",
"1752 1313 OFFCURVE",
"1730 1264.333 OFFCURVE",
"1706 1193 CURVE SMOOTH",
"1685.333 1130.333 OFFCURVE",
"1655.667 1081.333 OFFCURVE",
"1617 1046 CURVE",
"1643 1017 LINE",
"1683 1053 OFFCURVE",
"1712.333 1095.667 OFFCURVE",
"1731 1145 CURVE SMOOTH",
"1749 1191.667 OFFCURVE",
"1767 1238.667 OFFCURVE",
"1785 1286 CURVE",
"1786.333 1288 OFFCURVE",
"1802.333 1313.667 OFFCURVE",
"1833 1363 CURVE SMOOTH",
"1855 1397 OFFCURVE",
"1866 1423.333 OFFCURVE",
"1866 1442 CURVE",
"1866 1442 LINE"
);
},
{
closed = 1;
nodes = (
"1629.333 987 OFFCURVE",
"1585.333 1029.667 OFFCURVE",
"1546 1083 CURVE SMOOTH",
"1520 1118.333 OFFCURVE",
"1485 1136 OFFCURVE",
"1441 1136 CURVE SMOOTH",
"1369.667 1136 OFFCURVE",
"1320 1102.333 OFFCURVE",
"1292 1035 CURVE",
"1278.667 980.333 OFFCURVE",
"1265.333 925.333 OFFCURVE",
"1252 870 CURVE",
"1230.667 793.333 OFFCURVE",
"1200 755 OFFCURVE",
"1160 755 CURVE SMOOTH",
"1114.667 755 OFFCURVE",
"1092 790 OFFCURVE",
"1092 860 CURVE SMOOTH",
"1092 868.667 OFFCURVE",
"1092.667 881.333 OFFCURVE",
"1094 898 CURVE SMOOTH",
"1095.333 914.667 OFFCURVE",
"1096 927.333 OFFCURVE",
"1096 936 CURVE SMOOTH",
"1096 1056.667 OFFCURVE",
"1008 1130 OFFCURVE",
"832 1156 CURVE",
"792 1159.333 OFFCURVE",
"761.667 1161.333 OFFCURVE",
"741 1162 CURVE SMOOTH",
"593 1168.667 OFFCURVE",
"502.333 1175 OFFCURVE",
"469 1181 CURVE SMOOTH",
"405 1193 OFFCURVE",
"349.333 1212.667 OFFCURVE",
"302 1240 CURVE",
"300.667 1230.667 OFFCURVE",
"300.667 1215.667 OFFCURVE",
"302 1195 CURVE",
"302 1120.333 OFFCURVE",
"315.667 1069.333 OFFCURVE",
"343 1042 CURVE",
"356.333 1032.667 OFFCURVE",
"369.667 1023 OFFCURVE",
"383 1013 CURVE SMOOTH",
"399.667 1000.333 OFFCURVE",
"408 988.333 OFFCURVE",
"408 977 CURVE SMOOTH",
"408 968.333 OFFCURVE",
"405.333 955.5 OFFCURVE",
"400 938.5 CURVE SMOOTH",
"394.667 921.5 OFFCURVE",
"392 908.333 OFFCURVE",
"392 899 CURVE SMOOTH",
"392 875 OFFCURVE",
"414.667 857.167 OFFCURVE",
"460 845.5 CURVE SMOOTH",
"505.333 833.833 OFFCURVE",
"528 822.667 OFFCURVE",
"528 812 CURVE SMOOTH",
"528 808 OFFCURVE",
"525.667 800.167 OFFCURVE",
"521 788.5 CURVE SMOOTH",
"516.333 776.833 OFFCURVE",
"514 767.333 OFFCURVE",
"514 760 CURVE SMOOTH",
"514 734 OFFCURVE",
"533.333 715.667 OFFCURVE",
"572 705 CURVE SMOOTH",
"610.667 694.333 OFFCURVE",
"630 682 OFFCURVE",
"630 668 CURVE SMOOTH",
"630 664 OFFCURVE",
"629.333 658.5 OFFCURVE",
"628 651.5 CURVE SMOOTH",
"626.667 644.5 OFFCURVE",
"626 639 OFFCURVE",
"626 635 CURVE SMOOTH",
"626 615 OFFCURVE",
"641 602 OFFCURVE",
"671 596 CURVE",
"694.333 594 OFFCURVE",
"717.333 592 OFFCURVE",
"740 590 CURVE SMOOTH",
"796 584 OFFCURVE",
"860 562.333 OFFCURVE",
"932 525 CURVE",
"928.667 499.667 OFFCURVE",
"907.667 451.667 OFFCURVE",
"869 381 CURVE SMOOTH",
"833 313.667 OFFCURVE",
"804.667 268 OFFCURVE",
"784 244 CURVE SMOOTH",
"752 206.667 OFFCURVE",
"701 178.333 OFFCURVE",
"631 159 CURVE SMOOTH",
"572.333 143.667 OFFCURVE",
"514 128.333 OFFCURVE",
"456 113 CURVE",
"436 105.667 OFFCURVE",
"426 91 OFFCURVE",
"426 69 CURVE SMOOTH",
"426 49 OFFCURVE",
"439.333 35 OFFCURVE",
"466 27 CURVE SMOOTH",
"492.667 19 OFFCURVE",
"506 11.667 OFFCURVE",
"506 5 CURVE SMOOTH",
"506 -3 OFFCURVE",
"502 -15.5 OFFCURVE",
"494 -32.5 CURVE SMOOTH",
"486 -49.5 OFFCURVE",
"482 -62.333 OFFCURVE",
"482 -71 CURVE SMOOTH",
"482 -88.333 OFFCURVE",
"495.333 -97 OFFCURVE",
"522 -97 CURVE SMOOTH",
"527.333 -97 OFFCURVE",
"535.667 -96.333 OFFCURVE",
"547 -95 CURVE SMOOTH",
"558.333 -93.667 OFFCURVE",
"567 -93 OFFCURVE",
"573 -93 CURVE SMOOTH",
"581.667 -93 OFFCURVE",
"587.833 -106 OFFCURVE",
"591.5 -132 CURVE SMOOTH",
"595.167 -158 OFFCURVE",
"611.667 -171 OFFCURVE",
"641 -171 CURVE SMOOTH",
"651.667 -171 OFFCURVE",
"664.167 -167.667 OFFCURVE",
"678.5 -161 CURVE SMOOTH",
"692.833 -154.333 OFFCURVE",
"702.667 -151 OFFCURVE",
"708 -151 CURVE SMOOTH",
"714 -151 OFFCURVE",
"722.5 -163.833 OFFCURVE",
"733.5 -189.5 CURVE SMOOTH",
"744.5 -215.167 OFFCURVE",
"758.667 -228 OFFCURVE",
"776 -228 CURVE SMOOTH",
"788.667 -228 OFFCURVE",
"801.5 -222.667 OFFCURVE",
"814.5 -212 CURVE SMOOTH",
"827.5 -201.333 OFFCURVE",
"835.667 -196 OFFCURVE",
"839 -196 CURVE SMOOTH",
"841 -196 OFFCURVE",
"848 -204.167 OFFCURVE",
"860 -220.5 CURVE SMOOTH",
"872 -236.833 OFFCURVE",
"885.667 -245 OFFCURVE",
"901 -245 CURVE SMOOTH",
"927.667 -245 OFFCURVE",
"949.667 -198.667 OFFCURVE",
"967 -106 CURVE SMOOTH",
"976.333 -46.667 OFFCURVE",
"985.333 12.667 OFFCURVE",
"994 72 CURVE",
"1006 122 OFFCURVE",
"1087 147 OFFCURVE",
"1237 147 CURVE SMOOTH",
"1321 147 OFFCURVE",
"1395.667 182.667 OFFCURVE",
"1461 254 CURVE SMOOTH",
"1522.333 322 OFFCURVE",
"1555.667 398.667 OFFCURVE",
"1561 484 CURVE SMOOTH",
"1561.667 494.667 OFFCURVE",
"1562 512 OFFCURVE",
"1562 536 CURVE SMOOTH",
"1562 602 OFFCURVE",
"1555.333 669.333 OFFCURVE",
"1542 738 CURVE SMOOTH",
"1531.333 792.667 OFFCURVE",
"1526 827 OFFCURVE",
"1526 841 CURVE SMOOTH",
"1526 872.333 OFFCURVE",
"1544.333 898 OFFCURVE",
"1581 918 CURVE SMOOTH",
"1590.333 923.333 OFFCURVE",
"1622.667 935.667 OFFCURVE",
"1678 955 CURVE",
"1678 955 LINE"
);
},
{
closed = 1;
nodes = (
"1525 939 OFFCURVE",
"1485 898.333 OFFCURVE",
"1485 843 CURVE SMOOTH",
"1485 834.333 OFFCURVE",
"1486 822.667 OFFCURVE",
"1488 808 CURVE SMOOTH",
"1510.667 645.333 OFFCURVE",
"1522 553.333 OFFCURVE",
"1522 532 CURVE SMOOTH",
"1522 512.667 OFFCURVE",
"1521.667 497.333 OFFCURVE",
"1521 486 CURVE SMOOTH",
"1517 414.667 OFFCURVE",
"1486.333 347.667 OFFCURVE",
"1429 285 CURVE SMOOTH",
"1369 219.667 OFFCURVE",
"1304 187 OFFCURVE",
"1234 187 CURVE SMOOTH",
"1065.333 187 OFFCURVE",
"972.667 151.333 OFFCURVE",
"956 80 CURVE SMOOTH",
"954.667 74 OFFCURVE",
"948 25.333 OFFCURVE",
"936 -66 CURVE SMOOTH",
"927.333 -128.667 OFFCURVE",
"914 -174.667 OFFCURVE",
"896 -204 CURVE",
"888.667 -193.333 OFFCURVE",
"881 -182.833 OFFCURVE",
"873 -172.5 CURVE SMOOTH",
"865 -162.167 OFFCURVE",
"853.667 -157 OFFCURVE",
"839 -157 CURVE SMOOTH",
"826.333 -157 OFFCURVE",
"813.667 -162.333 OFFCURVE",
"801 -173 CURVE SMOOTH",
"788.333 -183.667 OFFCURVE",
"780 -189 OFFCURVE",
"776 -189 CURVE",
"770 -174.333 OFFCURVE",
"763.667 -160 OFFCURVE",
"757 -146 CURVE SMOOTH",
"746.333 -123.333 OFFCURVE",
"730 -112 OFFCURVE",
"708 -112 CURVE SMOOTH",
"697.333 -112 OFFCURVE",
"685 -115.333 OFFCURVE",
"671 -122 CURVE SMOOTH",
"657 -128.667 OFFCURVE",
"647 -132 OFFCURVE",
"641 -132 CURVE SMOOTH",
"633 -132 OFFCURVE",
"626.833 -119 OFFCURVE",
"622.5 -93 CURVE SMOOTH",
"618.167 -67 OFFCURVE",
"601.667 -54 OFFCURVE",
"573 -54 CURVE SMOOTH",
"568.333 -54 OFFCURVE",
"561.833 -54.833 OFFCURVE",
"553.5 -56.5 CURVE SMOOTH",
"545.167 -58.167 OFFCURVE",
"538.667 -59 OFFCURVE",
"534 -59 CURVE SMOOTH",
"528.667 -59 OFFCURVE",
"526 -56.667 OFFCURVE",
"526 -52 CURVE SMOOTH",
"526 -51.333 OFFCURVE",
"529.5 -43.333 OFFCURVE",
"536.5 -28 CURVE SMOOTH",
"543.5 -12.667 OFFCURVE",
"547 -0.333 OFFCURVE",
"547 9 CURVE SMOOTH",
"547 33.667 OFFCURVE",
"533.333 47.667 OFFCURVE",
"506 51 CURVE SMOOTH",
"482.667 54.333 OFFCURVE",
"471 58.667 OFFCURVE",
"471 64 CURVE SMOOTH",
"471 76 OFFCURVE",
"483 85.667 OFFCURVE",
"507 93 CURVE",
"561.667 105.667 OFFCURVE",
"616.333 118.667 OFFCURVE",
"671 132 CURVE",
"730.333 149.333 OFFCURVE",
"777.667 178.333 OFFCURVE",
"813 219 CURVE SMOOTH",
"844.333 255 OFFCURVE",
"879.333 308.667 OFFCURVE",
"918 380 CURVE SMOOTH",
"960 457.333 OFFCURVE",
"982.667 515.333 OFFCURVE",
"986 554 CURVE",
"874 606 OFFCURVE",
"767.333 635.333 OFFCURVE",
"666 642 CURVE",
"667.333 655.333 OFFCURVE",
"668 665 OFFCURVE",
"668 671 CURVE SMOOTH",
"668 703 OFFCURVE",
"648.833 724.5 OFFCURVE",
"610.5 735.5 CURVE SMOOTH",
"572.167 746.5 OFFCURVE",
"553 754.667 OFFCURVE",
"553 760 CURVE SMOOTH",
"553 762.667 OFFCURVE",
"555.5 770 OFFCURVE",
"560.5 782 CURVE SMOOTH",
"565.5 794 OFFCURVE",
"568 804 OFFCURVE",
"568 812 CURVE SMOOTH",
"568 840 OFFCURVE",
"545 860.5 OFFCURVE",
"499 873.5 CURVE SMOOTH",
"453 886.5 OFFCURVE",
"430 896.333 OFFCURVE",
"430 903 CURVE SMOOTH",
"430 911.667 OFFCURVE",
"433 924.333 OFFCURVE",
"439 941 CURVE SMOOTH",
"445 957.667 OFFCURVE",
"448 970.667 OFFCURVE",
"448 980 CURVE SMOOTH",
"448 1004.667 OFFCURVE",
"431.5 1028.833 OFFCURVE",
"398.5 1052.5 CURVE SMOOTH",
"365.5 1076.167 OFFCURVE",
"349 1099.333 OFFCURVE",
"349 1122 CURVE SMOOTH",
"349 1172 LINE",
"381.667 1157.333 OFFCURVE",
"420.333 1146.333 OFFCURVE",
"465 1139 CURVE",
"565.667 1133.667 OFFCURVE",
"666.667 1128 OFFCURVE",
"768 1122 CURVE SMOOTH",
"901.333 1111.333 OFFCURVE",
"989.667 1077 OFFCURVE",
"1033 1019 CURVE SMOOTH",
"1045.667 1002.333 OFFCURVE",
"1052 974.667 OFFCURVE",
"1052 936 CURVE SMOOTH",
"1052 927.333 OFFCURVE",
"1051.333 914 OFFCURVE",
"1050 896 CURVE SMOOTH",
"1048.667 878 OFFCURVE",
"1048 864.667 OFFCURVE",
"1048 856 CURVE SMOOTH",
"1048 762 OFFCURVE",
"1085.333 715 OFFCURVE",
"1160 715 CURVE SMOOTH",
"1188 715 OFFCURVE",
"1211.333 724 OFFCURVE",
"1230 742 CURVE SMOOTH",
"1256.667 768 OFFCURVE",
"1278 813.667 OFFCURVE",
"1294 879 CURVE SMOOTH",
"1314 961 OFFCURVE",
"1328 1010.333 OFFCURVE",
"1336 1027 CURVE SMOOTH",
"1359.333 1073 OFFCURVE",
"1396.333 1096 OFFCURVE",
"1447 1096 CURVE SMOOTH",
"1480.333 1096 OFFCURVE",
"1505.333 1082.667 OFFCURVE",
"1522 1056 CURVE SMOOTH",
"1544.667 1019.333 OFFCURVE",
"1572.333 989 OFFCURVE",
"1605 965 CURVE",
"1605 965 LINE"
);
},
{
closed = 1;
nodes = (
"1519 1023 OFFCURVE",
"1510 1032 OFFCURVE",
"1492 1032 CURVE SMOOTH",
"1474 1032 OFFCURVE",
"1465 1023 OFFCURVE",
"1465 1005 CURVE SMOOTH",
"1465 987 OFFCURVE",
"1474 978 OFFCURVE",
"1492 978 CURVE SMOOTH",
"1510 978 OFFCURVE",
"1519 987 OFFCURVE",
"1519 1005 CURVE",
"1519 1005 LINE"
);
}
);
width = 2048;
}
);
note = peace;
unicode = 262E;
},
{
glyphname = rain;
layers = (
{
layerId = "841189CE-7A88-49C9-B3DD-2B83509AFCBE";
paths = (
{
closed = 1;
nodes = (
"1770.667 794.667 OFFCURVE",
"1741.333 826.667 OFFCURVE",
"1688 840 CURVE",
"1690 856.667 OFFCURVE",
"1691 871.333 OFFCURVE",
"1691 884 CURVE SMOOTH",
"1691 930.667 OFFCURVE",
"1677.333 968 OFFCURVE",
"1650 996 CURVE SMOOTH",
"1622.667 1024 OFFCURVE",
"1585.667 1038 OFFCURVE",
"1539 1038 CURVE SMOOTH",
"1522.333 1038 OFFCURVE",
"1508 1036 OFFCURVE",
"1496 1032 CURVE",
"1479.333 1167.333 OFFCURVE",
"1410.333 1235 OFFCURVE",
"1289 1235 CURVE SMOOTH",
"1240.333 1235 OFFCURVE",
"1195.667 1223 OFFCURVE",
"1155 1199 CURVE",
"1087.667 1261.667 OFFCURVE",
"1012.667 1293 OFFCURVE",
"930 1293 CURVE SMOOTH",
"870.667 1293 OFFCURVE",
"817.333 1275.667 OFFCURVE",
"770 1241 CURVE SMOOTH",
"720.667 1205.667 OFFCURVE",
"688.667 1159.667 OFFCURVE",
"674 1103 CURVE",
"659.333 1107 OFFCURVE",
"643 1109 OFFCURVE",
"625 1109 CURVE SMOOTH",
"485 1109 OFFCURVE",
"412 1027.333 OFFCURVE",
"406 864 CURVE",
"343.333 854.667 OFFCURVE",
"299 814.667 OFFCURVE",
"273 744 CURVE",
"1776 744 LINE",
"1776 744 LINE"
);
},
{
closed = 1;
nodes = (
"1144 589 OFFCURVE",
"1105 549.333 OFFCURVE",
"1105 500 CURVE SMOOTH",
"1105 466.667 OFFCURVE",
"1122.333 450 OFFCURVE",
"1157 450 CURVE SMOOTH",
"1190.333 450 OFFCURVE",
"1207 469.333 OFFCURVE",
"1207 508 CURVE SMOOTH",
"1207 550 OFFCURVE",
"1212 587 OFFCURVE",
"1222 619 CURVE",
"1222 619 LINE"
);
},
{
closed = 1;
nodes = (
"761.333 589.667 OFFCURVE",
"723 550 OFFCURVE",
"723 500 CURVE SMOOTH",
"723 466.667 OFFCURVE",
"739.667 450 OFFCURVE",
"773 450 CURVE SMOOTH",
"797 450 OFFCURVE",
"812.333 460 OFFCURVE",
"819 480 CURVE",
"822.333 488.667 OFFCURVE",
"824.333 508.667 OFFCURVE",
"825 540 CURVE SMOOTH",
"825.667 566.667 OFFCURVE",
"830 593 OFFCURVE",
"838 619 CURVE",
"838 619 LINE"
);
},
{
closed = 1;
nodes = (
"943.667 386 OFFCURVE",
"905 346 OFFCURVE",
"905 296 CURVE SMOOTH",
"905 263.333 OFFCURVE",
"922 247 OFFCURVE",
"956 247 CURVE SMOOTH",
"989.333 247 OFFCURVE",
"1006 266.333 OFFCURVE",
"1006 305 CURVE SMOOTH",
"1006 347 OFFCURVE",
"1011 384 OFFCURVE",
"1021 416 CURVE",
"1021 416 LINE"
);
},
{
closed = 1;
nodes = (
"560.333 386.667 OFFCURVE",
"522 346.667 OFFCURVE",
"522 296 CURVE SMOOTH",
"522 263.333 OFFCURVE",
"539 247 OFFCURVE",
"573 247 CURVE SMOOTH",
"596.333 247 OFFCURVE",
"611.667 257 OFFCURVE",
"619 277 CURVE",
"621.667 285.667 OFFCURVE",
"623.333 305.667 OFFCURVE",
"624 337 CURVE SMOOTH",
"624.667 363.667 OFFCURVE",
"629 390 OFFCURVE",
"637 416 CURVE",
"637 416 LINE"
);
}
);
userData = {
assembly = "NPUSHB[ ]	/* 28 values pushed */\0120 63 50 46 32 28 36 42 54 60 1 62 58 52 40 34 48 44 30 26 26 34 1 13 15 11 1 62 \012SVTCA[0]	/* SetFreedomAndProjectionVectorToAxis */\012SRP0[ ]	/* SetRefPoint0 */\012MDRP[11110]	/* MoveDirectRelPt */\012MDRP[11101]	/* MoveDirectRelPt */\012MDRP[10100]	/* MoveDirectRelPt */\012MDRP[01101]	/* MoveDirectRelPt */\012SRP0[ ]	/* SetRefPoint0 */\012MDRP[11110]	/* MoveDirectRelPt */\012ALIGNRP[ ]	/* AlignRelativePt */\012SRP0[ ]	/* SetRefPoint0 */\012MDRP[11101]	/* MoveDirectRelPt */\012MDRP[11110]	/* MoveDirectRelPt */\012MDRP[01101]	/* MoveDirectRelPt */\012SRP0[ ]	/* SetRefPoint0 */\012MDRP[11101]	/* MoveDirectRelPt */\012MDRP[11110]	/* MoveDirectRelPt */\012MDRP[01101]	/* MoveDirectRelPt */\012SVTCA[1]	/* SetFreedomAndProjectionVectorToAxis */\012SRP0[ ]	/* SetRefPoint0 */\012MDRP[11110]	/* MoveDirectRelPt */\012MDRP[11110]	/* MoveDirectRelPt */\012MDRP[11101]	/* MoveDirectRelPt */\012MDRP[11110]	/* MoveDirectRelPt */\012MDRP[11101]	/* MoveDirectRelPt */\012MDRP[11100]	/* MoveDirectRelPt */\012MDRP[01101]	/* MoveDirectRelPt */\012MDRP[11100]	/* MoveDirectRelPt */\012MDRP[01101]	/* MoveDirectRelPt */\012SRP0[ ]	/* SetRefPoint0 */\012MDRP[01110]	/* MoveDirectRelPt */\012IUP[1]	/* InterpolateUntPts */\012IUP[0]	/* InterpolateUntPts */";
};
width = 2048;
}
);
note = rain;
unicode = 26C6;
},
{
glyphname = mountain;
layers = (
{
layerId = "841189CE-7A88-49C9-B3DD-2B83509AFCBE";
paths = (
{
closed = 1;
nodes = (
"2048 -410 LINE",
"2048 542 LINE",
"2000.667 542 OFFCURVE",
"1930.667 600 OFFCURVE",
"1838 716 CURVE SMOOTH",
"1757.333 824 OFFCURVE",
"1676.667 931.667 OFFCURVE",
"1596 1039 CURVE SMOOTH",
"1504.667 1154.333 OFFCURVE",
"1435.667 1212 OFFCURVE",
"1389 1212 CURVE SMOOTH",
"1382.333 1212 OFFCURVE",
"1349 1206.667 OFFCURVE",
"1289 1196 CURVE SMOOTH",
"1232.333 1185.333 OFFCURVE",
"1190.333 1181.333 OFFCURVE",
"1163 1184 CURVE SMOOTH",
"1143 1185.333 OFFCURVE",
"1115.833 1197.667 OFFCURVE",
"1081.5 1221 CURVE SMOOTH",
"1047.167 1244.333 OFFCURVE",
"1021.333 1256 OFFCURVE",
"1004 1256 CURVE SMOOTH",
"966.667 1256 OFFCURVE",
"911 1206.333 OFFCURVE",
"837 1107 CURVE SMOOTH",
"772.333 1015.667 OFFCURVE",
"707.333 924 OFFCURVE",
"642 832 CURVE SMOOTH",
"567.333 733.333 OFFCURVE",
"509.333 684 OFFCURVE",
"468 684 CURVE SMOOTH",
"430 684 OFFCURVE",
"393 689.333 OFFCURVE",
"357 700 CURVE SMOOTH",
"321 710.667 OFFCURVE",
"293.333 716 OFFCURVE",
"274 716 CURVE SMOOTH",
"254.667 716 OFFCURVE",
"235.333 701 OFFCURVE",
"216 671 CURVE SMOOTH",
"190 629.667 OFFCURVE",
"168.333 602 OFFCURVE",
"151 588 CURVE SMOOTH",
"113.667 557.333 OFFCURVE",
"63.333 542 OFFCURVE",
"0 542 CURVE",
"0 -410 LINE",
"2048 -410 LINE"
);
},
{
closed = 1;
nodes = (
"1189.333 1152.667 OFFCURVE",
"1126 1140 OFFCURVE",
"1078 1140 CURVE SMOOTH",
"1048.667 1140 OFFCURVE",
"1028 1145.333 OFFCURVE",
"1016 1156 CURVE SMOOTH",
"1001.333 1169.333 OFFCURVE",
"994 1185.333 OFFCURVE",
"994 1204 CURVE SMOOTH",
"994 1224 OFFCURVE",
"1005.667 1234 OFFCURVE",
"1029 1234 CURVE SMOOTH",
"1036.333 1234 OFFCURVE",
"1050.333 1226.333 OFFCURVE",
"1071 1211 CURVE SMOOTH",
"1094.333 1193.667 OFFCURVE",
"1113.333 1182.667 OFFCURVE",
"1128 1178 CURVE SMOOTH",
"1162 1166.667 OFFCURVE",
"1208.667 1166.667 OFFCURVE",
"1268 1178 CURVE",
"1268 1178 LINE"
);
},
{
closed = 1;
nodes = (
"1761.667 781.333 OFFCURVE",
"1764 768 OFFCURVE",
"1764 756 CURVE SMOOTH",
"1764 728 OFFCURVE",
"1752.667 714 OFFCURVE",
"1730 714 CURVE SMOOTH",
"1702 714 OFFCURVE",
"1666.5 751.5 OFFCURVE",
"1623.5 826.5 CURVE SMOOTH",
"1580.5 901.5 OFFCURVE",
"1546.667 939 OFFCURVE",
"1522 939 CURVE SMOOTH",
"1499.333 939 OFFCURVE",
"1488 927.333 OFFCURVE",
"1488 904 CURVE SMOOTH",
"1488 894.667 OFFCURVE",
"1490.667 878.667 OFFCURVE",
"1496 856 CURVE SMOOTH",
"1501.333 833.333 OFFCURVE",
"1504 818 OFFCURVE",
"1504 810 CURVE SMOOTH",
"1504 794 OFFCURVE",
"1497 785.667 OFFCURVE",
"1483 785 CURVE SMOOTH",
"1459 784.333 OFFCURVE",
"1419.167 801.333 OFFCURVE",
"1363.5 836 CURVE SMOOTH",
"1307.833 870.667 OFFCURVE",
"1266.667 888 OFFCURVE",
"1240 888 CURVE SMOOTH",
"1171.333 888 OFFCURVE",
"1127.333 866.667 OFFCURVE",
"1108 824 CURVE",
"1100.667 784.667 OFFCURVE",
"1093.333 745.333 OFFCURVE",
"1086 706 CURVE SMOOTH",
"1077.333 664 OFFCURVE",
"1051.667 643.667 OFFCURVE",
"1009 645 CURVE SMOOTH",
"985 645.667 OFFCURVE",
"965 666 OFFCURVE",
"949 706 CURVE",
"935.667 743.333 OFFCURVE",
"922 780.667 OFFCURVE",
"908 818 CURVE",
"886.667 858 OFFCURVE",
"857.333 878.333 OFFCURVE",
"820 879 CURVE SMOOTH",
"760.667 879.667 OFFCURVE",
"693.667 841 OFFCURVE",
"619 763 CURVE",
"703 874.333 OFFCURVE",
"766.667 963.667 OFFCURVE",
"810 1031 CURVE SMOOTH",
"849.333 1092.333 OFFCURVE",
"887.333 1142 OFFCURVE",
"924 1180 CURVE SMOOTH",
"939.333 1196 OFFCURVE",
"954 1209 OFFCURVE",
"968 1219 CURVE",
"958.667 1197 OFFCURVE",
"954 1177 OFFCURVE",
"954 1159 CURVE SMOOTH",
"954 1126.333 OFFCURVE",
"969 1107.333 OFFCURVE",
"999 1102 CURVE SMOOTH",
"1013 1100 OFFCURVE",
"1026.667 1099 OFFCURVE",
"1040 1099 CURVE SMOOTH",
"1056.667 1099 OFFCURVE",
"1081.333 1102.167 OFFCURVE",
"1114 1108.5 CURVE SMOOTH",
"1146.667 1114.833 OFFCURVE",
"1174.667 1118 OFFCURVE",
"1198 1118 CURVE SMOOTH",
"1218 1118 OFFCURVE",
"1241.667 1114.167 OFFCURVE",
"1269 1106.5 CURVE SMOOTH",
"1296.333 1098.833 OFFCURVE",
"1320 1095 OFFCURVE",
"1340 1095 CURVE SMOOTH",
"1349.333 1095 OFFCURVE",
"1359 1095.333 OFFCURVE",
"1369 1096 CURVE",
"1404.333 1100 OFFCURVE",
"1429 1112 OFFCURVE",
"1443 1132 CURVE SMOOTH",
"1449 1140 OFFCURVE",
"1452.333 1149.333 OFFCURVE",
"1453 1160 CURVE",
"1513.667 1108.667 OFFCURVE",
"1569.333 1047.333 OFFCURVE",
"1620 976 CURVE SMOOTH",
"1682.667 892.667 OFFCURVE",
"1728.333 832.667 OFFCURVE",
"1757 796 CURVE",
"1757 796 LINE"
);
},
{
closed = 1;
nodes = (
"406.667 646.667 OFFCURVE",
"358.667 639 OFFCURVE",
"326 643 CURVE SMOOTH",
"288.667 647.667 OFFCURVE",
"271.667 666.333 OFFCURVE",
"275 699 CURVE",
"298.333 699 OFFCURVE",
"328.333 693 OFFCURVE",
"365 681 CURVE SMOOTH",
"395 671 OFFCURVE",
"430 666 OFFCURVE",
"470 666 CURVE",
"470 666 LINE"
);
}
);
userData = {
assembly = "NPUSHB[ ]	/* 52 values pushed */\0126 108 104 73 77 65 39 85 31 49 95 26 45 13 30 2 30 113 2 112 100 90 97 87 81 73 75 58 53 61 31 22 43 140 37 118 24 20 17 2 110 108 118 104 8 2 151 30 151 1 14 112 \012SVTCA[0]	/* SetFreedomAndProjectionVectorToAxis */\012SRP0[ ]	/* SetRefPoint0 */\012MIRP[01110]	/* MoveIndirectRelPt */\012MIRP[01101]	/* MoveIndirectRelPt */\012MIRP[11110]	/* MoveIndirectRelPt */\012MDRP[11100]	/* MoveDirectRelPt */\012MDRP[00101]	/* MoveDirectRelPt */\012MIRP[11101]	/* MoveIndirectRelPt */\012MDRP[01110]	/* MoveDirectRelPt */\012SRP0[ ]	/* SetRefPoint0 */\012MDRP[11100]	/* MoveDirectRelPt */\012MDRP[01100]	/* MoveDirectRelPt */\012MDRP[01100]	/* MoveDirectRelPt */\012MIRP[11101]	/* MoveIndirectRelPt */\012MIRP[11110]	/* MoveIndirectRelPt */\012IP[ ]	/* InterpolatePts */\012IP[ ]	/* InterpolatePts */\012MDRP[11101]	/* MoveDirectRelPt */\012MDRP[01100]	/* MoveDirectRelPt */\012SHP[1]	/* ShiftPointByLastPoint */\012MDRP[11110]	/* MoveDirectRelPt */\012MDRP[00101]	/* MoveDirectRelPt */\012MDRP[01100]	/* MoveDirectRelPt */\012MDRP[10100]	/* MoveDirectRelPt */\012MDRP[00100]	/* MoveDirectRelPt */\012MDRP[10100]	/* MoveDirectRelPt */\012MDRP[00100]	/* MoveDirectRelPt */\012SVTCA[1]	/* SetFreedomAndProjectionVectorToAxis */\012SRP0[ ]	/* SetRefPoint0 */\012ALIGNRP[ ]	/* AlignRelativePt */\012SRP0[ ]	/* SetRefPoint0 */\012ALIGNRP[ ]	/* AlignRelativePt */\012SRP1[ ]	/* SetRefPoint1 */\012SRP2[ ]	/* SetRefPoint2 */\012SLOOP[ ]	/* SetLoopVariable */\012IP[ ]	/* InterpolatePts */\012IUP[1]	/* InterpolateUntPts */\012IUP[0]	/* InterpolateUntPts */";
};
width = 2048;
}
);
note = mountain;
unicode = 26F0;
},
{
glyphname = skier;
layers = (
{
layerId = "841189CE-7A88-49C9-B3DD-2B83509AFCBE";
paths = (
{
closed = 1;
nodes = (
"1341 586.667 OFFCURVE",
"1332.333 599 OFFCURVE",
"1315 607 CURVE",
"1320.333 597 OFFCURVE",
"1323 585.333 OFFCURVE",
"1323 572 CURVE SMOOTH",
"1323 536.667 OFFCURVE",
"1282.667 465 OFFCURVE",
"1202 357 CURVE",
"1218 349 LINE",
"1300 462.333 OFFCURVE",
"1341 536 OFFCURVE",
"1341 570 CURVE",
"1341 570 LINE"
);
},
{
closed = 1;
nodes = (
"1421 922.667 OFFCURVE",
"1409.667 933 OFFCURVE",
"1387 933 CURVE SMOOTH",
"1379 933 OFFCURVE",
"1372.667 932.667 OFFCURVE",
"1368 932 CURVE",
"1340.667 961.333 OFFCURVE",
"1309 976.333 OFFCURVE",
"1273 977 CURVE SMOOTH",
"1264.333 977 OFFCURVE",
"1256.167 978.833 OFFCURVE",
"1248.5 982.5 CURVE SMOOTH",
"1240.833 986.167 OFFCURVE",
"1228.667 996 OFFCURVE",
"1212 1012 CURVE",
"1221 1032 LINE",
"1239 1024.667 OFFCURVE",
"1252 1021 OFFCURVE",
"1260 1021 CURVE SMOOTH",
"1265.333 1021 OFFCURVE",
"1271 1026.333 OFFCURVE",
"1277 1037 CURVE",
"1278 1045 LINE",
"1285 1051 LINE",
"1284.333 1058.333 OFFCURVE",
"1287 1063.5 OFFCURVE",
"1293 1066.5 CURVE SMOOTH",
"1299 1069.5 OFFCURVE",
"1302 1072 OFFCURVE",
"1302 1074 CURVE SMOOTH",
"1302 1076 OFFCURVE",
"1301 1079.167 OFFCURVE",
"1299 1083.5 CURVE SMOOTH",
"1297 1087.833 OFFCURVE",
"1296 1091.333 OFFCURVE",
"1296 1094 CURVE SMOOTH",
"1296 1098 OFFCURVE",
"1297.5 1104.333 OFFCURVE",
"1300.5 1113 CURVE SMOOTH",
"1303.5 1121.667 OFFCURVE",
"1305 1128.333 OFFCURVE",
"1305 1133 CURVE SMOOTH",
"1305 1155 OFFCURVE",
"1290 1173 OFFCURVE",
"1260 1187 CURVE SMOOTH",
"1189 1220 LINE",
"1138.333 1259.333 OFFCURVE",
"1101 1306.333 OFFCURVE",
"1077 1361 CURVE",
"1080.333 1326.333 OFFCURVE",
"1088.333 1295.667 OFFCURVE",
"1101 1269 CURVE",
"1080.333 1279.667 OFFCURVE",
"1057.667 1295 OFFCURVE",
"1033 1315 CURVE",
"1037.667 1282.333 OFFCURVE",
"1051.667 1253 OFFCURVE",
"1075 1227 CURVE",
"1048.333 1241.667 OFFCURVE",
"1027.667 1249 OFFCURVE",
"1013 1249 CURVE SMOOTH",
"997 1249 OFFCURVE",
"982.333 1230.667 OFFCURVE",
"969 1194 CURVE",
"983 1202.667 OFFCURVE",
"995.667 1207 OFFCURVE",
"1007 1207 CURVE SMOOTH",
"1017 1207 OFFCURVE",
"1030.5 1201.833 OFFCURVE",
"1047.5 1191.5 CURVE SMOOTH",
"1064.5 1181.167 OFFCURVE",
"1075 1171.667 OFFCURVE",
"1079 1163 CURVE",
"1063.667 1173.667 OFFCURVE",
"1040.333 1179 OFFCURVE",
"1009 1179 CURVE SMOOTH",
"997.667 1179 OFFCURVE",
"983 1166 OFFCURVE",
"965 1140 CURVE",
"975 1142.667 OFFCURVE",
"986.667 1144 OFFCURVE",
"1000 1144 CURVE SMOOTH",
"1020 1144 OFFCURVE",
"1036 1140 OFFCURVE",
"1048 1132 CURVE",
"1017.333 1122 OFFCURVE",
"996.333 1104.333 OFFCURVE",
"985 1079 CURVE",
"1019 1096.333 OFFCURVE",
"1053 1105 OFFCURVE",
"1087 1105 CURVE",
"1073 1095.667 OFFCURVE",
"1061.333 1083 OFFCURVE",
"1052 1067 CURVE",
"1084 1073 OFFCURVE",
"1103.667 1076 OFFCURVE",
"1111 1076 CURVE SMOOTH",
"1119.667 1076 OFFCURVE",
"1126.333 1075.333 OFFCURVE",
"1131 1074 CURVE",
"1116 1040 LINE",
"1082.667 1044 OFFCURVE",
"1057.667 1046 OFFCURVE",
"1041 1046 CURVE",
"996 1033 LINE",
"988 1031 OFFCURVE",
"973.667 1030 OFFCURVE",
"953 1030 CURVE SMOOTH",
"948.333 1030 OFFCURVE",
"941.333 1030.5 OFFCURVE",
"932 1031.5 CURVE SMOOTH",
"922.667 1032.5 OFFCURVE",
"915.667 1033 OFFCURVE",
"911 1033 CURVE SMOOTH",
"886.333 1033 OFFCURVE",
"869.333 1023.667 OFFCURVE",
"860 1005 CURVE",
"856 990.333 OFFCURVE",
"854 979.667 OFFCURVE",
"854 973 CURVE",
"338 837 LINE",
"330 857.667 OFFCURVE",
"320.667 868 OFFCURVE",
"310 868 CURVE SMOOTH",
"300.667 868 OFFCURVE",
"296 861.667 OFFCURVE",
"296 849 CURVE SMOOTH",
"296 841 OFFCURVE",
"297 833.667 OFFCURVE",
"299 827 CURVE",
"275 820 LINE",
"280 804 LINE",
"302 810 LINE",
"310 790 OFFCURVE",
"319.333 780 OFFCURVE",
"330 780 CURVE SMOOTH",
"340 780 OFFCURVE",
"345 786.333 OFFCURVE",
"345 799 CURVE SMOOTH",
"345 803.667 OFFCURVE",
"343.667 810.667 OFFCURVE",
"341 820 CURVE",
"857 956 LINE",
"862.333 942 OFFCURVE",
"874 930.667 OFFCURVE",
"892 922 CURVE SMOOTH",
"917.333 910.667 OFFCURVE",
"935 902.333 OFFCURVE",
"945 897 CURVE",
"903.667 803 OFFCURVE",
"883 729.667 OFFCURVE",
"883 677 CURVE SMOOTH",
"883 615.667 OFFCURVE",
"930 576.667 OFFCURVE",
"1024 560 CURVE SMOOTH",
"1063.333 553.333 OFFCURVE",
"1102.667 541.333 OFFCURVE",
"1142 524 CURVE",
"1079 416 LINE",
"1193 362 LINE",
"1272.333 468.667 OFFCURVE",
"1312 539.667 OFFCURVE",
"1312 575 CURVE SMOOTH",
"1312 599.667 OFFCURVE",
"1299 619 OFFCURVE",
"1273 633 CURVE",
"1389 876 LINE",
"1393 874.667 OFFCURVE",
"1396.667 874 OFFCURVE",
"1400 874 CURVE SMOOTH",
"1414 874 OFFCURVE",
"1421 883.333 OFFCURVE",
"1421 902 CURVE",
"1421 902 LINE"
);
},
{
closed = 1;
nodes = (
"1208 336 LINE",
"1193 345 LINE",
"1165 303 LINE",
"1180 292 LINE",
"1208 336 LINE"
);
},
{
closed = 1;
nodes = (
"1730.667 -126 OFFCURVE",
"1723.333 -127 OFFCURVE",
"1716 -127 CURVE SMOOTH",
"1706 -127 OFFCURVE",
"1697.667 -125 OFFCURVE",
"1691 -121 CURVE SMOOTH",
"1321 96 LINE",
"1574 -20 LINE SMOOTH",
"1630.667 -46 OFFCURVE",
"1666.667 -59 OFFCURVE",
"1682 -59 CURVE SMOOTH",
"1710 -59 OFFCURVE",
"1727.667 -46.667 OFFCURVE",
"1735 -22 CURVE",
"1726.333 -25.333 OFFCURVE",
"1716 -27 OFFCURVE",
"1704 -27 CURVE SMOOTH",
"1687.333 -27 OFFCURVE",
"1670.333 -23.333 OFFCURVE",
"1653 -16 CURVE SMOOTH",
"1545 30.667 OFFCURVE",
"1434.667 80 OFFCURVE",
"1322 132 CURVE SMOOTH",
"1252.667 164 OFFCURVE",
"1218 181.667 OFFCURVE",
"1218 185 CURVE",
"1223.333 193.667 OFFCURVE",
"1226 201 OFFCURVE",
"1226 207 CURVE SMOOTH",
"1226 221 OFFCURVE",
"1200.333 251.333 OFFCURVE",
"1149 298 CURVE",
"1149 306 OFFCURVE",
"1159.333 324 OFFCURVE",
"1180 352 CURVE",
"1078 400 LINE",
"1011 284 LINE",
"672 485 LINE",
"662 471 LINE",
"945 300 LINE",
"642 438 LINE",
"629 412 LINE",
"989 249 LINE SMOOTH",
"1104.333 197 OFFCURVE",
"1164.333 169.667 OFFCURVE",
"1169 167 CURVE SMOOTH",
"1248.333 121.667 OFFCURVE",
"1305 88 OFFCURVE",
"1339 66 CURVE",
"1678 -136 LINE SMOOTH",
"1682.667 -138.667 OFFCURVE",
"1688.333 -140 OFFCURVE",
"1695 -140 CURVE SMOOTH",
"1709.667 -140 OFFCURVE",
"1724 -134.667 OFFCURVE",
"1738 -124 CURVE",
"1738 -124 LINE"
);
},
{
closed = 1;
nodes = (
"1373 883 LINE",
"1254 640 LINE",
"1215.333 658.667 OFFCURVE",
"1190.333 670.333 OFFCURVE",
"1179 675 CURVE SMOOTH",
"1141 689.667 OFFCURVE",
"1112.333 700.667 OFFCURVE",
"1093 708 CURVE",
"1102.333 728 OFFCURVE",
"1109.667 742.833 OFFCURVE",
"1115 752.5 CURVE SMOOTH",
"1120.333 762.167 OFFCURVE",
"1137.667 784.667 OFFCURVE",
"1167 820 CURVE SMOOTH",
"1188.333 846 OFFCURVE",
"1201.667 872.667 OFFCURVE",
"1207 900 CURVE",
"1310.333 894 OFFCURVE",
"1365.667 888.333 OFFCURVE",
"1373 883 CURVE"
);
},
{
closed = 1;
nodes = (
"330 835 LINE",
"310 829 LINE",
"308.667 833.667 OFFCURVE",
"308 837.667 OFFCURVE",
"308 841 CURVE",
"307.333 851.667 OFFCURVE",
"308.667 857 OFFCURVE",
"312 857 CURVE SMOOTH",
"318 857 OFFCURVE",
"324 849.667 OFFCURVE",
"330 835 CURVE"
);
},
{
closed = 1;
nodes = (
"337 793 OFFCURVE",
"335 790 OFFCURVE",
"331 790 CURVE SMOOTH",
"324.333 790 OFFCURVE",
"318.333 797.667 OFFCURVE",
"313 813 CURVE",
"333 818 LINE",
"335.667 808.667 OFFCURVE",
"337 802.333 OFFCURVE",
"337 799 CURVE",
"337 799 LINE"
);
}
);
userData = {
assembly = "NPUSHB[ ]	/* 34 values pushed */\01298 114 59 83 4 47 170 26 9 24 127 0 9 175 24 38 47 24 18 143 137 141 20 175 26 170 114 59 10 93 129 194 44 93 \012SVTCA[0]	/* SetFreedomAndProjectionVectorToAxis */\012MDAP[1]	/* MoveDirectAbsPt */\012MDRP[01110]	/* MoveDirectRelPt */\012SRP0[ ]	/* SetRefPoint0 */\012MDRP[01100]	/* MoveDirectRelPt */\012SRP1[ ]	/* SetRefPoint1 */\012SLOOP[ ]	/* SetLoopVariable */\012IP[ ]	/* InterpolatePts */\012SVTCA[1]	/* SetFreedomAndProjectionVectorToAxis */\012MDRP[11110]	/* MoveDirectRelPt */\012MDRP[11100]	/* MoveDirectRelPt */\012MDRP[01101]	/* MoveDirectRelPt */\012SRP0[ ]	/* SetRefPoint0 */\012MDRP[11101]	/* MoveDirectRelPt */\012MDRP[11100]	/* MoveDirectRelPt */\012MDRP[11100]	/* MoveDirectRelPt */\012MDRP[01100]	/* MoveDirectRelPt */\012SRP1[ ]	/* SetRefPoint1 */\012SRP2[ ]	/* SetRefPoint2 */\012IP[ ]	/* InterpolatePts */\012IP[ ]	/* InterpolatePts */\012SRP1[ ]	/* SetRefPoint1 */\012SLOOP[ ]	/* SetLoopVariable */\012IP[ ]	/* InterpolatePts */\012IUP[1]	/* InterpolateUntPts */\012IUP[0]	/* InterpolateUntPts */";
};
width = 2048;
}
);
note = skier;
unicode = 26F7;
},
{
glyphname = airplane;
layers = (
{
layerId = "841189CE-7A88-49C9-B3DD-2B83509AFCBE";
paths = (
{
closed = 1;
nodes = (
"905 636 LINE",
"778 245 LINE",
"498 94 LINE",
"452 -48 LINE",
"845 61 LINE",
"1098 -258 LINE",
"1144 -116 LINE",
"1008 168 LINE",
"1137 563 LINE",
"1727 249 LINE",
"1789 438 LINE",
"1246 897 LINE",
"1369 1277 LINE SMOOTH",
"1381.667 1316.333 OFFCURVE",
"1388 1348.333 OFFCURVE",
"1388 1373 CURVE SMOOTH",
"1388 1405.667 OFFCURVE",
"1376 1431.833 OFFCURVE",
"1352 1451.5 CURVE SMOOTH",
"1328 1471.167 OFFCURVE",
"1299.333 1481 OFFCURVE",
"1266 1481 CURVE SMOOTH",
"1208.667 1481 OFFCURVE",
"1166 1438 OFFCURVE",
"1138 1352 CURVE SMOOTH",
"1013 969 LINE",
"313 917 LINE",
"251 728 LINE",
"905 636 LINE"
);
}
);
userData = {
assembly = "NPUSHB[ ]	/* 47 values pushed */\01221 103 20 1 20 3 0 4 19 22 18 17 12 15 16 14 13 9 2 1 4 9 22 16 19 21 103 20 1 20 17 104 18 1 0 18 23 13 14 15 2 1 0 15 12 3 6 \012SVTCA[0]	/* SetFreedomAndProjectionVectorToAxis */\012MDAP[1]	/* MoveDirectAbsPt */\012MDRP[11101]	/* MoveDirectRelPt */\012MDRP[00101]	/* MoveDirectRelPt */\012MDRP[10101]	/* MoveDirectRelPt */\012MDRP[00101]	/* MoveDirectRelPt */\012MDRP[10100]	/* MoveDirectRelPt */\012MDRP[00101]	/* MoveDirectRelPt */\012SRP0[ ]	/* SetRefPoint0 */\012MDRP[10101]	/* MoveDirectRelPt */\012MDRP[00101]	/* MoveDirectRelPt */\012SRP0[ ]	/* SetRefPoint0 */\012MDRP[11110]	/* MoveDirectRelPt */\012SDS[ ]	/* SetDeltaShiftInGState */\012DELTAP1[ ]	/* DeltaExceptionP1 */\012MDRP[00101]	/* MoveDirectRelPt */\012MDRP[10110]	/* MoveDirectRelPt */\012DELTAP1[ ]	/* DeltaExceptionP1 */\012MDRP[00101]	/* MoveDirectRelPt */\012MDRP[10101]	/* MoveDirectRelPt */\012MDRP[10101]	/* MoveDirectRelPt */\012MDRP[00101]	/* MoveDirectRelPt */\012SVTCA[1]	/* SetFreedomAndProjectionVectorToAxis */\012MDAP[1]	/* MoveDirectAbsPt */\012MDRP[11101]	/* MoveDirectRelPt */\012MDRP[01100]	/* MoveDirectRelPt */\012SHP[0]	/* ShiftPointByLastPoint */\012SRP0[ ]	/* SetRefPoint0 */\012MDRP[01110]	/* MoveDirectRelPt */\012SHP[0]	/* ShiftPointByLastPoint */\012MDRP[10101]	/* MoveDirectRelPt */\012IP[ ]	/* InterpolatePts */\012IP[ ]	/* InterpolatePts */\012MDRP[01101]	/* MoveDirectRelPt */\012SHP[0]	/* ShiftPointByLastPoint */\012MDRP[11101]	/* MoveDirectRelPt */\012IP[ ]	/* InterpolatePts */\012SRP1[ ]	/* SetRefPoint1 */\012IP[ ]	/* InterpolatePts */\012IP[ ]	/* InterpolatePts */\012MDRP[01101]	/* MoveDirectRelPt */\012DELTAP1[ ]	/* DeltaExceptionP1 */\012SHP[0]	/* ShiftPointByLastPoint */\012IUP[1]	/* InterpolateUntPts */\012IUP[0]	/* InterpolateUntPts */";
};
width = 2048;
}
);
note = airplane;
unicode = 2708;
},
{
glyphname = bar;
layers = (
{
layerId = "841189CE-7A88-49C9-B3DD-2B83509AFCBE";
paths = (
{
closed = 1;
nodes = (
"1088 -410 LINE",
"1088 1637 LINE",
"960 1637 LINE",
"960 -410 LINE",
"1088 -410 LINE"
);
}
);
userData = {
assembly = "PUSHB[ ]	/* 3 values pushed */\0120 102 1 \012MDAP[1]	/* MoveDirectAbsPt */\012MIRP[01101]	/* MoveIndirectRelPt */\012IUP[1]	/* InterpolateUntPts */\012IUP[0]	/* InterpolateUntPts */";
};
width = 2048;
}
);
note = bar;
unicode = 007C;
},
{
glyphname = fog;
layers = (
{
layerId = "841189CE-7A88-49C9-B3DD-2B83509AFCBE";
paths = (
{
closed = 1;
nodes = (
"1789 409.333 OFFCURVE",
"1781.333 418 OFFCURVE",
"1766 418 CURVE",
"1612 356.667 OFFCURVE",
"1513.333 326 OFFCURVE",
"1470 326 CURVE SMOOTH",
"1422.667 326 OFFCURVE",
"1354 339.333 OFFCURVE",
"1264 366 CURVE SMOOTH",
"1174 392.667 OFFCURVE",
"1105.333 406 OFFCURVE",
"1058 406 CURVE SMOOTH",
"1014.667 406 OFFCURVE",
"973.667 400 OFFCURVE",
"935 388 CURVE SMOOTH",
"907 379.333 OFFCURVE",
"876.333 365 OFFCURVE",
"843 345 CURVE SMOOTH",
"801 319.667 OFFCURVE",
"780 298.333 OFFCURVE",
"780 281 CURVE SMOOTH",
"780 267.667 OFFCURVE",
"789.333 261 OFFCURVE",
"808 261 CURVE SMOOTH",
"822.667 261 OFFCURVE",
"844.167 263 OFFCURVE",
"872.5 267 CURVE SMOOTH",
"900.833 271 OFFCURVE",
"922.333 273 OFFCURVE",
"937 273 CURVE SMOOTH",
"989.667 273 OFFCURVE",
"1066 256.667 OFFCURVE",
"1166 224 CURVE SMOOTH",
"1266 191.333 OFFCURVE",
"1342.333 175 OFFCURVE",
"1395 175 CURVE SMOOTH",
"1485.667 175 OFFCURVE",
"1565.333 193 OFFCURVE",
"1634 229 CURVE SMOOTH",
"1674 250.333 OFFCURVE",
"1711 280.667 OFFCURVE",
"1745 320 CURVE SMOOTH",
"1774.333 354.667 OFFCURVE",
"1789 378.667 OFFCURVE",
"1789 392 CURVE",
"1789 392 LINE"
);
},
{
closed = 1;
nodes = (
"1309 691.333 OFFCURVE",
"1301.333 700 OFFCURVE",
"1286 700 CURVE",
"1132 638.667 OFFCURVE",
"1033.333 608 OFFCURVE",
"990 608 CURVE SMOOTH",
"942.667 608 OFFCURVE",
"874 621.333 OFFCURVE",
"784 648 CURVE SMOOTH",
"694 674.667 OFFCURVE",
"625.333 688 OFFCURVE",
"578 688 CURVE SMOOTH",
"534.667 688 OFFCURVE",
"493.667 682 OFFCURVE",
"455 670 CURVE SMOOTH",
"427 661.333 OFFCURVE",
"396.333 647 OFFCURVE",
"363 627 CURVE SMOOTH",
"321 601.667 OFFCURVE",
"300 580.333 OFFCURVE",
"300 563 CURVE SMOOTH",
"300 549.667 OFFCURVE",
"309.333 543 OFFCURVE",
"328 543 CURVE SMOOTH",
"342.667 543 OFFCURVE",
"364.167 545 OFFCURVE",
"392.5 549 CURVE SMOOTH",
"420.833 553 OFFCURVE",
"442.333 555 OFFCURVE",
"457 555 CURVE SMOOTH",
"509.667 555 OFFCURVE",
"586 538.667 OFFCURVE",
"686 506 CURVE SMOOTH",
"786 473.333 OFFCURVE",
"862.333 457 OFFCURVE",
"915 457 CURVE SMOOTH",
"1005.667 457 OFFCURVE",
"1085.333 475 OFFCURVE",
"1154 511 CURVE SMOOTH",
"1194 532.333 OFFCURVE",
"1231 562.667 OFFCURVE",
"1265 602 CURVE SMOOTH",
"1294.333 636.667 OFFCURVE",
"1309 660.667 OFFCURVE",
"1309 674 CURVE",
"1309 674 LINE"
);
},
{
closed = 1;
nodes = (
"1287 129.333 OFFCURVE",
"1279.333 138 OFFCURVE",
"1264 138 CURVE",
"1110 76.667 OFFCURVE",
"1011.333 46 OFFCURVE",
"968 46 CURVE SMOOTH",
"920.667 46 OFFCURVE",
"852 59.333 OFFCURVE",
"762 86 CURVE SMOOTH",
"672 112.667 OFFCURVE",
"603.333 126 OFFCURVE",
"556 126 CURVE SMOOTH",
"512.667 126 OFFCURVE",
"471.667 120 OFFCURVE",
"433 108 CURVE SMOOTH",
"405 99.333 OFFCURVE",
"374.333 85 OFFCURVE",
"341 65 CURVE SMOOTH",
"299 39.667 OFFCURVE",
"278 18.333 OFFCURVE",
"278 1 CURVE SMOOTH",
"278 -12.333 OFFCURVE",
"287.333 -19 OFFCURVE",
"306 -19 CURVE SMOOTH",
"320.667 -19 OFFCURVE",
"342.167 -17 OFFCURVE",
"370.5 -13 CURVE SMOOTH",
"398.833 -9 OFFCURVE",
"420.333 -7 OFFCURVE",
"435 -7 CURVE SMOOTH",
"487.667 -7 OFFCURVE",
"564 -23.333 OFFCURVE",
"664 -56 CURVE SMOOTH",
"764 -88.667 OFFCURVE",
"840.333 -105 OFFCURVE",
"893 -105 CURVE SMOOTH",
"983.667 -105 OFFCURVE",
"1063.333 -87 OFFCURVE",
"1132 -51 CURVE SMOOTH",
"1172 -29.667 OFFCURVE",
"1209 0.667 OFFCURVE",
"1243 40 CURVE SMOOTH",
"1272.333 74.667 OFFCURVE",
"1287 98.667 OFFCURVE",
"1287 112 CURVE",
"1287 112 LINE"
);
},
{
closed = 1;
nodes = (
"1706.667 318.667 OFFCURVE",
"1662.167 279.667 OFFCURVE",
"1602.5 251 CURVE SMOOTH",
"1542.833 222.333 OFFCURVE",
"1480 208 OFFCURVE",
"1414 208 CURVE SMOOTH",
"1360 208 OFFCURVE",
"1281.833 224.167 OFFCURVE",
"1179.5 256.5 CURVE SMOOTH",
"1077.167 288.833 OFFCURVE",
"999 305 OFFCURVE",
"945 305 CURVE SMOOTH",
"909 305 OFFCURVE",
"870 302 OFFCURVE",
"828 296 CURVE",
"901.333 347.333 OFFCURVE",
"977.667 373 OFFCURVE",
"1057 373 CURVE SMOOTH",
"1104.333 373 OFFCURVE",
"1173 359.667 OFFCURVE",
"1263 333 CURVE SMOOTH",
"1353 306.333 OFFCURVE",
"1421.667 293 OFFCURVE",
"1469 293 CURVE SMOOTH",
"1554.333 293 OFFCURVE",
"1643.333 318 OFFCURVE",
"1736 368 CURVE",
"1736 368 LINE"
);
},
{
closed = 1;
nodes = (
"1226.667 600.667 OFFCURVE",
"1182.167 561.667 OFFCURVE",
"1122.5 533 CURVE SMOOTH",
"1062.833 504.333 OFFCURVE",
"1000 490 OFFCURVE",
"934 490 CURVE SMOOTH",
"880 490 OFFCURVE",
"801.833 506.167 OFFCURVE",
"699.5 538.5 CURVE SMOOTH",
"597.167 570.833 OFFCURVE",
"519 587 OFFCURVE",
"465 587 CURVE SMOOTH",
"429 587 OFFCURVE",
"390 584 OFFCURVE",
"348 578 CURVE",
"421.333 629.333 OFFCURVE",
"497.667 655 OFFCURVE",
"577 655 CURVE SMOOTH",
"624.333 655 OFFCURVE",
"693 641.667 OFFCURVE",
"783 615 CURVE SMOOTH",
"873 588.333 OFFCURVE",
"941.667 575 OFFCURVE",
"989 575 CURVE SMOOTH",
"1074.333 575 OFFCURVE",
"1163.333 600 OFFCURVE",
"1256 650 CURVE",
"1256 650 LINE"
);
},
{
closed = 1;
nodes = (
"1204.667 38.667 OFFCURVE",
"1160.167 -0.333 OFFCURVE",
"1100.5 -29 CURVE SMOOTH",
"1040.833 -57.667 OFFCURVE",
"978 -72 OFFCURVE",
"912 -72 CURVE SMOOTH",
"858 -72 OFFCURVE",
"779.833 -55.833 OFFCURVE",
"677.5 -23.5 CURVE SMOOTH",
"575.167 8.833 OFFCURVE",
"497 25 OFFCURVE",
"443 25 CURVE SMOOTH",
"407 25 OFFCURVE",
"368 22 OFFCURVE",
"326 16 CURVE",
"399.333 67.333 OFFCURVE",
"475.667 93 OFFCURVE",
"555 93 CURVE SMOOTH",
"602.333 93 OFFCURVE",
"671 79.667 OFFCURVE",
"761 53 CURVE SMOOTH",
"851 26.333 OFFCURVE",
"919.667 13 OFFCURVE",
"967 13 CURVE SMOOTH",
"1052.333 13 OFFCURVE",
"1141.333 38 OFFCURVE",
"1234 88 CURVE",
"1234 88 LINE"
);
}
);
userData = {
assembly = "NPUSHB[ ]	/* 59 values pushed */\01288 14 111 54 96 27 54 81 0 127 103 41 118 68 126 74 116 113 79 111 113 39 103 105 47 101 36 105 108 52 96 50 98 108 33 20 86 83 25 81 23 83 93 6 88 12 90 9 6 77 113 60 123 120 66 118 63 120 126 \012SVTCA[0]	/* SetFreedomAndProjectionVectorToAxis */\012SRP0[ ]	/* SetRefPoint0 */\012MDRP[11100]	/* MoveDirectRelPt */\012MDRP[01101]	/* MoveDirectRelPt */\012MDRP[10101]	/* MoveDirectRelPt */\012MDRP[01101]	/* MoveDirectRelPt */\012SRP0[ ]	/* SetRefPoint0 */\012MDRP[10100]	/* MoveDirectRelPt */\012MDRP[01101]	/* MoveDirectRelPt */\012MDRP[11110]	/* MoveDirectRelPt */\012MDRP[11101]	/* MoveDirectRelPt */\012MDRP[11100]	/* MoveDirectRelPt */\012MDRP[10100]	/* MoveDirectRelPt */\012MDRP[01101]	/* MoveDirectRelPt */\012MDRP[10100]	/* MoveDirectRelPt */\012MDRP[01101]	/* MoveDirectRelPt */\012SRP0[ ]	/* SetRefPoint0 */\012MDRP[11101]	/* MoveDirectRelPt */\012MDRP[11110]	/* MoveDirectRelPt */\012MDRP[01101]	/* MoveDirectRelPt */\012MDRP[10101]	/* MoveDirectRelPt */\012MDRP[01101]	/* MoveDirectRelPt */\012SRP0[ ]	/* SetRefPoint0 */\012MDRP[10100]	/* MoveDirectRelPt */\012MDRP[11101]	/* MoveDirectRelPt */\012MDRP[11110]	/* MoveDirectRelPt */\012MDRP[11101]	/* MoveDirectRelPt */\012MDRP[11110]	/* MoveDirectRelPt */\012MDRP[01101]	/* MoveDirectRelPt */\012MDRP[10101]	/* MoveDirectRelPt */\012MDRP[01101]	/* MoveDirectRelPt */\012SRP0[ ]	/* SetRefPoint0 */\012MDRP[10100]	/* MoveDirectRelPt */\012MDRP[01101]	/* MoveDirectRelPt */\012MDRP[11110]	/* MoveDirectRelPt */\012MDRP[01101]	/* MoveDirectRelPt */\012SRP0[ ]	/* SetRefPoint0 */\012MDRP[10101]	/* MoveDirectRelPt */\012MDRP[01101]	/* MoveDirectRelPt */\012SRP0[ ]	/* SetRefPoint0 */\012MDRP[10101]	/* MoveDirectRelPt */\012MDRP[01101]	/* MoveDirectRelPt */\012SRP0[ ]	/* SetRefPoint0 */\012MDRP[10100]	/* MoveDirectRelPt */\012MDRP[01101]	/* MoveDirectRelPt */\012SVTCA[1]	/* SetFreedomAndProjectionVectorToAxis */\012SRP0[ ]	/* SetRefPoint0 */\012MDRP[11110]	/* MoveDirectRelPt */\012MDRP[01101]	/* MoveDirectRelPt */\012MDRP[10100]	/* MoveDirectRelPt */\012MDRP[01101]	/* MoveDirectRelPt */\012SRP0[ ]	/* SetRefPoint0 */\012MDRP[11110]	/* MoveDirectRelPt */\012MDRP[01101]	/* MoveDirectRelPt */\012MDRP[11100]	/* MoveDirectRelPt */\012MDRP[10100]	/* MoveDirectRelPt */\012MDRP[01101]	/* MoveDirectRelPt */\012SRP0[ ]	/* SetRefPoint0 */\012MDRP[11101]	/* MoveDirectRelPt */\012MDRP[11100]	/* MoveDirectRelPt */\012MDRP[01101]	/* MoveDirectRelPt */\012IUP[1]	/* InterpolateUntPts */\012IUP[0]	/* InterpolateUntPts */";
};
width = 2048;
}
);
note = fog;
unicode = 1F32B;
},
{
glyphname = ribbon;
layers = (
{
layerId = "841189CE-7A88-49C9-B3DD-2B83509AFCBE";
paths = (
{
closed = 1;
nodes = (
"1470 1 LINE",
"1109 606 LINE",
"1249.667 849.333 OFFCURVE",
"1320 1045.667 OFFCURVE",
"1320 1195 CURVE SMOOTH",
"1320 1294.333 OFFCURVE",
"1284 1368.667 OFFCURVE",
"1212 1418 CURVE SMOOTH",
"1161.333 1452.667 OFFCURVE",
"1105.333 1470 OFFCURVE",
"1044 1470 CURVE SMOOTH",
"934 1470 OFFCURVE",
"838 1421.667 OFFCURVE",
"756 1325 CURVE SMOOTH",
"680.667 1237 OFFCURVE",
"643 1145.667 OFFCURVE",
"643 1051 CURVE SMOOTH",
"643 1018.333 OFFCURVE",
"656.667 960 OFFCURVE",
"684 876 CURVE SMOOTH",
"718.667 768.667 OFFCURVE",
"761 677 OFFCURVE",
"811 601 CURVE",
"492 27 LINE",
"632 -254 LINE",
"962 357 LINE",
"1334 -254 LINE",
"1470 1 LINE"
);
},
{
closed = 1;
nodes = (
"1109 1161 OFFCURVE",
"1059 1052 OFFCURVE",
"959 882 CURVE",
"865.667 986.667 OFFCURVE",
"819.667 1059.333 OFFCURVE",
"821 1100 CURVE SMOOTH",
"822.333 1146.667 OFFCURVE",
"855 1199 OFFCURVE",
"919 1257 CURVE SMOOTH",
"945.667 1281 OFFCURVE",
"977.333 1305.333 OFFCURVE",
"1014 1330 CURVE",
"1077.333 1310 OFFCURVE",
"1109 1269.667 OFFCURVE",
"1109 1209 CURVE",
"1109 1209 LINE"
);
}
);
userData = {
assembly = "NPUSHB[ ]	/* 35 values pushed */\01219 2 17 3 28 5 20 4 1 0 3 4 0 20 17 26 4 26 9 2 5 28 19 4 22 3 0 1 4 3 22 13 3 30 13 \012SVTCA[0]	/* SetFreedomAndProjectionVectorToAxis */\012MDAP[1]	/* MoveDirectAbsPt */\012SRP0[ ]	/* SetRefPoint0 */\012MDRP[00110]	/* MoveDirectRelPt */\012SRP0[ ]	/* SetRefPoint0 */\012MDRP[01101]	/* MoveDirectRelPt */\012SRP0[ ]	/* SetRefPoint0 */\012MDRP[11101]	/* MoveDirectRelPt */\012MDRP[10100]	/* MoveDirectRelPt */\012MDRP[01101]	/* MoveDirectRelPt */\012SRP1[ ]	/* SetRefPoint1 */\012SRP2[ ]	/* SetRefPoint2 */\012SLOOP[ ]	/* SetLoopVariable */\012IP[ ]	/* InterpolatePts */\012SVTCA[1]	/* SetFreedomAndProjectionVectorToAxis */\012MDAP[1]	/* MoveDirectAbsPt */\012MDRP[01101]	/* MoveDirectRelPt */\012MDRP[00110]	/* MoveDirectRelPt */\012SRP0[ ]	/* SetRefPoint0 */\012MDRP[10100]	/* MoveDirectRelPt */\012MDRP[01101]	/* MoveDirectRelPt */\012MDRP[00110]	/* MoveDirectRelPt */\012SRP0[ ]	/* SetRefPoint0 */\012MDRP[01101]	/* MoveDirectRelPt */\012SRP0[ ]	/* SetRefPoint0 */\012MDRP[01101]	/* MoveDirectRelPt */\012SRP1[ ]	/* SetRefPoint1 */\012SRP2[ ]	/* SetRefPoint2 */\012IP[ ]	/* InterpolatePts */\012IP[ ]	/* InterpolatePts */\012SRP1[ ]	/* SetRefPoint1 */\012SRP2[ ]	/* SetRefPoint2 */\012IP[ ]	/* InterpolatePts */\012IP[ ]	/* InterpolatePts */\012IUP[1]	/* InterpolateUntPts */\012IUP[0]	/* InterpolateUntPts */";
};
width = 2048;
}
);
note = ribbon;
unicode = 1F380;
},
{
glyphname = microphone;
layers = (
{
layerId = "841189CE-7A88-49C9-B3DD-2B83509AFCBE";
paths = (
{
closed = 1;
nodes = (
"1440 692 OFFCURVE",
"1422.667 756.333 OFFCURVE",
"1388 791 CURVE",
"1394 812.333 OFFCURVE",
"1397 824 OFFCURVE",
"1397 826 CURVE SMOOTH",
"1397 846 OFFCURVE",
"1389.333 858.667 OFFCURVE",
"1374 864 CURVE",
"1380.667 878.667 OFFCURVE",
"1384 891.667 OFFCURVE",
"1384 903 CURVE SMOOTH",
"1384 924.333 OFFCURVE",
"1375.667 935.667 OFFCURVE",
"1359 937 CURVE",
"1359.667 939.667 OFFCURVE",
"1362.667 944.667 OFFCURVE",
"1368 952 CURVE",
"1372 956.667 OFFCURVE",
"1374 962 OFFCURVE",
"1374 968 CURVE SMOOTH",
"1374 987.333 OFFCURVE",
"1365.667 1003.333 OFFCURVE",
"1349 1016 CURVE",
"1355.667 1030.667 OFFCURVE",
"1359 1044.667 OFFCURVE",
"1359 1058 CURVE SMOOTH",
"1359 1068.667 OFFCURVE",
"1356 1078 OFFCURVE",
"1350 1086 CURVE SMOOTH",
"1340.667 1098 OFFCURVE",
"1335.333 1105.333 OFFCURVE",
"1334 1108 CURVE",
"1334 1112.667 OFFCURVE",
"1335.5 1119 OFFCURVE",
"1338.5 1127 CURVE SMOOTH",
"1341.5 1135 OFFCURVE",
"1343 1141.333 OFFCURVE",
"1343 1146 CURVE SMOOTH",
"1343 1170.667 OFFCURVE",
"1334.333 1187 OFFCURVE",
"1317 1195 CURVE",
"1322.333 1203.667 OFFCURVE",
"1325 1212.333 OFFCURVE",
"1325 1221 CURVE SMOOTH",
"1325 1245.667 OFFCURVE",
"1316 1262.333 OFFCURVE",
"1298 1271 CURVE",
"1304 1283.667 OFFCURVE",
"1307 1295 OFFCURVE",
"1307 1305 CURVE SMOOTH",
"1307 1327 OFFCURVE",
"1296 1347 OFFCURVE",
"1274 1365 CURVE",
"1275.333 1372.333 OFFCURVE",
"1276 1379 OFFCURVE",
"1276 1385 CURVE SMOOTH",
"1276 1418.333 OFFCURVE",
"1261.667 1444.667 OFFCURVE",
"1233 1464 CURVE SMOOTH",
"1207.667 1480.667 OFFCURVE",
"1176.667 1489 OFFCURVE",
"1140 1489 CURVE SMOOTH",
"1018.667 1489 OFFCURVE",
"911.667 1475.667 OFFCURVE",
"819 1449 CURVE SMOOTH",
"679.667 1409 OFFCURVE",
"610 1344 OFFCURVE",
"610 1254 CURVE SMOOTH",
"610 1216 OFFCURVE",
"637.667 1075 OFFCURVE",
"693 831 CURVE SMOOTH",
"747 590.333 OFFCURVE",
"780 460 OFFCURVE",
"792 440 CURVE SMOOTH",
"813.333 404.667 OFFCURVE",
"870 380.333 OFFCURVE",
"962 367 CURVE",
"988 245 LINE",
"974.667 237.667 OFFCURVE",
"968 219 OFFCURVE",
"968 189 CURVE SMOOTH",
"968 149 OFFCURVE",
"984.667 129 OFFCURVE",
"1018 129 CURVE SMOOTH",
"1038 129 OFFCURVE",
"1059.333 145 OFFCURVE",
"1082 177 CURVE SMOOTH",
"1100.667 203.667 OFFCURVE",
"1113 228.667 OFFCURVE",
"1119 252 CURVE",
"1200 252 LINE",
"1200 157 LINE",
"1221.333 157 OFFCURVE",
"1236.667 157 OFFCURVE",
"1246 157 CURVE SMOOTH",
"1254 157 OFFCURVE",
"1261.667 165 OFFCURVE",
"1269 181 CURVE",
"1275 196.333 OFFCURVE",
"1278 209.333 OFFCURVE",
"1278 220 CURVE SMOOTH",
"1278 245.333 OFFCURVE",
"1256.333 295 OFFCURVE",
"1213 369 CURVE",
"1275 384.333 OFFCURVE",
"1326.667 410.333 OFFCURVE",
"1368 447 CURVE SMOOTH",
"1416 489.667 OFFCURVE",
"1440 540 OFFCURVE",
"1440 598 CURVE",
"1440 598 LINE"
);
},
{
closed = 1;
nodes = (
"1193 0 LINE",
"1193 240 LINE",
"1122 240 LINE",
"1114.667 205.333 OFFCURVE",
"1104.667 180.167 OFFCURVE",
"1092 164.5 CURVE SMOOTH",
"1079.333 148.833 OFFCURVE",
"1056.667 132 OFFCURVE",
"1024 114 CURVE",
"1024 0 LINE",
"1193 0 LINE"
);
},
{
closed = 1;
nodes = (
"1410 635 LINE",
"1410 598 LINE SMOOTH",
"1409.333 532.667 OFFCURVE",
"1375 479.667 OFFCURVE",
"1307 439 CURVE SMOOTH",
"1248.333 403.667 OFFCURVE",
"1184 386 OFFCURVE",
"1114 386 CURVE SMOOTH",
"1060.667 386 OFFCURVE",
"1005.667 390.667 OFFCURVE",
"949 400 CURVE SMOOTH",
"867.667 413.333 OFFCURVE",
"823.333 433 OFFCURVE",
"816 459 CURVE SMOOTH",
"803.333 503.667 OFFCURVE",
"794.333 537.333 OFFCURVE",
"789 560 CURVE",
"829 591 LINE",
"822 621 LINE",
"779 592 LINE",
"766 656 LINE",
"807 684 LINE",
"799 717 LINE",
"757 689 LINE",
"745 740 LINE",
"781 762 LINE",
"774 798 LINE",
"738 774 LINE",
"726 827 LINE",
"761 850 LINE",
"754 883 LINE",
"719 860 LINE",
"708 914 LINE",
"741 934 LINE",
"733 969 LINE",
"700 947 LINE",
"690 998 LINE",
"718 1017 LINE",
"711 1050 LINE",
"682 1031 LINE",
"670 1087 LINE",
"701 1108 LINE",
"693 1141 LINE",
"663 1121 LINE",
"651 1169 LINE",
"678 1191 LINE",
"673 1221 LINE",
"644 1203 LINE",
"641.333 1221 OFFCURVE",
"640 1238 OFFCURVE",
"640 1254 CURVE SMOOTH",
"640 1333.333 OFFCURVE",
"709.333 1390.333 OFFCURVE",
"848 1425 CURVE",
"905 1380 LINE",
"913.667 1380 OFFCURVE",
"918 1386 OFFCURVE",
"918 1398 CURVE SMOOTH",
"918 1413.333 OFFCURVE",
"908.667 1425.667 OFFCURVE",
"890 1435 CURVE",
"934 1443 LINE",
"936 1441.667 OFFCURVE",
"946.333 1433 OFFCURVE",
"965 1417 CURVE SMOOTH",
"981.667 1403 OFFCURVE",
"991 1396 OFFCURVE",
"993 1396 CURVE SMOOTH",
"1001.667 1396 OFFCURVE",
"1006 1401.667 OFFCURVE",
"1006 1413 CURVE SMOOTH",
"1006 1428.333 OFFCURVE",
"996.333 1440.333 OFFCURVE",
"977 1449 CURVE",
"1016 1453 LINE",
"1071 1408 LINE",
"1079.667 1408 OFFCURVE",
"1084 1414 OFFCURVE",
"1084 1426 CURVE SMOOTH",
"1084 1438.667 OFFCURVE",
"1078 1449 OFFCURVE",
"1066 1457 CURVE",
"1099 1458 LINE",
"1135 1426.667 OFFCURVE",
"1153.667 1411 OFFCURVE",
"1155 1411 CURVE SMOOTH",
"1163.667 1411 OFFCURVE",
"1168 1416.667 OFFCURVE",
"1168 1428 CURVE SMOOTH",
"1168 1440.667 OFFCURVE",
"1162.333 1451 OFFCURVE",
"1151 1459 CURVE",
"1201.667 1455.667 OFFCURVE",
"1234.333 1428 OFFCURVE",
"1249 1376 CURVE",
"1097 1368 LINE",
"1102 1338 LINE",
"1246 1351 LINE",
"1254.667 1345.667 OFFCURVE",
"1263.667 1340.333 OFFCURVE",
"1273 1335 CURVE",
"1278.333 1330.333 OFFCURVE",
"1281 1320.333 OFFCURVE",
"1281 1305 CURVE SMOOTH",
"1281 1300.333 OFFCURVE",
"1278 1292.333 OFFCURVE",
"1272 1281 CURVE",
"1117 1269 LINE",
"1122 1240 LINE",
"1271 1252 LINE",
"1287 1237.333 OFFCURVE",
"1295 1227.667 OFFCURVE",
"1295 1223 CURVE",
"1285 1195 LINE",
"1133 1186 LINE",
"1139 1155 LINE",
"1301 1168 LINE",
"1301 1169 LINE",
"1309 1165 OFFCURVE",
"1313 1158.333 OFFCURVE",
"1313 1149 CURVE SMOOTH",
"1313 1144.333 OFFCURVE",
"1311.5 1138 OFFCURVE",
"1308.5 1130 CURVE SMOOTH",
"1305.5 1122 OFFCURVE",
"1304 1116 OFFCURVE",
"1304 1112 CURVE",
"1197 1107 LINE",
"1208 1078 LINE",
"1313 1085 LINE",
"1324.333 1071.667 OFFCURVE",
"1330 1061.667 OFFCURVE",
"1330 1055 CURVE SMOOTH",
"1330 1051.667 OFFCURVE",
"1325.667 1044 OFFCURVE",
"1317 1032 CURVE",
"1210 1025 LINE",
"1205 994 LINE",
"1324 1001 LINE",
"1336 984.333 OFFCURVE",
"1342.667 973.667 OFFCURVE",
"1344 969 CURVE",
"1339.333 957 OFFCURVE",
"1334.333 948 OFFCURVE",
"1329 942 CURVE",
"1216 938 LINE",
"1220 910 LINE",
"1340 915 LINE",
"1354 906 LINE",
"1354 889.333 OFFCURVE",
"1350.667 877.667 OFFCURVE",
"1344 871 CURVE",
"1223 861 LINE",
"1229 834 LINE",
"1351 844 LINE",
"1364.333 823.333 OFFCURVE",
"1372.667 805 OFFCURVE",
"1376 789 CURVE",
"1374 803 LINE",
"1239 792 LINE",
"1248 765 LINE",
"1373 774 LINE",
"1398.333 750.667 OFFCURVE",
"1410.667 704.333 OFFCURVE",
"1410 635 CURVE"
);
},
{
closed = 1;
nodes = (
"1157 10 LINE",
"1129 10 LINE",
"1129 225 LINE",
"1157 225 LINE",
"1157 10 LINE"
);
},
{
closed = 1;
nodes = (
"1039 166.667 OFFCURVE",
"1031.333 157 OFFCURVE",
"1016 157 CURVE SMOOTH",
"1000.667 157 OFFCURVE",
"993 166.667 OFFCURVE",
"993 186 CURVE SMOOTH",
"993 205.333 OFFCURVE",
"1000.667 215 OFFCURVE",
"1016 215 CURVE SMOOTH",
"1031.333 215 OFFCURVE",
"1039 205.333 OFFCURVE",
"1039 186 CURVE",
"1039 186 LINE"
);
},
{
closed = 1;
nodes = (
"1180 1088.667 OFFCURVE",
"1165.667 1107 OFFCURVE",
"1137 1107 CURVE SMOOTH",
"1113 1107 OFFCURVE",
"1101 1091.667 OFFCURVE",
"1101 1061 CURVE SMOOTH",
"1101 1024.333 OFFCURVE",
"1115.333 1006 OFFCURVE",
"1144 1006 CURVE SMOOTH",
"1168 1006 OFFCURVE",
"1180 1021.333 OFFCURVE",
"1180 1052 CURVE",
"1180 1052 LINE"
);
},
{
closed = 1;
nodes = (
"1036 1328 LINE",
"1032 1353 LINE",
"928 1345 LINE SMOOTH",
"880.667 1341 OFFCURVE",
"838 1325.333 OFFCURVE",
"800 1298 CURVE SMOOTH",
"724 1245 LINE",
"731 1224 LINE",
"810 1275 LINE SMOOTH",
"847.333 1299 OFFCURVE",
"888.333 1313.333 OFFCURVE",
"933 1318 CURVE SMOOTH",
"1036 1328 LINE"
);
},
{
closed = 1;
nodes = (
"1051 1237 LINE",
"1046 1264 LINE",
"930 1256 LINE SMOOTH",
"882.667 1252.667 OFFCURVE",
"843 1239 OFFCURVE",
"811 1215 CURVE SMOOTH",
"741 1163 LINE",
"749 1146 LINE",
"824 1195 LINE SMOOTH",
"856 1215.667 OFFCURVE",
"892.333 1227.333 OFFCURVE",
"933 1230 CURVE SMOOTH",
"1051 1237 LINE"
);
},
{
closed = 1;
nodes = (
"1066 1149 LINE",
"1059 1181 LINE",
"950 1172 LINE SMOOTH",
"904.667 1168 OFFCURVE",
"868 1155.667 OFFCURVE",
"840 1135 CURVE SMOOTH",
"761 1078 LINE",
"768 1054 LINE",
"853 1108 LINE SMOOTH",
"871 1120 OFFCURVE",
"888.333 1128 OFFCURVE",
"905 1132 CURVE SMOOTH",
"914.333 1134 OFFCURVE",
"933 1136.333 OFFCURVE",
"961 1139 CURVE SMOOTH",
"1066 1149 LINE"
);
},
{
closed = 1;
nodes = (
"1059 1095 LINE",
"959 1088 LINE SMOOTH",
"921 1086 OFFCURVE",
"891.333 1076.667 OFFCURVE",
"870 1060 CURVE SMOOTH",
"786 994 LINE",
"791 972 LINE",
"879 1033 LINE SMOOTH",
"896.333 1045 OFFCURVE",
"923.333 1053 OFFCURVE",
"960 1057 CURVE SMOOTH",
"1049 1067 LINE",
"1059 1095 LINE"
);
},
{
closed = 1;
nodes = (
"1405 635 OFFCURVE",
"1399.667 651 OFFCURVE",
"1389 651 CURVE SMOOTH",
"1369 651 OFFCURVE",
"1359 646.667 OFFCURVE",
"1359 638 CURVE SMOOTH",
"1359 636 OFFCURVE",
"1361.5 629.667 OFFCURVE",
"1366.5 619 CURVE SMOOTH",
"1371.5 608.333 OFFCURVE",
"1374 599.667 OFFCURVE",
"1374 593 CURVE SMOOTH",
"1374 567 OFFCURVE",
"1365 537.667 OFFCURVE",
"1347 505 CURVE SMOOTH",
"1337 487.667 OFFCURVE",
"1327.333 470.333 OFFCURVE",
"1318 453 CURVE",
"1340.667 465 OFFCURVE",
"1360.333 485.667 OFFCURVE",
"1377 515 CURVE",
"1395.667 552.333 OFFCURVE",
"1405 581.667 OFFCURVE",
"1405 603 CURVE",
"1405 603 LINE"
);
},
{
closed = 1;
nodes = (
"1084 987 LINE",
"1066 1015 LINE",
"970 1008 LINE SMOOTH",
"937.333 1005.333 OFFCURVE",
"910.333 996 OFFCURVE",
"889 980 CURVE SMOOTH",
"804 914 LINE",
"810 890 LINE",
"897 951 LINE SMOOTH",
"917.667 965.667 OFFCURVE",
"943.667 974.333 OFFCURVE",
"975 977 CURVE SMOOTH",
"1084 987 LINE"
);
},
{
closed = 1;
nodes = (
"1130 907 LINE",
"1122 934 LINE",
"1010 920 LINE SMOOTH",
"967.333 914.667 OFFCURVE",
"935.667 904.333 OFFCURVE",
"915 889 CURVE SMOOTH",
"832 828 LINE",
"839 801 LINE",
"926 862 LINE SMOOTH",
"950.667 878.667 OFFCURVE",
"981.667 889.333 OFFCURVE",
"1019 894 CURVE SMOOTH",
"1130 907 LINE"
);
},
{
closed = 1;
nodes = (
"1344 623 OFFCURVE",
"1333.667 644 OFFCURVE",
"1313 644 CURVE SMOOTH",
"1296.333 644 OFFCURVE",
"1288 639.667 OFFCURVE",
"1288 631 CURVE SMOOTH",
"1288 625 OFFCURVE",
"1291.5 616.333 OFFCURVE",
"1298.5 605 CURVE SMOOTH",
"1305.5 593.667 OFFCURVE",
"1309 584.667 OFFCURVE",
"1309 578 CURVE SMOOTH",
"1309 570 OFFCURVE",
"1295.667 546.667 OFFCURVE",
"1269 508 CURVE SMOOTH",
"1242.333 469.333 OFFCURVE",
"1229 446.667 OFFCURVE",
"1229 440 CURVE SMOOTH",
"1229 436 OFFCURVE",
"1235 434 OFFCURVE",
"1247 434 CURVE SMOOTH",
"1262.333 434 OFFCURVE",
"1282.667 454.667 OFFCURVE",
"1308 496 CURVE SMOOTH",
"1332 535.333 OFFCURVE",
"1344 563.667 OFFCURVE",
"1344 581 CURVE",
"1344 581 LINE"
);
},
{
closed = 1;
nodes = (
"1158 828 LINE",
"1149 855 LINE",
"1050 845 LINE SMOOTH",
"1008 840.333 OFFCURVE",
"974.333 829.333 OFFCURVE",
"949 812 CURVE SMOOTH",
"849 742 LINE",
"856 716 LINE",
"951 777 LINE SMOOTH",
"986.333 799 OFFCURVE",
"1021 812 OFFCURVE",
"1055 816 CURVE SMOOTH",
"1158 828 LINE"
);
},
{
closed = 1;
nodes = (
"1173 756 LINE",
"1167 783 LINE",
"1063 767 LINE SMOOTH",
"1027 761 OFFCURVE",
"995.667 748 OFFCURVE",
"969 728 CURVE SMOOTH",
"875 656 LINE",
"882 628 LINE",
"989 702 LINE SMOOTH",
"1021.667 724.667 OFFCURVE",
"1051 738 OFFCURVE",
"1077 742 CURVE SMOOTH",
"1173 756 LINE"
);
},
{
closed = 1;
nodes = (
"1258 620.333 OFFCURVE",
"1243.333 640 OFFCURVE",
"1214 640 CURVE SMOOTH",
"1206.667 640 OFFCURVE",
"1203 637 OFFCURVE",
"1203 631 CURVE SMOOTH",
"1203 625 OFFCURVE",
"1205 616.167 OFFCURVE",
"1209 604.5 CURVE SMOOTH",
"1213 592.833 OFFCURVE",
"1215 584 OFFCURVE",
"1215 578 CURVE SMOOTH",
"1215 567.333 OFFCURVE",
"1202.833 540.833 OFFCURVE",
"1178.5 498.5 CURVE SMOOTH",
"1154.167 456.167 OFFCURVE",
"1142 431.333 OFFCURVE",
"1142 424 CURVE SMOOTH",
"1142 417.333 OFFCURVE",
"1147 414 OFFCURVE",
"1157 414 CURVE SMOOTH",
"1170.333 414 OFFCURVE",
"1190.667 438.333 OFFCURVE",
"1218 487 CURVE SMOOTH",
"1244.667 533.667 OFFCURVE",
"1258 565 OFFCURVE",
"1258 581 CURVE",
"1258 581 LINE"
);
},
{
closed = 1;
nodes = (
"1167 610.667 OFFCURVE",
"1155.333 631 OFFCURVE",
"1132 631 CURVE SMOOTH",
"1118.667 631 OFFCURVE",
"1112 627.667 OFFCURVE",
"1112 621 CURVE SMOOTH",
"1112 615 OFFCURVE",
"1114 606.167 OFFCURVE",
"1118 594.5 CURVE SMOOTH",
"1122 582.833 OFFCURVE",
"1124 574 OFFCURVE",
"1124 568 CURVE SMOOTH",
"1124 557.333 OFFCURVE",
"1112.333 531.667 OFFCURVE",
"1089 491 CURVE SMOOTH",
"1065.667 450.333 OFFCURVE",
"1054 427.333 OFFCURVE",
"1054 422 CURVE SMOOTH",
"1054 416.667 OFFCURVE",
"1059 414 OFFCURVE",
"1069 414 CURVE SMOOTH",
"1082.333 414 OFFCURVE",
"1102.333 436.667 OFFCURVE",
"1129 482 CURVE SMOOTH",
"1154.333 525.333 OFFCURVE",
"1167 554.667 OFFCURVE",
"1167 570 CURVE",
"1167 570 LINE"
);
},
{
closed = 1;
nodes = (
"1071 612.667 OFFCURVE",
"1060.333 634 OFFCURVE",
"1039 634 CURVE SMOOTH",
"1027 634 OFFCURVE",
"1021 630.333 OFFCURVE",
"1021 623 CURVE SMOOTH",
"1021 617.667 OFFCURVE",
"1022.667 609.5 OFFCURVE",
"1026 598.5 CURVE SMOOTH",
"1029.333 587.5 OFFCURVE",
"1031 579 OFFCURVE",
"1031 573 CURVE SMOOTH",
"1031 561.667 OFFCURVE",
"1019.833 536 OFFCURVE",
"997.5 496 CURVE SMOOTH",
"975.167 456 OFFCURVE",
"964 434 OFFCURVE",
"964 430 CURVE SMOOTH",
"964 424.667 OFFCURVE",
"970.333 422 OFFCURVE",
"983 422 CURVE SMOOTH",
"995 422 OFFCURVE",
"1012.667 443 OFFCURVE",
"1036 485 CURVE SMOOTH",
"1059.333 527 OFFCURVE",
"1071 555.333 OFFCURVE",
"1071 570 CURVE",
"1071 570 LINE"
);
}
);
width = 2048;
}
);
note = microphone;
unicode = 1F3A4;
},
{
glyphname = ticket;
layers = (
{
layerId = "841189CE-7A88-49C9-B3DD-2B83509AFCBE";
paths = (
{
closed = 1;
nodes = (
"2003 1075 LINE",
"1981 1108 LINE",
"1961 1091.333 OFFCURVE",
"1944.667 1092.333 OFFCURVE",
"1932 1111 CURVE SMOOTH",
"1920 1128.333 OFFCURVE",
"1923.667 1145.667 OFFCURVE",
"1943 1163 CURVE",
"1919 1200 LINE",
"1897 1186 OFFCURVE",
"1879.667 1188.333 OFFCURVE",
"1867 1207 CURVE SMOOTH",
"1853.667 1226.333 OFFCURVE",
"1857.667 1243.667 OFFCURVE",
"1879 1259 CURVE",
"1856 1293 LINE",
"1836 1275.667 OFFCURVE",
"1819.333 1277 OFFCURVE",
"1806 1297 CURVE SMOOTH",
"1795.333 1313 OFFCURVE",
"1799.667 1330 OFFCURVE",
"1819 1348 CURVE",
"1798 1379 LINE",
"1777.333 1363 OFFCURVE",
"1760.333 1365 OFFCURVE",
"1747 1385 CURVE SMOOTH",
"1737 1400.333 OFFCURVE",
"1741 1417.333 OFFCURVE",
"1759 1436 CURVE",
"1740 1464 LINE",
"1721.333 1451.333 OFFCURVE",
"1703.333 1445 OFFCURVE",
"1686 1445 CURVE SMOOTH",
"1658.667 1445 OFFCURVE",
"1634.667 1460 OFFCURVE",
"1614 1490 CURVE",
"914 1018 LINE",
"927.333 998.667 OFFCURVE",
"934 979.667 OFFCURVE",
"934 961 CURVE SMOOTH",
"934 933.667 OFFCURVE",
"920 910.667 OFFCURVE",
"892 892 CURVE SMOOTH",
"873.333 879.333 OFFCURVE",
"855.333 873 OFFCURVE",
"838 873 CURVE SMOOTH",
"811.333 873 OFFCURVE",
"787.667 888.333 OFFCURVE",
"767 919 CURVE",
"66 446 LINE",
"79.333 426 OFFCURVE",
"86 407 OFFCURVE",
"86 389 CURVE SMOOTH",
"86 362.333 OFFCURVE",
"72 339.333 OFFCURVE",
"44 320 CURVE",
"63 292 LINE",
"87 302 OFFCURVE",
"104 299.333 OFFCURVE",
"114 284 CURVE SMOOTH",
"126.667 265.333 OFFCURVE",
"122.667 249 OFFCURVE",
"102 235 CURVE",
"122 204 LINE",
"146 214.667 OFFCURVE",
"163 212 OFFCURVE",
"173 196 CURVE",
"185 178.667 OFFCURVE",
"180.667 162.667 OFFCURVE",
"160 148 CURVE",
"183 114 LINE",
"203.667 128 OFFCURVE",
"220.667 125.333 OFFCURVE",
"234 106 CURVE SMOOTH",
"246.667 86.667 OFFCURVE",
"242.667 70 OFFCURVE",
"222 56 CURVE",
"247 19 LINE",
"270.333 30.333 OFFCURVE",
"287.667 27.333 OFFCURVE",
"299 10 CURVE SMOOTH",
"311 -7.333 OFFCURVE",
"309.667 -21 OFFCURVE",
"295 -31 CURVE",
"284 -36 LINE",
"306 -69 LINE",
"322.667 -57.667 OFFCURVE",
"340.333 -52 OFFCURVE",
"359 -52 CURVE SMOOTH",
"389.667 -52 OFFCURVE",
"413.667 -65 OFFCURVE",
"431 -91 CURVE",
"1128 379 LINE",
"1118 394.333 OFFCURVE",
"1113 410.667 OFFCURVE",
"1113 428 CURVE SMOOTH",
"1113 459.333 OFFCURVE",
"1126.667 484.333 OFFCURVE",
"1154 503 CURVE SMOOTH",
"1170 513.667 OFFCURVE",
"1187.667 519 OFFCURVE",
"1207 519 CURVE SMOOTH",
"1237 519 OFFCURVE",
"1260.667 506.333 OFFCURVE",
"1278 481 CURVE",
"1976 951 LINE",
"1966 965.667 OFFCURVE",
"1961 981.667 OFFCURVE",
"1961 999 CURVE SMOOTH",
"1961 1031 OFFCURVE",
"1975 1056.333 OFFCURVE",
"2003 1075 CURVE"
);
},
{
closed = 1;
nodes = (
"1911 1006 LINE",
"1251 561 LINE",
"980 962 LINE",
"1640 1407 LINE",
"1911 1006 LINE"
);
},
{
closed = 1;
nodes = (
"974.667 837.333 OFFCURVE",
"970.333 820.667 OFFCURVE",
"949 806 CURVE SMOOTH",
"928.333 792 OFFCURVE",
"911.667 794.667 OFFCURVE",
"899 814 CURVE SMOOTH",
"886.333 832.667 OFFCURVE",
"890.333 849 OFFCURVE",
"911 863 CURVE SMOOTH",
"931.667 877.667 OFFCURVE",
"948.667 875.333 OFFCURVE",
"962 856 CURVE",
"962 856 LINE"
);
},
{
closed = 1;
nodes = (
"1033 750 OFFCURVE",
"1028.333 734 OFFCURVE",
"1007 720 CURVE SMOOTH",
"986.333 706 OFFCURVE",
"970 708 OFFCURVE",
"958 726 CURVE SMOOTH",
"945.333 745.333 OFFCURVE",
"949.333 761.667 OFFCURVE",
"970 775 CURVE",
"990.667 789.667 OFFCURVE",
"1007.667 787.333 OFFCURVE",
"1021 768 CURVE",
"1021 768 LINE"
);
},
{
closed = 1;
nodes = (
"1094.667 657.667 OFFCURVE",
"1090.667 641 OFFCURVE",
"1070 627 CURVE SMOOTH",
"1049.333 613 OFFCURVE",
"1032.333 615.667 OFFCURVE",
"1019 635 CURVE SMOOTH",
"1005.667 655 OFFCURVE",
"1009.333 672 OFFCURVE",
"1030 686 CURVE SMOOTH",
"1051.333 700 OFFCURVE",
"1068.667 697 OFFCURVE",
"1082 677 CURVE",
"1082 677 LINE"
);
},
{
closed = 1;
nodes = (
"1158.333 563.667 OFFCURVE",
"1153.667 548 OFFCURVE",
"1133 534 CURVE SMOOTH",
"1112.333 520 OFFCURVE",
"1096 521.667 OFFCURVE",
"1084 539 CURVE SMOOTH",
"1070.667 559.667 OFFCURVE",
"1074.333 577 OFFCURVE",
"1095 591 CURVE SMOOTH",
"1115.667 605 OFFCURVE",
"1133 601.667 OFFCURVE",
"1147 581 CURVE",
"1147 581 LINE"
);
},
{
closed = 1;
nodes = (
"1062 433 LINE",
"402 -12 LINE",
"131 390 LINE",
"791 835 LINE",
"1062 433 LINE"
);
},
{
closed = 1;
nodes = (
"1883 1012 LINE",
"1634 1380 LINE",
"1561 1331 LINE",
"1810 962 LINE",
"1883 1012 LINE"
);
},
{
closed = 1;
nodes = (
"1793 951 LINE",
"1545 1320 LINE",
"1101 1021 LINE",
"1350 652 LINE",
"1793 951 LINE"
);
},
{
closed = 1;
nodes = (
"1333 641 LINE",
"1084 1010 LINE",
"1007 958 LINE",
"1256 589 LINE",
"1333 641 LINE"
);
},
{
closed = 1;
nodes = (
"1034 439 LINE",
"785 808 LINE",
"712 758 LINE",
"961 390 LINE",
"1034 439 LINE"
);
},
{
closed = 1;
nodes = (
"944 378 LINE",
"695 747 LINE",
"252 448 LINE",
"501 79 LINE",
"944 378 LINE"
);
},
{
closed = 1;
nodes = (
"484 68 LINE",
"235 437 LINE",
"158 385 LINE",
"407 16 LINE",
"484 68 LINE"
);
}
);
userData = {
assembly = "NPUSHB[ ]	/* 48 values pushed */\01291 99 83 107 95 103 111 83 87 87 54 14 40 0 144 40 143 49 45 53 3 54 44 93 97 101 105 4 109 89 85 109 113 85 113 85 113 44 7 5 13 3 14 4 54 44 14 143 \012SVTCA[0]	/* SetFreedomAndProjectionVectorToAxis */\012SRP0[ ]	/* SetRefPoint0 */\012MDRP[10100]	/* MoveDirectRelPt */\012MDRP[00100]	/* MoveDirectRelPt */\012MDRP[10100]	/* MoveDirectRelPt */\012MDRP[00100]	/* MoveDirectRelPt */\012SRP1[ ]	/* SetRefPoint1 */\012SLOOP[ ]	/* SetLoopVariable */\012IP[ ]	/* InterpolatePts */\012SRP1[ ]	/* SetRefPoint1 */\012IP[ ]	/* InterpolatePts */\012IP[ ]	/* InterpolatePts */\012MDAP[1]	/* MoveDirectAbsPt */\012MDAP[1]	/* MoveDirectAbsPt */\012SRP0[ ]	/* SetRefPoint0 */\012MDRP[00110]	/* MoveDirectRelPt */\012SRP0[ ]	/* SetRefPoint0 */\012MDRP[00110]	/* MoveDirectRelPt */\012SRP1[ ]	/* SetRefPoint1 */\012SLOOP[ ]	/* SetLoopVariable */\012IP[ ]	/* InterpolatePts */\012SRP1[ ]	/* SetRefPoint1 */\012SRP2[ ]	/* SetRefPoint2 */\012SLOOP[ ]	/* SetLoopVariable */\012IP[ ]	/* InterpolatePts */\012SVTCA[1]	/* SetFreedomAndProjectionVectorToAxis */\012SRP0[ ]	/* SetRefPoint0 */\012MDRP[00110]	/* MoveDirectRelPt */\012SRP0[ ]	/* SetRefPoint0 */\012MDRP[00110]	/* MoveDirectRelPt */\012SRP1[ ]	/* SetRefPoint1 */\012IP[ ]	/* InterpolatePts */\012IP[ ]	/* InterpolatePts */\012IP[ ]	/* InterpolatePts */\012MDAP[1]	/* MoveDirectAbsPt */\012MDRP[00110]	/* MoveDirectRelPt */\012MDRP[10100]	/* MoveDirectRelPt */\012IP[ ]	/* InterpolatePts */\012IP[ ]	/* InterpolatePts */\012MDRP[00110]	/* MoveDirectRelPt */\012SRP1[ ]	/* SetRefPoint1 */\012IP[ ]	/* InterpolatePts */\012IP[ ]	/* InterpolatePts */\012IUP[1]	/* InterpolateUntPts */\012IUP[0]	/* InterpolateUntPts */";
};
width = 2048;
}
);
note = ticket;
unicode = 1F3AB;
},
{
glyphname = trophy;
layers = (
{
layerId = "841189CE-7A88-49C9-B3DD-2B83509AFCBE";
paths = (
{
closed = 1;
nodes = (
"1885 1259.667 OFFCURVE",
"1863 1309 OFFCURVE",
"1819 1345 CURVE SMOOTH",
"1787.667 1371 OFFCURVE",
"1737.333 1394 OFFCURVE",
"1668 1414 CURVE",
"1655.333 1424.667 OFFCURVE",
"1645.333 1440.333 OFFCURVE",
"1638 1461 CURVE",
"1588 1461 LINE",
"1583.333 1418.333 OFFCURVE",
"1548.667 1397 OFFCURVE",
"1484 1397 CURVE SMOOTH",
"1464 1397 LINE",
"1462 1421 LINE",
"1408.667 1471 OFFCURVE",
"1259.667 1496 OFFCURVE",
"1015 1496 CURVE SMOOTH",
"770.333 1496 OFFCURVE",
"621.667 1471 OFFCURVE",
"569 1421 CURVE",
"567 1397 LINE",
"489 1396.333 OFFCURVE",
"447.667 1417.667 OFFCURVE",
"443 1461 CURVE",
"393 1461 LINE",
"385 1440.333 OFFCURVE",
"375 1424.667 OFFCURVE",
"363 1414 CURVE",
"293 1394 OFFCURVE",
"242.333 1371 OFFCURVE",
"211 1345 CURVE SMOOTH",
"167.667 1309 OFFCURVE",
"146 1259.667 OFFCURVE",
"146 1197 CURVE SMOOTH",
"146 1102.333 OFFCURVE",
"188.333 1032.333 OFFCURVE",
"273 987 CURVE SMOOTH",
"300.333 972.333 OFFCURVE",
"379 947 OFFCURVE",
"509 911 CURVE SMOOTH",
"593.667 887.667 OFFCURVE",
"636 855.667 OFFCURVE",
"636 815 CURVE SMOOTH",
"636 759.667 OFFCURVE",
"606.667 732 OFFCURVE",
"548 732 CURVE SMOOTH",
"508 732 OFFCURVE",
"488.333 754.667 OFFCURVE",
"489 800 CURVE",
"463 800 OFFCURVE",
"450 778.333 OFFCURVE",
"450 735 CURVE SMOOTH",
"450 704.333 OFFCURVE",
"465.667 681 OFFCURVE",
"497 665 CURVE SMOOTH",
"522.333 651.667 OFFCURVE",
"552 645 OFFCURVE",
"586 645 CURVE SMOOTH",
"622 645 OFFCURVE",
"651.333 653 OFFCURVE",
"674 669 CURVE",
"688 557.667 OFFCURVE",
"768.333 480 OFFCURVE",
"915 436 CURVE",
"915 400 LINE",
"891 400 LINE",
"891 375 LINE",
"845 375 LINE",
"835 370.333 OFFCURVE",
"830 363 OFFCURVE",
"830 353 CURVE SMOOTH",
"830 342.333 OFFCURVE",
"835 331.667 OFFCURVE",
"845 321 CURVE",
"889 321 LINE",
"889 298 LINE",
"915 298 LINE",
"915 254 LINE SMOOTH",
"915 206.667 OFFCURVE",
"911 168.667 OFFCURVE",
"903 140 CURVE",
"879 140 OFFCURVE",
"858.667 138 OFFCURVE",
"842 134 CURVE SMOOTH",
"815.333 127.333 OFFCURVE",
"802.333 115.333 OFFCURVE",
"803 98 CURVE",
"749.667 98.667 OFFCURVE",
"723 69 OFFCURVE",
"723 9 CURVE SMOOTH",
"723 2.333 OFFCURVE",
"744.667 -4.667 OFFCURVE",
"788 -12 CURVE SMOOTH",
"865.333 -24.667 OFFCURVE",
"940.333 -31 OFFCURVE",
"1013 -31 CURVE SMOOTH",
"1088.333 -31 OFFCURVE",
"1166 -24.333 OFFCURVE",
"1246 -11 CURVE SMOOTH",
"1287.333 -4.333 OFFCURVE",
"1308 2.333 OFFCURVE",
"1308 9 CURVE SMOOTH",
"1308 69 OFFCURVE",
"1281.333 98.667 OFFCURVE",
"1228 98 CURVE",
"1228 115.333 OFFCURVE",
"1215 127.333 OFFCURVE",
"1189 134 CURVE SMOOTH",
"1172.333 138 OFFCURVE",
"1152.333 140 OFFCURVE",
"1129 140 CURVE",
"1120.333 170 OFFCURVE",
"1116 210 OFFCURVE",
"1116 260 CURVE SMOOTH",
"1116 298 LINE",
"1142 298 LINE",
"1142 321 LINE",
"1187 321 LINE",
"1196.333 331 OFFCURVE",
"1201 341.667 OFFCURVE",
"1201 353 CURVE SMOOTH",
"1201 363 OFFCURVE",
"1196.333 370.333 OFFCURVE",
"1187 375 CURVE",
"1140 375 LINE",
"1140 400 LINE",
"1116 400 LINE",
"1116 436 LINE",
"1262.667 480.667 OFFCURVE",
"1343.333 558.333 OFFCURVE",
"1358 669 CURVE",
"1380.667 653 OFFCURVE",
"1409.667 645 OFFCURVE",
"1445 645 CURVE SMOOTH",
"1478.333 645 OFFCURVE",
"1508 651.667 OFFCURVE",
"1534 665 CURVE SMOOTH",
"1566 681 OFFCURVE",
"1582 704.333 OFFCURVE",
"1582 735 CURVE SMOOTH",
"1582 778.333 OFFCURVE",
"1568.667 800 OFFCURVE",
"1542 800 CURVE",
"1542 754.667 OFFCURVE",
"1522.333 732 OFFCURVE",
"1483 732 CURVE SMOOTH",
"1425 732 OFFCURVE",
"1396 759.667 OFFCURVE",
"1396 815 CURVE SMOOTH",
"1396 855.667 OFFCURVE",
"1438 887.667 OFFCURVE",
"1522 911 CURVE SMOOTH",
"1652 947 OFFCURVE",
"1730.667 972.333 OFFCURVE",
"1758 987 CURVE SMOOTH",
"1842.667 1032.333 OFFCURVE",
"1885 1102.333 OFFCURVE",
"1885 1197 CURVE",
"1885 1197 LINE"
);
},
{
closed = 1;
nodes = (
"1745 1179.667 OFFCURVE",
"1720.667 1134.667 OFFCURVE",
"1672 1100 CURVE SMOOTH",
"1644.667 1080 OFFCURVE",
"1593 1056.333 OFFCURVE",
"1517 1029 CURVE SMOOTH",
"1445 1002.333 OFFCURVE",
"1396.333 978.667 OFFCURVE",
"1371 958 CURVE",
"1381 1078.667 OFFCURVE",
"1397.333 1186.333 OFFCURVE",
"1420 1281 CURVE",
"1466 1197 LINE",
"1502 1216 LINE",
"1494.667 1302.667 OFFCURVE",
"1535 1346 OFFCURVE",
"1623 1346 CURVE SMOOTH",
"1704.333 1346 OFFCURVE",
"1745 1309 OFFCURVE",
"1745 1235 CURVE",
"1745 1235 LINE"
);
},
{
closed = 1;
nodes = (
"1367.333 1411 OFFCURVE",
"1311.667 1400.667 OFFCURVE",
"1205 1392 CURVE SMOOTH",
"1126.333 1386 OFFCURVE",
"1063 1383 OFFCURVE",
"1015 1383 CURVE SMOOTH",
"932.333 1383 OFFCURVE",
"845 1388.667 OFFCURVE",
"753 1400 CURVE SMOOTH",
"690.333 1408 OFFCURVE",
"659 1415.667 OFFCURVE",
"659 1423 CURVE",
"659.667 1424.333 OFFCURVE",
"660.667 1425.333 OFFCURVE",
"662 1426 CURVE",
"693.333 1434 OFFCURVE",
"719.333 1439.333 OFFCURVE",
"740 1442 CURVE SMOOTH",
"846.667 1458 OFFCURVE",
"938.667 1466 OFFCURVE",
"1016 1466 CURVE SMOOTH",
"1051.333 1466 OFFCURVE",
"1114.333 1461.667 OFFCURVE",
"1205 1453 CURVE SMOOTH",
"1311 1442.333 OFFCURVE",
"1366.667 1432.333 OFFCURVE",
"1372 1423 CURVE",
"1372 1423 LINE"
);
},
{
closed = 1;
nodes = (
"1365 1332 OFFCURVE",
"1339.333 1271.667 OFFCURVE",
"1326 1207 CURVE SMOOTH",
"1317.333 1160.333 OFFCURVE",
"1313 1094.667 OFFCURVE",
"1313 1010 CURVE SMOOTH",
"1313 864.667 OFFCURVE",
"1301.667 759 OFFCURVE",
"1279 693 CURVE SMOOTH",
"1239.667 580.333 OFFCURVE",
"1162.333 522 OFFCURVE",
"1047 518 CURVE",
"1195.667 564 OFFCURVE",
"1270 684.667 OFFCURVE",
"1270 880 CURVE SMOOTH",
"1270 930.667 OFFCURVE",
"1270.333 1007 OFFCURVE",
"1271 1109 CURVE SMOOTH",
"1271.667 1211 OFFCURVE",
"1272 1287.333 OFFCURVE",
"1272 1338 CURVE SMOOTH",
"1272 1351.333 OFFCURVE",
"1279 1359.667 OFFCURVE",
"1293 1363 CURVE SMOOTH",
"1362.333 1379 OFFCURVE",
"1399 1387.333 OFFCURVE",
"1403 1388 CURVE",
"1403 1388 LINE"
);
},
{
closed = 1;
nodes = (
"879 571.333 OFFCURVE",
"823 734.333 OFFCURVE",
"823 1045 CURVE SMOOTH",
"823 1064.333 OFFCURVE",
"823.833 1093 OFFCURVE",
"825.5 1131 CURVE SMOOTH",
"827.167 1169 OFFCURVE",
"828 1197.667 OFFCURVE",
"828 1217 CURVE SMOOTH",
"828 1259.667 OFFCURVE",
"822 1304.333 OFFCURVE",
"810 1351 CURVE",
"865 1343 LINE",
"865 1297 OFFCURVE",
"862.833 1233.833 OFFCURVE",
"858.5 1153.5 CURVE SMOOTH",
"854.167 1073.167 OFFCURVE",
"852 1010 OFFCURVE",
"852 964 CURVE SMOOTH",
"852 740 OFFCURVE",
"898.333 604 OFFCURVE",
"991 556 CURVE",
"991 556 LINE"
);
},
{
closed = 1;
nodes = (
"868 522 OFFCURVE",
"790.667 580.333 OFFCURVE",
"752 693 CURVE SMOOTH",
"729.333 759 OFFCURVE",
"718 864.667 OFFCURVE",
"718 1010 CURVE SMOOTH",
"718 1095.333 OFFCURVE",
"713.333 1161 OFFCURVE",
"704 1207 CURVE SMOOTH",
"692 1271.667 OFFCURVE",
"667 1332 OFFCURVE",
"629 1388 CURVE",
"681 1379.333 OFFCURVE",
"730.667 1370 OFFCURVE",
"778 1360 CURVE SMOOTH",
"792.667 1356.667 OFFCURVE",
"800 1349.333 OFFCURVE",
"800 1338 CURVE SMOOTH",
"801 880 LINE SMOOTH",
"801 804 OFFCURVE",
"814.333 733.333 OFFCURVE",
"841 668 CURVE SMOOTH",
"874.333 586.667 OFFCURVE",
"922 536.667 OFFCURVE",
"984 518 CURVE",
"984 518 LINE SMOOTH"
);
},
{
closed = 1;
nodes = (
"634 978.667 OFFCURVE",
"585 1002.333 OFFCURVE",
"513 1029 CURVE SMOOTH",
"437.667 1056.333 OFFCURVE",
"386 1080 OFFCURVE",
"358 1100 CURVE SMOOTH",
"310 1134.667 OFFCURVE",
"286 1179.667 OFFCURVE",
"286 1235 CURVE SMOOTH",
"286 1309 OFFCURVE",
"327 1346 OFFCURVE",
"409 1346 CURVE SMOOTH",
"493 1346 OFFCURVE",
"533.333 1309.667 OFFCURVE",
"530 1237 CURVE SMOOTH",
"529 1216 LINE",
"565 1197 LINE",
"611 1281 LINE",
"633 1186.333 OFFCURVE",
"649.333 1078.667 OFFCURVE",
"660 958 CURVE",
"660 958 LINE"
);
},
{
closed = 1;
nodes = (
"277 1022 OFFCURVE",
"242 1046.333 OFFCURVE",
"214 1079 CURVE SMOOTH",
"183.333 1115 OFFCURVE",
"168 1153.667 OFFCURVE",
"168 1195 CURVE SMOOTH",
"168 1230.333 OFFCURVE",
"176.333 1262.333 OFFCURVE",
"193 1291 CURVE SMOOTH",
"212.333 1322.333 OFFCURVE",
"238.333 1341.667 OFFCURVE",
"271 1349 CURVE",
"223.667 1305 OFFCURVE",
"200 1255 OFFCURVE",
"200 1199 CURVE SMOOTH",
"200 1108.333 OFFCURVE",
"239.667 1044 OFFCURVE",
"319 1006 CURVE",
"319 1006 LINE"
);
},
{
closed = 1;
nodes = (
"1191.667 33.667 OFFCURVE",
"1108.333 25 OFFCURVE",
"1013 25 CURVE SMOOTH",
"921 25 OFFCURVE",
"839.667 33.667 OFFCURVE",
"769 51 CURVE",
"795.667 51 OFFCURVE",
"836.167 50.167 OFFCURVE",
"890.5 48.5 CURVE SMOOTH",
"944.833 46.833 OFFCURVE",
"985.667 46 OFFCURVE",
"1013 46 CURVE SMOOTH",
"1038.333 46 OFFCURVE",
"1076.333 46.833 OFFCURVE",
"1127 48.5 CURVE SMOOTH",
"1177.667 50.167 OFFCURVE",
"1215.667 51 OFFCURVE",
"1241 51 CURVE SMOOTH",
"1263 51 LINE",
"1263 51 LINE"
);
},
{
closed = 1;
nodes = (
"1797.333 1289 OFFCURVE",
"1814 1255.333 OFFCURVE",
"1814 1204 CURVE SMOOTH",
"1814 1168 OFFCURVE",
"1797.167 1133.833 OFFCURVE",
"1763.5 1101.5 CURVE SMOOTH",
"1729.833 1069.167 OFFCURVE",
"1695.333 1053 OFFCURVE",
"1660 1053 CURVE",
"1738 1107.667 OFFCURVE",
"1777 1164 OFFCURVE",
"1777 1222 CURVE SMOOTH",
"1777 1249.333 OFFCURVE",
"1772.667 1277 OFFCURVE",
"1764 1305 CURVE",
"1764 1305 LINE"
);
}
);
userData = {
assembly = "NPUSHB[ ]	/* 95 values pushed */\01288 201 98 164 173 188 180 70 192 82 194 4 98 68 62 54 48 57 57 68 0 113 119 6 121 18 4 20 127 102 20 40 34 26 31 31 12 20 76 68 8 80 16 72 29 59 23 65 70 18 121 192 194 119 6 20 20 68 72 68 72 68 100 34 54 152 44 168 44 184 44 200 44 216 44 5 0 44 40 40 48 239 145 147 184 167 141 131 100 115 106 100 199 95 100 \012SVTCA[0]	/* SetFreedomAndProjectionVectorToAxis */\012MDAP[1]	/* MoveDirectAbsPt */\012MDRP[10100]	/* MoveDirectRelPt */\012MDRP[01101]	/* MoveDirectRelPt */\012SRP0[ ]	/* SetRefPoint0 */\012MDRP[10100]	/* MoveDirectRelPt */\012MDRP[01101]	/* MoveDirectRelPt */\012SRP0[ ]	/* SetRefPoint0 */\012MDRP[10101]	/* MoveDirectRelPt */\012MDRP[10110]	/* MoveDirectRelPt */\012MDRP[11101]	/* MoveDirectRelPt */\012MDRP[00100]	/* MoveDirectRelPt */\012MDRP[10101]	/* MoveDirectRelPt */\012MDRP[00110]	/* MoveDirectRelPt */\012SRP0[ ]	/* SetRefPoint0 */\012MDRP[10110]	/* MoveDirectRelPt */\012ALIGNRP[ ]	/* AlignRelativePt */\012SRP0[ ]	/* SetRefPoint0 */\012MDRP[11101]	/* MoveDirectRelPt */\012SDS[ ]	/* SetDeltaShiftInGState */\012DELTAP1[ ]	/* DeltaExceptionP1 */\012MDRP[10100]	/* MoveDirectRelPt */\012ALIGNRP[ ]	/* AlignRelativePt */\012SRP2[ ]	/* SetRefPoint2 */\012IP[ ]	/* InterpolatePts */\012IP[ ]	/* InterpolatePts */\012MDAP[1]	/* MoveDirectAbsPt */\012MDAP[1]	/* MoveDirectAbsPt */\012SRP0[ ]	/* SetRefPoint0 */\012ALIGNRP[ ]	/* AlignRelativePt */\012SRP1[ ]	/* SetRefPoint1 */\012SLOOP[ ]	/* SetLoopVariable */\012IP[ ]	/* InterpolatePts */\012MDRP[10100]	/* MoveDirectRelPt */\012ALIGNRP[ ]	/* AlignRelativePt */\012MDRP[11101]	/* MoveDirectRelPt */\012ALIGNRP[ ]	/* AlignRelativePt */\012SRP0[ ]	/* SetRefPoint0 */\012ALIGNRP[ ]	/* AlignRelativePt */\012MDRP[11101]	/* MoveDirectRelPt */\012ALIGNRP[ ]	/* AlignRelativePt */\012SVTCA[1]	/* SetFreedomAndProjectionVectorToAxis */\012MDAP[1]	/* MoveDirectAbsPt */\012MDRP[00100]	/* MoveDirectRelPt */\012MDRP[11101]	/* MoveDirectRelPt */\012MDRP[00100]	/* MoveDirectRelPt */\012ALIGNRP[ ]	/* AlignRelativePt */\012SRP0[ ]	/* SetRefPoint0 */\012MDRP[00100]	/* MoveDirectRelPt */\012SHP[1]	/* ShiftPointByLastPoint */\012MDRP[00100]	/* MoveDirectRelPt */\012SRP0[ ]	/* SetRefPoint0 */\012MDRP[10100]	/* MoveDirectRelPt */\012MDRP[01101]	/* MoveDirectRelPt */\012SRP2[ ]	/* SetRefPoint2 */\012SLOOP[ ]	/* SetLoopVariable */\012IP[ ]	/* InterpolatePts */\012MDRP[10100]	/* MoveDirectRelPt */\012MDRP[00100]	/* MoveDirectRelPt */\012SRP0[ ]	/* SetRefPoint0 */\012ALIGNRP[ ]	/* AlignRelativePt */\012SRP0[ ]	/* SetRefPoint0 */\012MDRP[00100]	/* MoveDirectRelPt */\012SHP[1]	/* ShiftPointByLastPoint */\012MDRP[00100]	/* MoveDirectRelPt */\012SRP0[ ]	/* SetRefPoint0 */\012MDRP[10100]	/* MoveDirectRelPt */\012SLOOP[ ]	/* SetLoopVariable */\012IP[ ]	/* InterpolatePts */\012MDRP[10100]	/* MoveDirectRelPt */\012MDRP[00110]	/* MoveDirectRelPt */\012MDRP[10101]	/* MoveDirectRelPt */\012MDRP[00110]	/* MoveDirectRelPt */\012SRP0[ ]	/* SetRefPoint0 */\012MDRP[10100]	/* MoveDirectRelPt */\012MDRP[00100]	/* MoveDirectRelPt */\012IUP[1]	/* InterpolateUntPts */\012IUP[0]	/* InterpolateUntPts */";
};
width = 2028;
}
);
note = trophy;
unicode = 1F3C6;
},
{
glyphname = golfer;
layers = (
{
layerId = "841189CE-7A88-49C9-B3DD-2B83509AFCBE";
paths = (
{
closed = 1;
nodes = (
"1378 1357.333 OFFCURVE",
"1370.333 1362.667 OFFCURVE",
"1355 1366 CURVE",
"1345 1347 LINE",
"1353.667 1340.333 OFFCURVE",
"1361 1337 OFFCURVE",
"1367 1337 CURVE SMOOTH",
"1374.333 1337 OFFCURVE",
"1378 1341.333 OFFCURVE",
"1378 1350 CURVE",
"1378 1350 LINE"
);
},
{
closed = 1;
nodes = (
"1257 1379 LINE",
"1253 1401 LINE",
"1202 1411 LINE SMOOTH",
"1177.333 1415 OFFCURVE",
"1159.333 1417.333 OFFCURVE",
"1148 1418 CURVE",
"1149 1399 LINE",
"1170.333 1396.333 OFFCURVE",
"1187 1393.667 OFFCURVE",
"1199 1391 CURVE SMOOTH",
"1257 1379 LINE"
);
},
{
closed = 1;
nodes = (
"1304.333 1226.333 OFFCURVE",
"1284 1165.667 OFFCURVE",
"1268 1117 CURVE",
"1257.333 1091.667 OFFCURVE",
"1249.333 1073.667 OFFCURVE",
"1244 1063 CURVE",
"1280 1061 OFFCURVE",
"1302.333 1068 OFFCURVE",
"1311 1084 CURVE",
"1327.667 1112 OFFCURVE",
"1333.667 1183.667 OFFCURVE",
"1329 1299 CURVE",
"1329 1299 LINE"
);
},
{
closed = 1;
nodes = (
"1139.667 1450.667 OFFCURVE",
"1129 1469 OFFCURVE",
"1111 1469 CURVE SMOOTH",
"1071.667 1469 OFFCURVE",
"1038 1460.667 OFFCURVE",
"1010 1444 CURVE SMOOTH",
"978.667 1425.333 OFFCURVE",
"962.333 1399 OFFCURVE",
"961 1365 CURVE",
"961 1350.333 OFFCURVE",
"964 1323.333 OFFCURVE",
"970 1284 CURVE",
"981.333 1292 OFFCURVE",
"991.333 1296 OFFCURVE",
"1000 1296 CURVE",
"1048.667 1284 OFFCURVE",
"1082.667 1272.667 OFFCURVE",
"1102 1262 CURVE",
"1118 1274.667 OFFCURVE",
"1129.333 1295.5 OFFCURVE",
"1136 1324.5 CURVE SMOOTH",
"1142.667 1353.5 OFFCURVE",
"1145 1383.333 OFFCURVE",
"1143 1414 CURVE",
"1143 1414 LINE"
);
},
{
closed = 1;
nodes = (
"1328.667 1397.667 OFFCURVE",
"1309 1408.667 OFFCURVE",
"1293 1408 CURVE",
"1277.667 1405.333 OFFCURVE",
"1266.667 1402.333 OFFCURVE",
"1260 1399 CURVE",
"1263.333 1393.667 OFFCURVE",
"1265 1384.333 OFFCURVE",
"1265 1371 CURVE",
"1264.333 1359 OFFCURVE",
"1262.333 1344.667 OFFCURVE",
"1259 1328 CURVE SMOOTH",
"1243.667 1255.333 OFFCURVE",
"1225.333 1219 OFFCURVE",
"1204 1219 CURVE SMOOTH",
"1172.667 1219 OFFCURVE",
"1137.167 1230.333 OFFCURVE",
"1097.5 1253 CURVE SMOOTH",
"1057.833 1275.667 OFFCURVE",
"1025.333 1287 OFFCURVE",
"1000 1287 CURVE SMOOTH",
"937.333 1287 OFFCURVE",
"902 1181.667 OFFCURVE",
"894 971 CURVE SMOOTH",
"893.333 941 OFFCURVE",
"896 900 OFFCURVE",
"902 848 CURVE",
"931.333 886 OFFCURVE",
"952.667 910.667 OFFCURVE",
"966 922 CURVE SMOOTH",
"984.667 938 OFFCURVE",
"998 949 OFFCURVE",
"1006 955 CURVE",
"1014 949 LINE",
"995.333 935 OFFCURVE",
"981.333 923.667 OFFCURVE",
"972 915 CURVE SMOOTH",
"902.667 847.667 OFFCURVE",
"868 787.333 OFFCURVE",
"868 734 CURVE SMOOTH",
"868 712 OFFCURVE",
"876.667 689.667 OFFCURVE",
"894 667 CURVE",
"917.333 735.667 OFFCURVE",
"943.667 785.333 OFFCURVE",
"973 816 CURVE SMOOTH",
"1019 862 OFFCURVE",
"1072.333 885 OFFCURVE",
"1133 885 CURVE",
"1147 877 OFFCURVE",
"1157.667 869.333 OFFCURVE",
"1165 862 CURVE",
"1166.333 908.667 OFFCURVE",
"1166.333 944.667 OFFCURVE",
"1165 970 CURVE",
"1161 1003.333 OFFCURVE",
"1157.667 1027 OFFCURVE",
"1155 1041 CURVE",
"1127.667 1048.333 OFFCURVE",
"1106.667 1054.667 OFFCURVE",
"1092 1060 CURVE",
"1054 1076.667 OFFCURVE",
"1027 1089.333 OFFCURVE",
"1011 1098 CURVE",
"1011 1107 LINE",
"1099 1063 OFFCURVE",
"1163.333 1041 OFFCURVE",
"1204 1041 CURVE SMOOTH",
"1222 1041 OFFCURVE",
"1242 1071.667 OFFCURVE",
"1264 1133 CURVE SMOOTH",
"1284 1190.333 OFFCURVE",
"1303.667 1247.333 OFFCURVE",
"1323 1304 CURVE",
"1336.333 1338 OFFCURVE",
"1346 1361.667 OFFCURVE",
"1352 1375 CURVE",
"1352 1375 LINE"
);
},
{
closed = 1;
nodes = (
"927 1434.333 OFFCURVE",
"875 1436 OFFCURVE",
"827 1436 CURVE SMOOTH",
"691.667 1436 OFFCURVE",
"609.333 1426 OFFCURVE",
"580 1406 CURVE SMOOTH",
"557.333 1390.667 OFFCURVE",
"547.333 1364.333 OFFCURVE",
"550 1327 CURVE SMOOTH",
"551.333 1304.333 OFFCURVE",
"562.333 1293 OFFCURVE",
"583 1293 CURVE SMOOTH",
"589 1293 OFFCURVE",
"600 1308 OFFCURVE",
"616 1338 CURVE SMOOTH",
"633.333 1370.667 OFFCURVE",
"646 1389.667 OFFCURVE",
"654 1395 CURVE SMOOTH",
"680.667 1412.333 OFFCURVE",
"738.333 1421 OFFCURVE",
"827 1421 CURVE SMOOTH",
"872.333 1421 OFFCURVE",
"919.333 1419 OFFCURVE",
"968 1415 CURVE",
"983 1431 LINE",
"983 1431 LINE"
);
},
{
closed = 1;
nodes = (
"1197.667 -34.667 OFFCURVE",
"1198 -31.333 OFFCURVE",
"1198 -26 CURVE SMOOTH",
"1198 -13.333 OFFCURVE",
"1194.333 36.333 OFFCURVE",
"1187 123 CURVE SMOOTH",
"1178.333 222.333 OFFCURVE",
"1172.667 302.667 OFFCURVE",
"1170 364 CURVE",
"1170 795 LINE SMOOTH",
"1170 849 OFFCURVE",
"1156.667 876 OFFCURVE",
"1130 876 CURVE SMOOTH",
"1070.667 874.667 OFFCURVE",
"1021.333 853.333 OFFCURVE",
"982 812 CURVE SMOOTH",
"952 780 OFFCURVE",
"926 732.667 OFFCURVE",
"904 670 CURVE",
"870 551.333 OFFCURVE",
"842.667 451.667 OFFCURVE",
"822 371 CURVE",
"803.333 312.333 OFFCURVE",
"773 231.333 OFFCURVE",
"731 128 CURVE SMOOTH",
"699 48.667 OFFCURVE",
"683.667 4.667 OFFCURVE",
"685 -4 CURVE SMOOTH",
"687 -20 OFFCURVE",
"714.333 -29 OFFCURVE",
"767 -31 CURVE",
"805.667 -31 OFFCURVE",
"833.333 -30.667 OFFCURVE",
"850 -30 CURVE",
"884 -38.667 OFFCURVE",
"908.333 -46 OFFCURVE",
"923 -52 CURVE",
"951 142.667 OFFCURVE",
"980 293.667 OFFCURVE",
"1010 401 CURVE SMOOTH",
"1021.333 441 OFFCURVE",
"1044.667 501.667 OFFCURVE",
"1080 583 CURVE SMOOTH",
"1110 650.333 OFFCURVE",
"1129.667 711.667 OFFCURVE",
"1139 767 CURVE",
"1142.333 793.667 OFFCURVE",
"1144 813 OFFCURVE",
"1144 825 CURVE",
"1153 825 LINE",
"1153 800.333 OFFCURVE",
"1151.667 781 OFFCURVE",
"1149 767 CURVE SMOOTH",
"1138.333 709.667 OFFCURVE",
"1118.333 646.667 OFFCURVE",
"1089 578 CURVE SMOOTH",
"1055 497.333 OFFCURVE",
"1032.333 436.667 OFFCURVE",
"1021 396 CURVE",
"1012.333 360 OFFCURVE",
"1006.667 334 OFFCURVE",
"1004 318 CURVE",
"1008 248.667 OFFCURVE",
"1009.333 194.333 OFFCURVE",
"1008 155 CURVE",
"1000 60.333 OFFCURVE",
"992.333 -7.667 OFFCURVE",
"985 -49 CURVE",
"1001.667 -45.667 OFFCURVE",
"1014.667 -43.667 OFFCURVE",
"1024 -43 CURVE",
"1077.333 -45 OFFCURVE",
"1114 -48 OFFCURVE",
"1134 -52 CURVE",
"1168.667 -50.667 OFFCURVE",
"1189.667 -45.333 OFFCURVE",
"1197 -36 CURVE",
"1197 -36 LINE"
);
},
{
closed = 1;
nodes = (
"1174 -107.667 OFFCURVE",
"1171 -94 OFFCURVE",
"1163 -88 CURVE SMOOTH",
"1158.333 -84.667 OFFCURVE",
"1145.667 -83.667 OFFCURVE",
"1125 -85 CURVE",
"1093.667 -91.667 OFFCURVE",
"1071.333 -98 OFFCURVE",
"1058 -104 CURVE",
"1053 -98 LINE",
"1069.667 -89.333 OFFCURVE",
"1083.333 -83.833 OFFCURVE",
"1094 -81.5 CURVE SMOOTH",
"1104.667 -79.167 OFFCURVE",
"1120.333 -78.333 OFFCURVE",
"1141 -79 CURVE",
"1140 -58 LINE",
"1030 -49 LINE",
"1022 -63 OFFCURVE",
"1016.667 -74.333 OFFCURVE",
"1014 -83 CURVE SMOOTH",
"1010.667 -93.667 OFFCURVE",
"1010.333 -109 OFFCURVE",
"1013 -129 CURVE",
"1172 -129 LINE",
"1172 -129 LINE"
);
},
{
closed = 1;
nodes = (
"891 -112.333 OFFCURVE",
"888.667 -100 OFFCURVE",
"884 -92 CURVE SMOOTH",
"874 -74.667 OFFCURVE",
"848 -67.667 OFFCURVE",
"806 -71 CURVE",
"806 -65 LINE",
"832 -65 LINE",
"828 -33 LINE",
"802 -35.667 OFFCURVE",
"781.333 -36.667 OFFCURVE",
"766 -36 CURVE",
"739.333 -32.667 OFFCURVE",
"720.333 -29.667 OFFCURVE",
"709 -27 CURVE",
"705.667 -35 OFFCURVE",
"703.333 -41.333 OFFCURVE",
"702 -46 CURVE SMOOTH",
"700 -52.667 OFFCURVE",
"699.333 -62 OFFCURVE",
"700 -74 CURVE",
"770 -129 LINE",
"891 -129 LINE",
"891 -129 LINE"
);
}
);
userData = {
assembly = "NPUSHB[ ]	/* 95 values pushed */\012175 133 103 139 1 39 139 55 139 71 139 87 139 103 139 119 139 135 139 151 139 167 139 183 139 199 139 215 139 231 139 247 139 14 0 139 74 158 159 112 114 106 53 94 100 30 36 53 81 0 15 151 53 63 74 192 135 137 183 176 108 164 110 163 159 159 176 192 102 98 92 104 90 89 104 2 5 7 14 10 11 104 15 19 87 34 19 44 79 76 149 57 76 26 34 \012SVTCA[0]	/* SetFreedomAndProjectionVectorToAxis */\012MDAP[1]	/* MoveDirectAbsPt */\012MDRP[11101]	/* MoveDirectRelPt */\012MDRP[10110]	/* MoveDirectRelPt */\012MDRP[11100]	/* MoveDirectRelPt */\012MDRP[00110]	/* MoveDirectRelPt */\012SRP0[ ]	/* SetRefPoint0 */\012MDRP[10100]	/* MoveDirectRelPt */\012MDRP[11101]	/* MoveDirectRelPt */\012MDRP[00100]	/* MoveDirectRelPt */\012SRP0[ ]	/* SetRefPoint0 */\012MDRP[00100]	/* MoveDirectRelPt */\012SRP1[ ]	/* SetRefPoint1 */\012IP[ ]	/* InterpolatePts */\012MDRP[11100]	/* MoveDirectRelPt */\012MDRP[10100]	/* MoveDirectRelPt */\012MDRP[01101]	/* MoveDirectRelPt */\012MDRP[10101]	/* MoveDirectRelPt */\012MDRP[01101]	/* MoveDirectRelPt */\012MDRP[10100]	/* MoveDirectRelPt */\012MDRP[01101]	/* MoveDirectRelPt */\012SRP0[ ]	/* SetRefPoint0 */\012MDRP[10101]	/* MoveDirectRelPt */\012MDRP[01100]	/* MoveDirectRelPt */\012SRP0[ ]	/* SetRefPoint0 */\012MDRP[11101]	/* MoveDirectRelPt */\012MDRP[11100]	/* MoveDirectRelPt */\012MDRP[00101]	/* MoveDirectRelPt */\012SRP0[ ]	/* SetRefPoint0 */\012MDRP[10110]	/* MoveDirectRelPt */\012ALIGNRP[ ]	/* AlignRelativePt */\012SRP0[ ]	/* SetRefPoint0 */\012MDRP[11101]	/* MoveDirectRelPt */\012MDRP[00110]	/* MoveDirectRelPt */\012MDRP[10101]	/* MoveDirectRelPt */\012MDRP[00110]	/* MoveDirectRelPt */\012SRP0[ ]	/* SetRefPoint0 */\012MDRP[11101]	/* MoveDirectRelPt */\012MDRP[10110]	/* MoveDirectRelPt */\012MDRP[00101]	/* MoveDirectRelPt */\012SVTCA[1]	/* SetFreedomAndProjectionVectorToAxis */\012SRP0[ ]	/* SetRefPoint0 */\012MDRP[11110]	/* MoveDirectRelPt */\012MDRP[00100]	/* MoveDirectRelPt */\012MDRP[11101]	/* MoveDirectRelPt */\012MDRP[00100]	/* MoveDirectRelPt */\012MDRP[10100]	/* MoveDirectRelPt */\012MDRP[00100]	/* MoveDirectRelPt */\012MDRP[00100]	/* MoveDirectRelPt */\012SRP0[ ]	/* SetRefPoint0 */\012MDRP[10100]	/* MoveDirectRelPt */\012MDRP[11101]	/* MoveDirectRelPt */\012MDRP[11100]	/* MoveDirectRelPt */\012MDRP[01101]	/* MoveDirectRelPt */\012SRP0[ ]	/* SetRefPoint0 */\012MDRP[10100]	/* MoveDirectRelPt */\012MDRP[11101]	/* MoveDirectRelPt */\012MDRP[00110]	/* MoveDirectRelPt */\012MDRP[10100]	/* MoveDirectRelPt */\012MDRP[01101]	/* MoveDirectRelPt */\012SRP0[ ]	/* SetRefPoint0 */\012MDRP[10100]	/* MoveDirectRelPt */\012SDS[ ]	/* SetDeltaShiftInGState */\012DELTAP1[ ]	/* DeltaExceptionP1 */\012DELTAP2[ ]	/* DeltaExceptionP2 */\012MDRP[10100]	/* MoveDirectRelPt */\012MDRP[00110]	/* MoveDirectRelPt */\012IUP[1]	/* InterpolateUntPts */\012IUP[0]	/* InterpolateUntPts */";
};
width = 2048;
}
);
note = golfer;
unicode = 1F3CC;
},
{
glyphname = camping;
layers = (
{
layerId = "841189CE-7A88-49C9-B3DD-2B83509AFCBE";
paths = (
{
closed = 1;
nodes = (
"2048 -410 LINE",
"2048 542 LINE",
"1438 542 LINE",
"1438 702 LINE",
"1896 702 LINE",
"1494 995 LINE",
"1746 995 LINE",
"1438 1291 LINE",
"1597 1291 LINE",
"1345 1495 LINE",
"1092 1291 LINE",
"1251 1291 LINE",
"943 995 LINE",
"1195 995 LINE",
"794 702 LINE",
"1251 702 LINE",
"1251 542 LINE",
"854 542 LINE",
"627 1042 LINE",
"387 542 LINE",
"0 542 LINE",
"0 -410 LINE",
"2048 -410 LINE"
);
},
{
closed = 1;
nodes = (
"1071 0 LINE",
"798 0 LINE",
"798 292 LINE SMOOTH",
"798 334.667 OFFCURVE",
"785.667 374 OFFCURVE",
"761 410 CURVE SMOOTH",
"729 456 OFFCURVE",
"684.333 479 OFFCURVE",
"627 479 CURVE SMOOTH",
"569 479 OFFCURVE",
"524.333 456 OFFCURVE",
"493 410 CURVE SMOOTH",
"467.667 374 OFFCURVE",
"455 334.667 OFFCURVE",
"455 292 CURVE SMOOTH",
"455 0 LINE",
"157 0 LINE",
"627 1001 LINE",
"1071 0 LINE"
);
}
);
userData = {
assembly = "NPUSHB[ ]	/* 70 values pushed */\01216 14 17 15 4 13 18 154 20 10 12 9 11 4 8 13 13 20 8 154 6 20 21 21 37 4 23 4 23 35 25 3 24 2 35 22 5 2 2 36 35 25 87 30 103 30 2 0 30 2 15 13 11 17 9 19 7 6 6 21 21 2 23 118 4 2 151 1 14 36 \012SVTCA[0]	/* SetFreedomAndProjectionVectorToAxis */\012SRP0[ ]	/* SetRefPoint0 */\012MIRP[01110]	/* MoveIndirectRelPt */\012MIRP[11110]	/* MoveIndirectRelPt */\012MDRP[11110]	/* MoveDirectRelPt */\012MIRP[01101]	/* MoveIndirectRelPt */\012SRP0[ ]	/* SetRefPoint0 */\012ALIGNRP[ ]	/* AlignRelativePt */\012SRP0[ ]	/* SetRefPoint0 */\012ALIGNRP[ ]	/* AlignRelativePt */\012SRP0[ ]	/* SetRefPoint0 */\012MDRP[11110]	/* MoveDirectRelPt */\012ALIGNRP[ ]	/* AlignRelativePt */\012MDRP[11101]	/* MoveDirectRelPt */\012ALIGNRP[ ]	/* AlignRelativePt */\012MDRP[11101]	/* MoveDirectRelPt */\012MDRP[01101]	/* MoveDirectRelPt */\012ALIGNRP[ ]	/* AlignRelativePt */\012SRP0[ ]	/* SetRefPoint0 */\012MDRP[10100]	/* MoveDirectRelPt */\012SDS[ ]	/* SetDeltaShiftInGState */\012DELTAP1[ ]	/* DeltaExceptionP1 */\012MDRP[10101]	/* MoveDirectRelPt */\012ALIGNRP[ ]	/* AlignRelativePt */\012SVTCA[1]	/* SetFreedomAndProjectionVectorToAxis */\012SRP0[ ]	/* SetRefPoint0 */\012ALIGNRP[ ]	/* AlignRelativePt */\012SRP0[ ]	/* SetRefPoint0 */\012MDRP[10100]	/* MoveDirectRelPt */\012MDRP[10101]	/* MoveDirectRelPt */\012MDRP[00110]	/* MoveDirectRelPt */\012SRP0[ ]	/* SetRefPoint0 */\012MDRP[10101]	/* MoveDirectRelPt */\012MDRP[00101]	/* MoveDirectRelPt */\012MDRP[00110]	/* MoveDirectRelPt */\012SRP1[ ]	/* SetRefPoint1 */\012IP[ ]	/* InterpolatePts */\012IP[ ]	/* InterpolatePts */\012RTDG[ ]	/* RoundToDoubleGrid */\012MDAP[1]	/* MoveDirectAbsPt */\012MDAP[1]	/* MoveDirectAbsPt */\012SRP0[ ]	/* SetRefPoint0 */\012ALIGNRP[ ]	/* AlignRelativePt */\012RTG[ ]	/* RoundToGrid */\012SRP0[ ]	/* SetRefPoint0 */\012MDRP[10101]	/* MoveDirectRelPt */\012MDRP[11101]	/* MoveDirectRelPt */\012MIRP[01110]	/* MoveIndirectRelPt */\012SRP2[ ]	/* SetRefPoint2 */\012IP[ ]	/* InterpolatePts */\012RTDG[ ]	/* RoundToDoubleGrid */\012MDAP[1]	/* MoveDirectAbsPt */\012SRP2[ ]	/* SetRefPoint2 */\012SLOOP[ ]	/* SetLoopVariable */\012IP[ ]	/* InterpolatePts */\012RTG[ ]	/* RoundToGrid */\012SRP0[ ]	/* SetRefPoint0 */\012MIRP[01110]	/* MoveIndirectRelPt */\012SRP1[ ]	/* SetRefPoint1 */\012SLOOP[ ]	/* SetLoopVariable */\012IP[ ]	/* InterpolatePts */\012IUP[1]	/* InterpolateUntPts */\012IUP[0]	/* InterpolateUntPts */";
};
width = 2048;
}
);
note = camping;
unicode = 1F3D5;
},
{
glyphname = desert;
layers = (
{
layerId = "841189CE-7A88-49C9-B3DD-2B83509AFCBE";
paths = (
{
closed = 1;
nodes = (
"829 1233.333 OFFCURVE",
"798.5 1304.333 OFFCURVE",
"737.5 1363 CURVE SMOOTH",
"676.5 1421.667 OFFCURVE",
"603 1451 OFFCURVE",
"517 1451 CURVE SMOOTH",
"431 1451 OFFCURVE",
"357.5 1421.667 OFFCURVE",
"296.5 1363 CURVE SMOOTH",
"235.5 1304.333 OFFCURVE",
"205 1233.333 OFFCURVE",
"205 1150 CURVE SMOOTH",
"205 1066.667 OFFCURVE",
"235.5 995.5 OFFCURVE",
"296.5 936.5 CURVE SMOOTH",
"357.5 877.5 OFFCURVE",
"431 848 OFFCURVE",
"517 848 CURVE SMOOTH",
"603 848 OFFCURVE",
"676.5 877.5 OFFCURVE",
"737.5 936.5 CURVE SMOOTH",
"798.5 995.5 OFFCURVE",
"829 1066.667 OFFCURVE",
"829 1150 CURVE",
"829 1150 LINE"
);
},
{
closed = 1;
nodes = (
"2048 -410 LINE",
"2048 542 LINE",
"1661 542 LINE",
"1661 673 LINE",
"1788 673 LINE SMOOTH",
"1810 673 OFFCURVE",
"1833 684.667 OFFCURVE",
"1857 708 CURVE SMOOTH",
"1881 731.333 OFFCURVE",
"1893 756.333 OFFCURVE",
"1893 783 CURVE SMOOTH",
"1893 999 LINE SMOOTH",
"1893 1054.333 OFFCURVE",
"1872 1082 OFFCURVE",
"1830 1082 CURVE SMOOTH",
"1787.333 1082 OFFCURVE",
"1766 1054.333 OFFCURVE",
"1766 999 CURVE SMOOTH",
"1766 847 LINE SMOOTH",
"1766 804.333 OFFCURVE",
"1745.333 783 OFFCURVE",
"1704 783 CURVE SMOOTH",
"1661 783 LINE",
"1661 1410 LINE SMOOTH",
"1661 1465.333 OFFCURVE",
"1640 1493 OFFCURVE",
"1598 1493 CURVE SMOOTH",
"1555.333 1493 OFFCURVE",
"1534 1465.333 OFFCURVE",
"1534 1410 CURVE SMOOTH",
"1534 907 LINE",
"1441 907 LINE SMOOTH",
"1387 907 OFFCURVE",
"1360 928.333 OFFCURVE",
"1360 971 CURVE SMOOTH",
"1360 1226 LINE SMOOTH",
"1360 1280.667 OFFCURVE",
"1338.333 1308 OFFCURVE",
"1295 1308 CURVE SMOOTH",
"1253 1308 OFFCURVE",
"1232 1280.667 OFFCURVE",
"1232 1226 CURVE SMOOTH",
"1232 907 LINE SMOOTH",
"1232 880.333 OFFCURVE",
"1244 855.333 OFFCURVE",
"1268 832 CURVE SMOOTH",
"1292 808.667 OFFCURVE",
"1315 797 OFFCURVE",
"1337 797 CURVE SMOOTH",
"1534 797 LINE",
"1534 542 LINE",
"1483.333 594 OFFCURVE",
"1435.667 629.667 OFFCURVE",
"1391 649 CURVE",
"1166 700 LINE",
"1115.333 647.333 OFFCURVE",
"1064.667 610.333 OFFCURVE",
"1014 589 CURVE SMOOTH",
"968 569.667 OFFCURVE",
"907.667 556 OFFCURVE",
"833 548 CURVE SMOOTH",
"801.667 544.667 OFFCURVE",
"768.667 542.667 OFFCURVE",
"734 542 CURVE",
"682.667 594 OFFCURVE",
"635 629.667 OFFCURVE",
"591 649 CURVE",
"366 700 LINE",
"314.667 647.333 OFFCURVE",
"264 610.333 OFFCURVE",
"214 589 CURVE SMOOTH",
"168 569.667 OFFCURVE",
"118.667 556 OFFCURVE",
"66 548 CURVE SMOOTH",
"44 544.667 OFFCURVE",
"22 542.667 OFFCURVE",
"0 542 CURVE",
"0 -410 LINE",
"2048 -410 LINE"
);
},
{
closed = 1;
nodes = (
"1216.333 471 OFFCURVE",
"1180.667 440 OFFCURVE",
"1116 420 CURVE SMOOTH",
"1088.667 411.333 OFFCURVE",
"1057 405.333 OFFCURVE",
"1021 402 CURVE",
"1103 422.667 OFFCURVE",
"1155.667 458.667 OFFCURVE",
"1179 510 CURVE SMOOTH",
"1187 528 OFFCURVE",
"1191 549 OFFCURVE",
"1191 573 CURVE SMOOTH",
"1191 599.667 OFFCURVE",
"1187 626 OFFCURVE",
"1179 652 CURVE",
"1209.667 614.667 OFFCURVE",
"1225 575.667 OFFCURVE",
"1225 535 CURVE SMOOTH",
"1225 527.667 OFFCURVE",
"1224.333 520.333 OFFCURVE",
"1223 513 CURVE",
"1223 513 LINE"
);
},
{
closed = 1;
nodes = (
"415.667 471 OFFCURVE",
"379.667 440 OFFCURVE",
"315 420 CURVE SMOOTH",
"288.333 411.333 OFFCURVE",
"256.667 405.333 OFFCURVE",
"220 402 CURVE",
"302 422.667 OFFCURVE",
"355 458.667 OFFCURVE",
"379 510 CURVE SMOOTH",
"387 528 OFFCURVE",
"391 549 OFFCURVE",
"391 573 CURVE SMOOTH",
"391 599.667 OFFCURVE",
"387 626 OFFCURVE",
"379 652 CURVE",
"409.667 614.667 OFFCURVE",
"425 575.667 OFFCURVE",
"425 535 CURVE SMOOTH",
"425 527.667 OFFCURVE",
"424.333 520.333 OFFCURVE",
"423 513 CURVE",
"423 513 LINE"
);
}
);
userData = {
assembly = "NPUSHB[ ]	/* 103 values pushed */\01256 36 1 1 42 36 1 3 26 36 1 2 8 36 1 1 250 36 1 222 36 238 36 2 3 200 36 1 1 174 36 190 36 2 3 154 36 1 2 61 102 55 66 78 72 74 29 70 32 38 102 43 46 46 32 102 52 66 67 67 97 92 86 20 84 88 96 0 155 6 14 96 49 40 58 46 109 33 52 109 65 32 67 151 97 92 86 20 78 72 29 29 20 9 155 3 23 20 14 151 13 14 96 \012SVTCA[0]	/* SetFreedomAndProjectionVectorToAxis */\012SRP0[ ]	/* SetRefPoint0 */\012MIRP[01110]	/* MoveIndirectRelPt */\012MIRP[11110]	/* MoveIndirectRelPt */\012MDRP[11110]	/* MoveDirectRelPt */\012MDRP[01101]	/* MoveDirectRelPt */\012MDRP[11110]	/* MoveDirectRelPt */\012MIRP[01101]	/* MoveIndirectRelPt */\012SRP0[ ]	/* SetRefPoint0 */\012ALIGNRP[ ]	/* AlignRelativePt */\012SRP0[ ]	/* SetRefPoint0 */\012MDRP[11101]	/* MoveDirectRelPt */\012MDRP[01101]	/* MoveDirectRelPt */\012SRP0[ ]	/* SetRefPoint0 */\012MDRP[11101]	/* MoveDirectRelPt */\012MDRP[01101]	/* MoveDirectRelPt */\012SRP0[ ]	/* SetRefPoint0 */\012MIRP[11101]	/* MoveIndirectRelPt */\012ALIGNRP[ ]	/* AlignRelativePt */\012MDRP[11110]	/* MoveDirectRelPt */\012MIRP[11101]	/* MoveIndirectRelPt */\012MDRP[10101]	/* MoveDirectRelPt */\012MIRP[11101]	/* MoveIndirectRelPt */\012MDRP[01100]	/* MoveDirectRelPt */\012MDRP[11100]	/* MoveDirectRelPt */\012MDRP[01100]	/* MoveDirectRelPt */\012SVTCA[1]	/* SetFreedomAndProjectionVectorToAxis */\012SRP0[ ]	/* SetRefPoint0 */\012ALIGNRP[ ]	/* AlignRelativePt */\012MDRP[10100]	/* MoveDirectRelPt */\012MIRP[01101]	/* MoveIndirectRelPt */\012SRP0[ ]	/* SetRefPoint0 */\012MDRP[11100]	/* MoveDirectRelPt */\012MDRP[11110]	/* MoveDirectRelPt */\012MDRP[00100]	/* MoveDirectRelPt */\012MDRP[00110]	/* MoveDirectRelPt */\012MDRP[00100]	/* MoveDirectRelPt */\012SRP0[ ]	/* SetRefPoint0 */\012ALIGNRP[ ]	/* AlignRelativePt */\012SRP0[ ]	/* SetRefPoint0 */\012MDRP[11101]	/* MoveDirectRelPt */\012ALIGNRP[ ]	/* AlignRelativePt */\012MIRP[11101]	/* MoveIndirectRelPt */\012ALIGNRP[ ]	/* AlignRelativePt */\012SRP0[ ]	/* SetRefPoint0 */\012MDRP[11110]	/* MoveDirectRelPt */\012MIRP[01101]	/* MoveIndirectRelPt */\012SRP0[ ]	/* SetRefPoint0 */\012MDRP[11101]	/* MoveDirectRelPt */\012MDRP[00100]	/* MoveDirectRelPt */\012MDRP[11110]	/* MoveDirectRelPt */\012MDRP[00101]	/* MoveDirectRelPt */\012MDRP[00101]	/* MoveDirectRelPt */\012SRP0[ ]	/* SetRefPoint0 */\012MDRP[11100]	/* MoveDirectRelPt */\012MIRP[01101]	/* MoveIndirectRelPt */\012IUP[1]	/* InterpolateUntPts */\012IUP[0]	/* InterpolateUntPts */\012SDS[ ]	/* SetDeltaShiftInGState */\012DELTAP1[ ]	/* DeltaExceptionP1 */\012SDS[ ]	/* SetDeltaShiftInGState */\012DELTAP1[ ]	/* DeltaExceptionP1 */\012SDS[ ]	/* SetDeltaShiftInGState */\012DELTAP1[ ]	/* DeltaExceptionP1 */\012SDS[ ]	/* SetDeltaShiftInGState */\012DELTAP1[ ]	/* DeltaExceptionP1 */\012DELTAP1[ ]	/* DeltaExceptionP1 */\012SDS[ ]	/* SetDeltaShiftInGState */\012DELTAP2[ ]	/* DeltaExceptionP2 */\012SDS[ ]	/* SetDeltaShiftInGState */\012DELTAP2[ ]	/* DeltaExceptionP2 */\012SDS[ ]	/* SetDeltaShiftInGState */\012DELTAP2[ ]	/* DeltaExceptionP2 */\012SDS[ ]	/* SetDeltaShiftInGState */\012DELTAP2[ ]	/* DeltaExceptionP2 */";
};
width = 2048;
}
);
note = desert;
unicode = 1F3DC;
},
{
glyphname = stadium;
layers = (
{
layerId = "841189CE-7A88-49C9-B3DD-2B83509AFCBE";
paths = (
{
closed = 1;
nodes = (
"2048 1154 LINE",
"1855 1251 LINE",
"1855 1093 LINE",
"1788.333 1141 OFFCURVE",
"1680.333 1180.667 OFFCURVE",
"1531 1212 CURVE",
"1531 1274 LINE",
"1708 1274 LINE",
"1514 1371 LINE",
"1514 1215 LINE",
"1366.667 1245 OFFCURVE",
"1204.667 1260.333 OFFCURVE",
"1028 1261 CURVE",
"1028 1336 LINE",
"1205 1336 LINE",
"1011 1433 LINE",
"1011 1261 LINE",
"830.333 1261 OFFCURVE",
"663 1247.333 OFFCURVE",
"509 1220 CURVE",
"509 1294 LINE",
"686 1294 LINE",
"493 1390 LINE",
"493 1217 LINE",
"420.333 1203.667 OFFCURVE",
"357.667 1187.667 OFFCURVE",
"305 1169 CURVE",
"141 1251 LINE",
"141 1072 LINE",
"119 1046.667 OFFCURVE",
"108 1019 OFFCURVE",
"108 989 CURVE SMOOTH",
"108 945.667 OFFCURVE",
"133.333 907.333 OFFCURVE",
"184 874 CURVE",
"184 768 LINE",
"173 775 LINE",
"104 775 LINE",
"130 745 OFFCURVE",
"156.667 719 OFFCURVE",
"184 697 CURVE",
"184 597 LINE",
"173 604 LINE",
"104 604 LINE",
"130 574 OFFCURVE",
"156.667 548 OFFCURVE",
"184 526 CURVE",
"184 422 LINE",
"173 429 LINE",
"104 429 LINE",
"212 303 OFFCURVE",
"368 234.333 OFFCURVE",
"572 223 CURVE",
"572 303 LINE",
"528 307 OFFCURVE",
"483.667 313.667 OFFCURVE",
"439 323 CURVE",
"439 414 LINE",
"480.333 406 OFFCURVE",
"524.667 400.667 OFFCURVE",
"572 398 CURVE",
"572 478 LINE",
"522.667 482.667 OFFCURVE",
"478.333 489 OFFCURVE",
"439 497 CURVE",
"439 585 LINE",
"480.333 577 OFFCURVE",
"524.667 571.667 OFFCURVE",
"572 569 CURVE",
"572 649 LINE",
"528 653 OFFCURVE",
"483.667 659.667 OFFCURVE",
"439 669 CURVE",
"439 780 LINE",
"627.667 737.333 OFFCURVE",
"819.667 716 OFFCURVE",
"1015 716 CURVE SMOOTH",
"1229.667 716 OFFCURVE",
"1422.667 737.333 OFFCURVE",
"1594 780 CURVE",
"1594 666 LINE",
"1556.667 658.667 OFFCURVE",
"1516 653 OFFCURVE",
"1472 649 CURVE",
"1472 569 LINE",
"1514.667 571.667 OFFCURVE",
"1555.333 576.333 OFFCURVE",
"1594 583 CURVE",
"1594 495 LINE",
"1556.667 487.667 OFFCURVE",
"1516 482 OFFCURVE",
"1472 478 CURVE",
"1472 398 LINE",
"1514.667 400.667 OFFCURVE",
"1555.333 405.333 OFFCURVE",
"1594 412 CURVE",
"1594 320 LINE",
"1556.667 312.667 OFFCURVE",
"1516 307 OFFCURVE",
"1472 303 CURVE",
"1472 223 LINE",
"1676 234.333 OFFCURVE",
"1832 303 OFFCURVE",
"1940 429 CURVE",
"1872 429 LINE",
"1849 415 LINE",
"1849 517 LINE",
"1879.667 540.333 OFFCURVE",
"1910 569.333 OFFCURVE",
"1940 604 CURVE",
"1872 604 LINE",
"1849 590 LINE",
"1849 688 LINE",
"1879.667 711.333 OFFCURVE",
"1910 740.333 OFFCURVE",
"1940 775 CURVE",
"1872 775 LINE",
"1849 761 LINE",
"1849 880 LINE",
"1897.667 912.667 OFFCURVE",
"1922 949 OFFCURVE",
"1922 989 CURVE SMOOTH",
"1922 1022.333 OFFCURVE",
"1905 1053 OFFCURVE",
"1871 1081 CURVE",
"1871 1154 LINE",
"2048 1154 LINE"
);
},
{
closed = 1;
nodes = (
"2048 -410 LINE",
"2048 542 LINE",
"1895 542 LINE",
"1895 450 LINE",
"2002 450 LINE",
"1966 376.667 OFFCURVE",
"1886.667 311.333 OFFCURVE",
"1764 254 CURVE SMOOTH",
"1651.333 201.333 OFFCURVE",
"1550 175 OFFCURVE",
"1460 175 CURVE",
"1459.333 149.667 OFFCURVE",
"1439.667 126.333 OFFCURVE",
"1401 105 CURVE SMOOTH",
"1366.333 87 OFFCURVE",
"1327 75.333 OFFCURVE",
"1283 70 CURVE",
"1598 -410 LINE",
"2048 -410 LINE"
);
},
{
closed = 1;
nodes = (
"1423 164 LINE",
"1423 632 LINE SMOOTH",
"1423 648.667 OFFCURVE",
"1414.333 657 OFFCURVE",
"1397 657 CURVE",
"1274 642 LINE SMOOTH",
"1190.667 633.333 OFFCURVE",
"1105.667 629 OFFCURVE",
"1019 629 CURVE SMOOTH",
"931.667 629 OFFCURVE",
"846.667 633.333 OFFCURVE",
"764 642 CURVE SMOOTH",
"642 657 LINE",
"624 657 OFFCURVE",
"615 652 OFFCURVE",
"615 642 CURVE SMOOTH",
"615 164 LINE SMOOTH",
"615 153.333 OFFCURVE",
"620.333 145.667 OFFCURVE",
"631 141 CURVE",
"651.667 111.667 OFFCURVE",
"683.667 97 OFFCURVE",
"727 97 CURVE SMOOTH",
"803.667 97 OFFCURVE",
"848.667 117.667 OFFCURVE",
"862 159 CURVE",
"1176 159 LINE",
"1175.333 141 OFFCURVE",
"1191 124 OFFCURVE",
"1223 108 CURVE SMOOTH",
"1250.333 94.667 OFFCURVE",
"1274.333 88 OFFCURVE",
"1295 88 CURVE SMOOTH",
"1334.333 88 OFFCURVE",
"1371 105.333 OFFCURVE",
"1405 140 CURVE",
"1417 144 OFFCURVE",
"1423 152 OFFCURVE",
"1423 164 CURVE"
);
},
{
closed = 1;
nodes = (
"1529 -410 LINE",
"1192 124 LINE",
"849 124 LINE",
"507 -410 LINE",
"1529 -410 LINE"
);
},
{
closed = 1;
nodes = (
"648.667 74 OFFCURVE",
"588 108.333 OFFCURVE",
"572 177 CURVE",
"474.667 177 OFFCURVE",
"369.667 204.667 OFFCURVE",
"257 260 CURVE SMOOTH",
"139 318.667 OFFCURVE",
"69.333 382 OFFCURVE",
"48 450 CURVE",
"150 450 LINE",
"150 542 LINE",
"0 542 LINE",
"0 -410 LINE",
"446 -410 LINE",
"754 74 LINE",
"754 74 LINE SMOOTH"
);
},
{
closed = 1;
nodes = (
"1747.333 709.667 OFFCURVE",
"1701.667 692.667 OFFCURVE",
"1655 680 CURVE",
"1655 796 LINE",
"1708.333 811.333 OFFCURVE",
"1754 828.333 OFFCURVE",
"1792 847 CURVE",
"1792 731 LINE",
"1792 731 LINE"
);
},
{
closed = 1;
nodes = (
"1588 1157 LINE",
"1426 885 LINE",
"1358 897 OFFCURVE",
"1273.667 904.667 OFFCURVE",
"1173 908 CURVE",
"1264 1202 LINE",
"1391.333 1191.333 OFFCURVE",
"1499.333 1176.333 OFFCURVE",
"1588 1157 CURVE"
);
},
{
closed = 1;
nodes = (
"1747.333 538.667 OFFCURVE",
"1701.667 521.667 OFFCURVE",
"1655 509 CURVE",
"1655 597 LINE",
"1706.333 611 OFFCURVE",
"1752 629 OFFCURVE",
"1792 651 CURVE",
"1792 560 LINE",
"1792 560 LINE"
);
},
{
closed = 1;
nodes = (
"1747.333 363.667 OFFCURVE",
"1701.667 346.667 OFFCURVE",
"1655 334 CURVE",
"1655 426 LINE",
"1706.333 440 OFFCURVE",
"1752 458 OFFCURVE",
"1792 480 CURVE",
"1792 385 LINE",
"1792 385 LINE"
);
},
{
closed = 1;
nodes = (
"1215 1205 LINE",
"1144 909 LINE",
"1055.333 911 OFFCURVE",
"968.667 910.667 OFFCURVE",
"884 908 CURVE",
"839 1207 LINE",
"909.667 1211.667 OFFCURVE",
"969 1214 OFFCURVE",
"1017 1214 CURVE SMOOTH",
"1064.333 1214 OFFCURVE",
"1130.333 1211 OFFCURVE",
"1215 1205 CURVE"
);
},
{
closed = 1;
nodes = (
"1833 935.333 OFFCURVE",
"1714.333 876 OFFCURVE",
"1477 836 CURVE SMOOTH",
"1319.667 810 OFFCURVE",
"1166.333 797 OFFCURVE",
"1017 797 CURVE SMOOTH",
"863 797 OFFCURVE",
"709.333 809.667 OFFCURVE",
"556 835 CURVE SMOOTH",
"318.667 873.667 OFFCURVE",
"200 933.333 OFFCURVE",
"200 1014 CURVE SMOOTH",
"200 1071.333 OFFCURVE",
"271.333 1116.333 OFFCURVE",
"414 1149 CURVE",
"607 872 LINE",
"576 860 LINE",
"702 837.333 OFFCURVE",
"849 826 OFFCURVE",
"1017 826 CURVE SMOOTH",
"1224.333 826 OFFCURVE",
"1389.667 838.333 OFFCURVE",
"1513 863 CURVE",
"1448 881 LINE",
"1633 1146 LINE",
"1766.333 1114 OFFCURVE",
"1833 1070 OFFCURVE",
"1833 1014 CURVE",
"1833 1014 LINE"
);
},
{
closed = 1;
nodes = (
"759.667 902.333 OFFCURVE",
"684 892.667 OFFCURVE",
"628 878 CURVE",
"459 1160 LINE",
"548.333 1178.667 OFFCURVE",
"655.667 1193 OFFCURVE",
"781 1203 CURVE",
"855 907 LINE",
"855 907 LINE"
);
},
{
closed = 1;
nodes = (
"1399 631 LINE",
"1398 164 LINE",
"1361.333 130 OFFCURVE",
"1327 113 OFFCURVE",
"1295 113 CURVE SMOOTH",
"1263.667 113 OFFCURVE",
"1235.333 125 OFFCURVE",
"1210 149 CURVE",
"1201 152 LINE",
"1201 392 LINE SMOOTH",
"1201 400.667 OFFCURVE",
"1196.333 405 OFFCURVE",
"1187 405 CURVE SMOOTH",
"1168.333 405 OFFCURVE",
"1140.833 403.833 OFFCURVE",
"1104.5 401.5 CURVE SMOOTH",
"1068.167 399.167 OFFCURVE",
"1040.667 398 OFFCURVE",
"1022 398 CURVE SMOOTH",
"1002.667 398 OFFCURVE",
"974.167 399.167 OFFCURVE",
"936.5 401.5 CURVE SMOOTH",
"898.833 403.833 OFFCURVE",
"870.333 405 OFFCURVE",
"851 405 CURVE SMOOTH",
"841.667 405 OFFCURVE",
"837 400.667 OFFCURVE",
"837 392 CURVE SMOOTH",
"837 152 LINE",
"795.667 132 OFFCURVE",
"759 122 OFFCURVE",
"727 122 CURVE SMOOTH",
"691 122 OFFCURVE",
"665.333 134 OFFCURVE",
"650 158 CURVE",
"640 164 LINE",
"640 632 LINE",
"780.667 613.333 OFFCURVE",
"907 604 OFFCURVE",
"1019 604 CURVE SMOOTH",
"1109.667 604 OFFCURVE",
"1195.333 608.333 OFFCURVE",
"1276 617 CURVE SMOOTH",
"1397 632 LINE",
"1399 631 LINE"
);
},
{
closed = 1;
nodes = (
"222 1136 OFFCURVE",
"184.333 1113.667 OFFCURVE",
"157 1089 CURVE",
"157 1156 LINE",
"270 1156 LINE",
"270 1156 LINE"
);
},
{
closed = 1;
nodes = (
"330 698 OFFCURVE",
"284.333 715.667 OFFCURVE",
"241 737 CURVE",
"241 843 LINE",
"278.333 825.667 OFFCURVE",
"324 809.667 OFFCURVE",
"378 795 CURVE",
"378 684 LINE",
"378 684 LINE"
);
},
{
closed = 1;
nodes = (
"333.333 524.667 OFFCURVE",
"287.667 542.667 OFFCURVE",
"241 566 CURVE",
"241 658 LINE",
"281.667 633.333 OFFCURVE",
"327.333 614 OFFCURVE",
"378 600 CURVE",
"378 512 LINE",
"378 512 LINE"
);
},
{
closed = 1;
nodes = (
"330 352 OFFCURVE",
"284.333 369.667 OFFCURVE",
"241 391 CURVE",
"241 487 LINE",
"281.667 462.333 OFFCURVE",
"327.333 443 OFFCURVE",
"378 429 CURVE",
"378 338 LINE",
"378 338 LINE"
);
},
{
closed = 1;
nodes = (
"1673 948 LINE",
"1661 1002 LINE",
"1623 964 LINE",
"1673 948 LINE"
);
},
{
closed = 1;
nodes = (
"1404 1081 LINE",
"1349 1090 LINE",
"1340 1048 LINE",
"1400 1044 LINE",
"1404 1081 LINE"
);
},
{
closed = 1;
nodes = (
"1058 1060 LINE",
"1058 1103 LINE",
"985 1103 LINE",
"985 1060 LINE",
"1058 1060 LINE"
);
},
{
closed = 1;
nodes = (
"715 1048 LINE",
"706 1090 LINE",
"651 1081 LINE",
"655 1044 LINE",
"715 1048 LINE"
);
},
{
closed = 1;
nodes = (
"1150 474.333 OFFCURVE",
"1136 499.667 OFFCURVE",
"1108 519 CURVE SMOOTH",
"1083.333 535.667 OFFCURVE",
"1054.333 544 OFFCURVE",
"1021 544 CURVE SMOOTH",
"986.333 544 OFFCURVE",
"956.667 536 OFFCURVE",
"932 520 CURVE SMOOTH",
"903.333 500.667 OFFCURVE",
"889 475 OFFCURVE",
"889 443 CURVE",
"1150 443 LINE",
"1150 443 LINE"
);
},
{
closed = 1;
nodes = (
"439 956 LINE",
"419 994 LINE",
"388 948 LINE",
"439 956 LINE"
);
}
);
userData = {
assembly = "NPUSHB[ ]	/* 50 values pushed */\01295 94 93 89 88 87 83 82 81 93 87 81 81 87 93 3 99 77 0 1 99 113 161 173 173 178 24 33 28 22 36 31 24 169 157 175 17 17 158 11 6 113 198 209 186 188 166 168 6 197 \012PUSHW[ ]	/* 5 values pushed */\012268 193 189 275 275 \012PUSHB[ ]	/* 6 values pushed */\012199 212 210 185 181 165 \012PUSHW[ ]	/* 1 value pushed */\012270 \012PUSHB[ ]	/* 8 values pushed */\012163 191 9 201 189 4 113 113 \012PUSHW[ ]	/* 1 value pushed */\012295 \012PUSHB[ ]	/* 4 values pushed */\012245 246 77 148 \012PUSHW[ ]	/* 1 value pushed */\012291 \012PUSHB[ ]	/* 4 values pushed */\012197 201 74 148 \012PUSHW[ ]	/* 1 value pushed */\012261 \012PUSHB[ ]	/* 3 values pushed */\012255 250 41 \012PUSHW[ ]	/* 1 value pushed */\012283 \012PUSHB[ ]	/* 5 values pushed */\012151 228 1 228 221 \012PUSHW[ ]	/* 1 value pushed */\012282 \012NPUSHB[ ]	/* 19 values pushed */\012151 238 1 0 238 140 215 129 221 41 51 45 57 54 54 48 41 252 72 \012PUSHW[ ]	/* 1 value pushed */\012258 \012PUSHB[ ]	/* 3 values pushed */\01267 67 72 \012PUSHW[ ]	/* 1 value pushed */\012264 \012PUSHB[ ]	/* 5 values pushed */\01262 62 72 148 148 \012PUSHW[ ]	/* 1 value pushed */\012294 \012NPUSHB[ ]	/* 9 values pushed */\01259 150 148 19 111 113 113 148 151 \012PUSHW[ ]	/* 1 value pushed */\012294 \012PUSHB[ ]	/* 3 values pushed */\012142 147 14 \012PUSHW[ ]	/* 1 value pushed */\012294 \012NPUSHB[ ]	/* 13 values pushed */\012198 213 209 3 186 197 166 168 192 3 188 193 195 \012PUSHW[ ]	/* 3 values pushed */\012277 275 275 \012NPUSHB[ ]	/* 9 values pushed */\012183 188 186 183 87 88 77 163 247 \012PUSHW[ ]	/* 4 values pushed */\012272 279 269 292 \012NPUSHB[ ]	/* 10 values pushed */\0127 205 90 86 183 195 205 39 219 135 \012PUSHW[ ]	/* 2 values pushed */\012287 283 \012NPUSHB[ ]	/* 13 values pushed */\012233 123 143 145 225 125 145 106 21 242 118 102 145 \012PUSHW[ ]	/* 1 value pushed */\012294 \012SVTCA[0]	/* SetFreedomAndProjectionVectorToAxis */\012SRP0[ ]	/* SetRefPoint0 */\012MDRP[10101]	/* MoveDirectRelPt */\012MDRP[10100]	/* MoveDirectRelPt */\012MDRP[10110]	/* MoveDirectRelPt */\012MDRP[10101]	/* MoveDirectRelPt */\012MDRP[10100]	/* MoveDirectRelPt */\012MDRP[00110]	/* MoveDirectRelPt */\012SRP0[ ]	/* SetRefPoint0 */\012MDRP[10110]	/* MoveDirectRelPt */\012MDRP[00101]	/* MoveDirectRelPt */\012SRP0[ ]	/* SetRefPoint0 */\012MDRP[10100]	/* MoveDirectRelPt */\012MDRP[10101]	/* MoveDirectRelPt */\012MDRP[11101]	/* MoveDirectRelPt */\012MDRP[11110]	/* MoveDirectRelPt */\012MDRP[11101]	/* MoveDirectRelPt */\012MDRP[11100]	/* MoveDirectRelPt */\012MDRP[01101]	/* MoveDirectRelPt */\012MDRP[10110]	/* MoveDirectRelPt */\012MDRP[11101]	/* MoveDirectRelPt */\012MDRP[11110]	/* MoveDirectRelPt */\012MDRP[11100]	/* MoveDirectRelPt */\012MDRP[11101]	/* MoveDirectRelPt */\012ALIGNRP[ ]	/* AlignRelativePt */\012SRP1[ ]	/* SetRefPoint1 */\012SLOOP[ ]	/* SetLoopVariable */\012IP[ ]	/* InterpolatePts */\012MDRP[11100]	/* MoveDirectRelPt */\012MDRP[01101]	/* MoveDirectRelPt */\012SRP0[ ]	/* SetRefPoint0 */\012MDRP[11110]	/* MoveDirectRelPt */\012MDRP[00101]	/* MoveDirectRelPt */\012SRP2[ ]	/* SetRefPoint2 */\012IP[ ]	/* InterpolatePts */\012MDAP[1]	/* MoveDirectAbsPt */\012MDRP[00101]	/* MoveDirectRelPt */\012SRP0[ ]	/* SetRefPoint0 */\012MDRP[00101]	/* MoveDirectRelPt */\012SRP1[ ]	/* SetRefPoint1 */\012SLOOP[ ]	/* SetLoopVariable */\012IP[ ]	/* InterpolatePts */\012MDRP[00101]	/* MoveDirectRelPt */\012SRP1[ ]	/* SetRefPoint1 */\012SLOOP[ ]	/* SetLoopVariable */\012IP[ ]	/* InterpolatePts */\012SRP0[ ]	/* SetRefPoint0 */\012MIRP[11110]	/* MoveIndirectRelPt */\012ALIGNRP[ ]	/* AlignRelativePt */\012SRP0[ ]	/* SetRefPoint0 */\012MIRP[11110]	/* MoveIndirectRelPt */\012ALIGNRP[ ]	/* AlignRelativePt */\012SRP0[ ]	/* SetRefPoint0 */\012MDRP[11101]	/* MoveDirectRelPt */\012MDRP[00110]	/* MoveDirectRelPt */\012SRP0[ ]	/* SetRefPoint0 */\012MDRP[11101]	/* MoveDirectRelPt */\012MDRP[00110]	/* MoveDirectRelPt */\012SVTCA[1]	/* SetFreedomAndProjectionVectorToAxis */\012SRP0[ ]	/* SetRefPoint0 */\012ALIGNRP[ ]	/* AlignRelativePt */\012SRP0[ ]	/* SetRefPoint0 */\012MDRP[10100]	/* MoveDirectRelPt */\012ALIGNRP[ ]	/* AlignRelativePt */\012SRP0[ ]	/* SetRefPoint0 */\012MDRP[01101]	/* MoveDirectRelPt */\012SRP0[ ]	/* SetRefPoint0 */\012ALIGNRP[ ]	/* AlignRelativePt */\012SRP0[ ]	/* SetRefPoint0 */\012MDRP[01101]	/* MoveDirectRelPt */\012SRP0[ ]	/* SetRefPoint0 */\012MDRP[11101]	/* MoveDirectRelPt */\012MDRP[11101]	/* MoveDirectRelPt */\012ALIGNRP[ ]	/* AlignRelativePt */\012ALIGNRP[ ]	/* AlignRelativePt */\012SRP0[ ]	/* SetRefPoint0 */\012MDRP[10101]	/* MoveDirectRelPt */\012ALIGNRP[ ]	/* AlignRelativePt */\012ALIGNRP[ ]	/* AlignRelativePt */\012SRP0[ ]	/* SetRefPoint0 */\012MDRP[10100]	/* MoveDirectRelPt */\012MDRP[00101]	/* MoveDirectRelPt */\012MDRP[11100]	/* MoveDirectRelPt */\012MDRP[00101]	/* MoveDirectRelPt */\012MDRP[11110]	/* MoveDirectRelPt */\012SDS[ ]	/* SetDeltaShiftInGState */\012DELTAP1[ ]	/* DeltaExceptionP1 */\012MDRP[00100]	/* MoveDirectRelPt */\012SRP0[ ]	/* SetRefPoint0 */\012MDRP[11110]	/* MoveDirectRelPt */\012DELTAP1[ ]	/* DeltaExceptionP1 */\012MDRP[00100]	/* MoveDirectRelPt */\012SRP0[ ]	/* SetRefPoint0 */\012MDRP[11101]	/* MoveDirectRelPt */\012ALIGNRP[ ]	/* AlignRelativePt */\012ALIGNRP[ ]	/* AlignRelativePt */\012SRP0[ ]	/* SetRefPoint0 */\012MDRP[11110]	/* MoveDirectRelPt */\012MDRP[11101]	/* MoveDirectRelPt */\012MDRP[00110]	/* MoveDirectRelPt */\012IP[ ]	/* InterpolatePts */\012SRP0[ ]	/* SetRefPoint0 */\012MDRP[10110]	/* MoveDirectRelPt */\012MDRP[10101]	/* MoveDirectRelPt */\012MDRP[00110]	/* MoveDirectRelPt */\012SRP0[ ]	/* SetRefPoint0 */\012ALIGNRP[ ]	/* AlignRelativePt */\012SRP0[ ]	/* SetRefPoint0 */\012MDRP[10110]	/* MoveDirectRelPt */\012MDRP[01101]	/* MoveDirectRelPt */\012SRP1[ ]	/* SetRefPoint1 */\012SLOOP[ ]	/* SetLoopVariable */\012IP[ ]	/* InterpolatePts */\012IP[ ]	/* InterpolatePts */\012MDAP[1]	/* MoveDirectAbsPt */\012SRP0[ ]	/* SetRefPoint0 */\012MDRP[00110]	/* MoveDirectRelPt */\012IP[ ]	/* InterpolatePts */\012SRP1[ ]	/* SetRefPoint1 */\012SLOOP[ ]	/* SetLoopVariable */\012IP[ ]	/* InterpolatePts */\012SRP0[ ]	/* SetRefPoint0 */\012MDRP[10100]	/* MoveDirectRelPt */\012ALIGNRP[ ]	/* AlignRelativePt */\012MDRP[00101]	/* MoveDirectRelPt */\012ALIGNRP[ ]	/* AlignRelativePt */\012SRP0[ ]	/* SetRefPoint0 */\012MDRP[11101]	/* MoveDirectRelPt */\012ALIGNRP[ ]	/* AlignRelativePt */\012ALIGNRP[ ]	/* AlignRelativePt */\012MDRP[11100]	/* MoveDirectRelPt */\012ALIGNRP[ ]	/* AlignRelativePt */\012ALIGNRP[ ]	/* AlignRelativePt */\012MDRP[10110]	/* MoveDirectRelPt */\012ALIGNRP[ ]	/* AlignRelativePt */\012ALIGNRP[ ]	/* AlignRelativePt */\012SRP0[ ]	/* SetRefPoint0 */\012MDRP[11101]	/* MoveDirectRelPt */\012ALIGNRP[ ]	/* AlignRelativePt */\012SRP0[ ]	/* SetRefPoint0 */\012ALIGNRP[ ]	/* AlignRelativePt */\012SRP0[ ]	/* SetRefPoint0 */\012MDRP[10100]	/* MoveDirectRelPt */\012MDRP[10101]	/* MoveDirectRelPt */\012MDRP[00101]	/* MoveDirectRelPt */\012SRP1[ ]	/* SetRefPoint1 */\012SRP2[ ]	/* SetRefPoint2 */\012SLOOP[ ]	/* SetLoopVariable */\012IP[ ]	/* InterpolatePts */\012MDAP[1]	/* MoveDirectAbsPt */\012MDAP[1]	/* MoveDirectAbsPt */\012MDAP[1]	/* MoveDirectAbsPt */\012SRP0[ ]	/* SetRefPoint0 */\012MDRP[00101]	/* MoveDirectRelPt */\012MDRP[00101]	/* MoveDirectRelPt */\012SRP0[ ]	/* SetRefPoint0 */\012MDRP[00101]	/* MoveDirectRelPt */\012MDRP[00101]	/* MoveDirectRelPt */\012SRP0[ ]	/* SetRefPoint0 */\012MDRP[00101]	/* MoveDirectRelPt */\012MDRP[00101]	/* MoveDirectRelPt */\012IUP[1]	/* InterpolateUntPts */\012IUP[0]	/* InterpolateUntPts */";
};
width = 2048;
}
);
note = stadium;
unicode = 1F3DF;
},
{
glyphname = factory;
layers = (
{
layerId = "841189CE-7A88-49C9-B3DD-2B83509AFCBE";
paths = (
{
closed = 1;
nodes = (
"2048 -410 LINE",
"2048 543 LINE",
"1859 543 LINE",
"1859 1441 LINE",
"1506 1441 LINE",
"1335 988 LINE",
"956 1232 LINE",
"956 988 LINE",
"567 1232 LINE",
"567 988 LINE",
"176 1232 LINE",
"176 543 LINE",
"0 543 LINE",
"0 -410 LINE",
"2048 -410 LINE"
);
},
{
closed = 1;
nodes = (
"1818 199 LINE",
"218 199 LINE",
"218 1146 LINE",
"612 906 LINE",
"612 1146 LINE",
"1001 906 LINE",
"1001 1146 LINE",
"1359 906 LINE",
"1546 1407 LINE",
"1818 1407 LINE",
"1818 199 LINE"
);
},
{
closed = 1;
nodes = (
"1640 421 LINE",
"1640 753 LINE",
"1284 753 LINE",
"1284 421 LINE",
"1640 421 LINE"
);
},
{
closed = 1;
nodes = (
"1194 421 LINE",
"1194 753 LINE",
"838 753 LINE",
"838 421 LINE",
"1194 421 LINE"
);
},
{
closed = 1;
nodes = (
"749 421 LINE",
"749 753 LINE",
"393 753 LINE",
"393 421 LINE",
"749 421 LINE"
);
}
);
userData = {
assembly = "NPUSHB[ ]	/* 90 values pushed */\01221 118 5 19 118 7 17 118 9 5 7 9 9 7 5 3 10 16 23 14 118 12 13 13 37 27 156 25 31 156 29 35 156 199 33 1 151 33 167 33 2 0 33 23 118 3 2 2 36 7 118 19 19 21 9 118 17 17 21 16 118 10 18 118 8 8 20 118 6 6 22 118 4 5 118 21 30 26 34 156 29 25 33 23 13 2 151 1 14 36 \012SVTCA[0]	/* SetFreedomAndProjectionVectorToAxis */\012SRP0[ ]	/* SetRefPoint0 */\012MIRP[01110]	/* MoveIndirectRelPt */\012MIRP[11110]	/* MoveIndirectRelPt */\012ALIGNRP[ ]	/* AlignRelativePt */\012MDRP[01101]	/* MoveDirectRelPt */\012MDRP[11100]	/* MoveDirectRelPt */\012ALIGNRP[ ]	/* AlignRelativePt */\012ALIGNRP[ ]	/* AlignRelativePt */\012MIRP[11101]	/* MoveIndirectRelPt */\012ALIGNRP[ ]	/* AlignRelativePt */\012ALIGNRP[ ]	/* AlignRelativePt */\012MDRP[11110]	/* MoveDirectRelPt */\012MIRP[01101]	/* MoveIndirectRelPt */\012MDRP[11101]	/* MoveDirectRelPt */\012MIRP[01101]	/* MoveIndirectRelPt */\012ALIGNRP[ ]	/* AlignRelativePt */\012SRP0[ ]	/* SetRefPoint0 */\012MIRP[01101]	/* MoveIndirectRelPt */\012ALIGNRP[ ]	/* AlignRelativePt */\012SRP0[ ]	/* SetRefPoint0 */\012MIRP[01101]	/* MoveIndirectRelPt */\012MDRP[11110]	/* MoveDirectRelPt */\012MIRP[01101]	/* MoveIndirectRelPt */\012SRP0[ ]	/* SetRefPoint0 */\012ALIGNRP[ ]	/* AlignRelativePt */\012SRP0[ ]	/* SetRefPoint0 */\012MIRP[01101]	/* MoveIndirectRelPt */\012SRP0[ ]	/* SetRefPoint0 */\012ALIGNRP[ ]	/* AlignRelativePt */\012SRP0[ ]	/* SetRefPoint0 */\012MIRP[01101]	/* MoveIndirectRelPt */\012SVTCA[1]	/* SetFreedomAndProjectionVectorToAxis */\012SRP0[ ]	/* SetRefPoint0 */\012ALIGNRP[ ]	/* AlignRelativePt */\012SRP0[ ]	/* SetRefPoint0 */\012MDRP[11101]	/* MoveDirectRelPt */\012MIRP[11101]	/* MoveIndirectRelPt */\012MDRP[11110]	/* MoveDirectRelPt */\012SDS[ ]	/* SetDeltaShiftInGState */\012DELTAP1[ ]	/* DeltaExceptionP1 */\012DELTAP1[ ]	/* DeltaExceptionP1 */\012MIRP[11101]	/* MoveIndirectRelPt */\012MDRP[11110]	/* MoveDirectRelPt */\012MIRP[11101]	/* MoveIndirectRelPt */\012MDRP[11110]	/* MoveDirectRelPt */\012MIRP[01101]	/* MoveIndirectRelPt */\012SRP0[ ]	/* SetRefPoint0 */\012ALIGNRP[ ]	/* AlignRelativePt */\012SRP0[ ]	/* SetRefPoint0 */\012MDRP[11101]	/* MoveDirectRelPt */\012MIRP[01101]	/* MoveIndirectRelPt */\012SRP1[ ]	/* SetRefPoint1 */\012IP[ ]	/* InterpolatePts */\012IP[ ]	/* InterpolatePts */\012SLOOP[ ]	/* SetLoopVariable */\012IP[ ]	/* InterpolatePts */\012MDAP[1]	/* MoveDirectAbsPt */\012MDAP[1]	/* MoveDirectAbsPt */\012MDAP[1]	/* MoveDirectAbsPt */\012SRP0[ ]	/* SetRefPoint0 */\012MIRP[01101]	/* MoveIndirectRelPt */\012SRP0[ ]	/* SetRefPoint0 */\012MIRP[01101]	/* MoveIndirectRelPt */\012SRP0[ ]	/* SetRefPoint0 */\012MIRP[01101]	/* MoveIndirectRelPt */\012IUP[1]	/* InterpolateUntPts */\012IUP[0]	/* InterpolateUntPts */";
};
width = 2048;
}
);
note = factory;
unicode = 1F3ED;
},
{
glyphname = cat;
layers = (
{
layerId = "841189CE-7A88-49C9-B3DD-2B83509AFCBE";
paths = (
{
closed = 1;
nodes = (
"1485 1053.333 OFFCURVE",
"1474 1074.333 OFFCURVE",
"1452 1101 CURVE SMOOTH",
"1448 1105.667 OFFCURVE",
"1436.667 1129.333 OFFCURVE",
"1418 1172 CURVE SMOOTH",
"1407.333 1197.333 OFFCURVE",
"1387.667 1212.333 OFFCURVE",
"1359 1217 CURVE",
"1363 1227 OFFCURVE",
"1365 1236.333 OFFCURVE",
"1365 1245 CURVE SMOOTH",
"1365 1257.667 OFFCURVE",
"1360 1273.667 OFFCURVE",
"1350 1293 CURVE",
"1321.333 1279.667 OFFCURVE",
"1302.667 1262 OFFCURVE",
"1294 1240 CURVE",
"1283.333 1263.333 OFFCURVE",
"1271.667 1279.667 OFFCURVE",
"1259 1289 CURVE",
"1239.667 1258.333 OFFCURVE",
"1230 1235.667 OFFCURVE",
"1230 1221 CURVE SMOOTH",
"1230 1214.333 OFFCURVE",
"1230.667 1207.333 OFFCURVE",
"1232 1200 CURVE",
"1204.667 1186.667 OFFCURVE",
"1175 1154.333 OFFCURVE",
"1143 1103 CURVE",
"1120.333 1063 OFFCURVE",
"1097.333 1023.333 OFFCURVE",
"1074 984 CURVE SMOOTH",
"1052 948.667 OFFCURVE",
"1013.333 899.167 OFFCURVE",
"958 835.5 CURVE SMOOTH",
"902.667 771.833 OFFCURVE",
"863 720.333 OFFCURVE",
"839 681 CURVE SMOOTH",
"726.333 500.333 OFFCURVE",
"670 323 OFFCURVE",
"670 149 CURVE",
"620.667 153.667 OFFCURVE",
"580.333 170 OFFCURVE",
"549 198 CURVE SMOOTH",
"515 228 OFFCURVE",
"498 266.667 OFFCURVE",
"498 314 CURVE SMOOTH",
"498 336.667 OFFCURVE",
"509.333 374.333 OFFCURVE",
"532 427 CURVE SMOOTH",
"554.667 479.667 OFFCURVE",
"566 524.667 OFFCURVE",
"566 562 CURVE SMOOTH",
"566 624.667 OFFCURVE",
"543.5 679.5 OFFCURVE",
"498.5 726.5 CURVE SMOOTH",
"453.5 773.5 OFFCURVE",
"400 797 OFFCURVE",
"338 797 CURVE SMOOTH",
"317.333 797 OFFCURVE",
"307 787.667 OFFCURVE",
"307 769 CURVE SMOOTH",
"307 757.667 OFFCURVE",
"327.333 745.333 OFFCURVE",
"368 732 CURVE SMOOTH",
"456.667 702.667 OFFCURVE",
"501 648.333 OFFCURVE",
"501 569 CURVE SMOOTH",
"501 545.667 OFFCURVE",
"489.667 506 OFFCURVE",
"467 450 CURVE SMOOTH",
"444.333 394 OFFCURVE",
"433 347.333 OFFCURVE",
"433 310 CURVE SMOOTH",
"433 249.333 OFFCURVE",
"458.333 197 OFFCURVE",
"509 153 CURVE SMOOTH",
"554.333 114.333 OFFCURVE",
"611.333 88.667 OFFCURVE",
"680 76 CURVE",
"736 -3.333 OFFCURVE",
"803.333 -43 OFFCURVE",
"882 -43 CURVE",
"895.333 -55 OFFCURVE",
"923.333 -61 OFFCURVE",
"966 -61 CURVE SMOOTH",
"1066 -61 OFFCURVE",
"1116 -44.333 OFFCURVE",
"1116 -11 CURVE SMOOTH",
"1116 -1.667 OFFCURVE",
"1113.167 7.5 OFFCURVE",
"1107.5 16.5 CURVE SMOOTH",
"1101.833 25.5 OFFCURVE",
"1099 31 OFFCURVE",
"1099 33 CURVE SMOOTH",
"1099 39.667 OFFCURVE",
"1102.167 58.167 OFFCURVE",
"1108.5 88.5 CURVE SMOOTH",
"1114.833 118.833 OFFCURVE",
"1118 142.333 OFFCURVE",
"1118 159 CURVE SMOOTH",
"1118 177.667 OFFCURVE",
"1111.667 246.667 OFFCURVE",
"1099 366 CURVE SMOOTH",
"1097.667 380.667 OFFCURVE",
"1090 404 OFFCURVE",
"1076 436 CURVE SMOOTH",
"1062.667 466 OFFCURVE",
"1056 489.667 OFFCURVE",
"1056 507 CURVE SMOOTH",
"1056 513 OFFCURVE",
"1056.667 517.333 OFFCURVE",
"1058 520 CURVE",
"1100.667 433.333 OFFCURVE",
"1122 327.667 OFFCURVE",
"1122 203 CURVE SMOOTH",
"1122 183.667 OFFCURVE",
"1121.667 154.833 OFFCURVE",
"1121 116.5 CURVE SMOOTH",
"1120.333 78.167 OFFCURVE",
"1120 49.333 OFFCURVE",
"1120 30 CURVE SMOOTH",
"1120 -4 OFFCURVE",
"1123.333 -27.667 OFFCURVE",
"1130 -41 CURVE SMOOTH",
"1140 -60.333 OFFCURVE",
"1160.333 -70 OFFCURVE",
"1191 -70 CURVE SMOOTH",
"1233.667 -70 OFFCURVE",
"1255 -61 OFFCURVE",
"1255 -43 CURVE SMOOTH",
"1255 -27.667 OFFCURVE",
"1238.333 -13.333 OFFCURVE",
"1205 0 CURVE",
"1315 0 LINE",
"1316.333 8 OFFCURVE",
"1317 13.667 OFFCURVE",
"1317 17 CURVE SMOOTH",
"1317 27.667 OFFCURVE",
"1309 35.833 OFFCURVE",
"1293 41.5 CURVE SMOOTH",
"1277 47.167 OFFCURVE",
"1269 60.333 OFFCURVE",
"1269 81 CURVE SMOOTH",
"1269 93 OFFCURVE",
"1268 111.333 OFFCURVE",
"1266 136 CURVE SMOOTH",
"1264 160.667 OFFCURVE",
"1263 179 OFFCURVE",
"1263 191 CURVE SMOOTH",
"1263 209 OFFCURVE",
"1264.167 235.667 OFFCURVE",
"1266.5 271 CURVE SMOOTH",
"1268.833 306.333 OFFCURVE",
"1270 333 OFFCURVE",
"1270 351 CURVE SMOOTH",
"1270 385 OFFCURVE",
"1274 435.333 OFFCURVE",
"1282 502 CURVE SMOOTH",
"1290 568.667 OFFCURVE",
"1294 619 OFFCURVE",
"1294 653 CURVE SMOOTH",
"1294 689.667 OFFCURVE",
"1283.5 726.333 OFFCURVE",
"1262.5 763 CURVE SMOOTH",
"1241.5 799.667 OFFCURVE",
"1231 832 OFFCURVE",
"1231 860 CURVE SMOOTH",
"1231 876 OFFCURVE",
"1237 891.833 OFFCURVE",
"1249 907.5 CURVE SMOOTH",
"1261 923.167 OFFCURVE",
"1275 931.667 OFFCURVE",
"1291 933 CURVE SMOOTH",
"1433 945 LINE",
"1467.667 977 OFFCURVE",
"1485 1008 OFFCURVE",
"1485 1038 CURVE",
"1485 1038 LINE"
);
},
{
closed = 1;
nodes = (
"1407 1104 OFFCURVE",
"1395.667 1096 OFFCURVE",
"1385 1096 CURVE SMOOTH",
"1375 1096 OFFCURVE",
"1364.667 1100.667 OFFCURVE",
"1354 1110 CURVE",
"1365.333 1126.667 OFFCURVE",
"1375.667 1135 OFFCURVE",
"1385 1135 CURVE SMOOTH",
"1395 1135 OFFCURVE",
"1406.333 1130 OFFCURVE",
"1419 1120 CURVE",
"1419 1120 LINE"
);
},
{
closed = 1;
nodes = (
"1478 1040 LINE",
"1469 1015 LINE",
"1457 1039 LINE",
"1478 1040 LINE"
);
},
{
closed = 1;
nodes = (
"1240 916 LINE",
"1221 865 LINE",
"1146.333 921.667 OFFCURVE",
"1102.333 960.333 OFFCURVE",
"1089 981 CURVE",
"1117 1034 LINE",
"1127 1007.333 OFFCURVE",
"1146.667 982.333 OFFCURVE",
"1176 959 CURVE",
"1197.333 944.333 OFFCURVE",
"1218.667 930 OFFCURVE",
"1240 916 CURVE"
);
},
{
closed = 1;
nodes = (
"1266 565 OFFCURVE",
"1256 523.667 OFFCURVE",
"1236 469 CURVE",
"1250 565 OFFCURVE",
"1259.333 637.333 OFFCURVE",
"1264 686 CURVE",
"1265.333 665.333 OFFCURVE",
"1266 634.333 OFFCURVE",
"1266 593 CURVE",
"1266 593 LINE"
);
},
{
closed = 1;
nodes = (
"1402 1124.333 OFFCURVE",
"1397.333 1129 OFFCURVE",
"1388 1129 CURVE SMOOTH",
"1378 1129 OFFCURVE",
"1373 1124.333 OFFCURVE",
"1373 1115 CURVE SMOOTH",
"1373 1105 OFFCURVE",
"1378 1100 OFFCURVE",
"1388 1100 CURVE SMOOTH",
"1397.333 1100 OFFCURVE",
"1402 1105 OFFCURVE",
"1402 1115 CURVE",
"1402 1115 LINE"
);
}
);
userData = {
assembly = "NPUSHB[ ]	/* 113 values pushed */\01221 15 35 130 126 9 6 116 115 0 107 132 136 111 4 0 89 91 93 95 101 97 99 2 0 216 123 232 123 2 1 123 118 6 186 41 1 138 41 1 90 41 1 58 41 1 2 8 41 1 1 234 41 250 41 2 2 41 35 45 51 72 48 1 1 48 32 216 26 1 0 26 24 32 45 57 80 76 68 64 73 76 61 140 66 70 80 57 53 128 37 130 3 125 24 28 53 140 122 125 109 138 134 113 115 117 6 3 101 97 93 89 95 \012SVTCA[0]	/* SetFreedomAndProjectionVectorToAxis */\012MDAP[1]	/* MoveDirectAbsPt */\012MDRP[00101]	/* MoveDirectRelPt */\012MDRP[01101]	/* MoveDirectRelPt */\012MDRP[00101]	/* MoveDirectRelPt */\012MDRP[00101]	/* MoveDirectRelPt */\012MDRP[11101]	/* MoveDirectRelPt */\012SLOOP[ ]	/* SetLoopVariable */\012IP[ ]	/* InterpolatePts */\012MDRP[10100]	/* MoveDirectRelPt */\012MDRP[00100]	/* MoveDirectRelPt */\012SRP0[ ]	/* SetRefPoint0 */\012MDRP[10100]	/* MoveDirectRelPt */\012MDRP[10100]	/* MoveDirectRelPt */\012MDRP[00101]	/* MoveDirectRelPt */\012SRP1[ ]	/* SetRefPoint1 */\012SLOOP[ ]	/* SetLoopVariable */\012IP[ ]	/* InterpolatePts */\012SRP0[ ]	/* SetRefPoint0 */\012MDRP[10101]	/* MoveDirectRelPt */\012MDRP[11101]	/* MoveDirectRelPt */\012MDRP[11100]	/* MoveDirectRelPt */\012MDRP[01101]	/* MoveDirectRelPt */\012SVTCA[1]	/* SetFreedomAndProjectionVectorToAxis */\012SRP0[ ]	/* SetRefPoint0 */\012MDRP[10110]	/* MoveDirectRelPt */\012MDRP[11101]	/* MoveDirectRelPt */\012MDRP[10100]	/* MoveDirectRelPt */\012MDRP[11101]	/* MoveDirectRelPt */\012MDRP[01100]	/* MoveDirectRelPt */\012SRP0[ ]	/* SetRefPoint0 */\012MDRP[11110]	/* MoveDirectRelPt */\012MDRP[00101]	/* MoveDirectRelPt */\012MDRP[11101]	/* MoveDirectRelPt */\012MDRP[10110]	/* MoveDirectRelPt */\012MDRP[10101]	/* MoveDirectRelPt */\012MDRP[00101]	/* MoveDirectRelPt */\012SDS[ ]	/* SetDeltaShiftInGState */\012DELTAP1[ ]	/* DeltaExceptionP1 */\012SRP0[ ]	/* SetRefPoint0 */\012MDRP[11110]	/* MoveDirectRelPt */\012SDS[ ]	/* SetDeltaShiftInGState */\012DELTAP2[ ]	/* DeltaExceptionP2 */\012MDRP[01100]	/* MoveDirectRelPt */\012SRP0[ ]	/* SetRefPoint0 */\012MDRP[11110]	/* MoveDirectRelPt */\012MDRP[00100]	/* MoveDirectRelPt */\012SDS[ ]	/* SetDeltaShiftInGState */\012DELTAP1[ ]	/* DeltaExceptionP1 */\012SDS[ ]	/* SetDeltaShiftInGState */\012DELTAP2[ ]	/* DeltaExceptionP2 */\012SDS[ ]	/* SetDeltaShiftInGState */\012DELTAP2[ ]	/* DeltaExceptionP2 */\012DELTAP2[ ]	/* DeltaExceptionP2 */\012DELTAP2[ ]	/* DeltaExceptionP2 */\012DELTAP2[ ]	/* DeltaExceptionP2 */\012MDRP[10101]	/* MoveDirectRelPt */\012MDRP[00100]	/* MoveDirectRelPt */\012MDRP[00100]	/* MoveDirectRelPt */\012SDS[ ]	/* SetDeltaShiftInGState */\012DELTAP1[ ]	/* DeltaExceptionP1 */\012MDRP[11100]	/* MoveDirectRelPt */\012MDRP[01101]	/* MoveDirectRelPt */\012MDRP[10100]	/* MoveDirectRelPt */\012MDRP[00101]	/* MoveDirectRelPt */\012MDRP[00101]	/* MoveDirectRelPt */\012MDRP[10101]	/* MoveDirectRelPt */\012MDRP[01101]	/* MoveDirectRelPt */\012MDRP[11101]	/* MoveDirectRelPt */\012MDRP[00101]	/* MoveDirectRelPt */\012SRP2[ ]	/* SetRefPoint2 */\012SLOOP[ ]	/* SetLoopVariable */\012IP[ ]	/* InterpolatePts */\012SRP0[ ]	/* SetRefPoint0 */\012MDRP[10101]	/* MoveDirectRelPt */\012MDRP[01110]	/* MoveDirectRelPt */\012SRP0[ ]	/* SetRefPoint0 */\012MDRP[10100]	/* MoveDirectRelPt */\012MDRP[10101]	/* MoveDirectRelPt */\012MDRP[00110]	/* MoveDirectRelPt */\012SRP0[ ]	/* SetRefPoint0 */\012MDRP[11101]	/* MoveDirectRelPt */\012MDRP[01100]	/* MoveDirectRelPt */\012IUP[1]	/* InterpolateUntPts */\012IUP[0]	/* InterpolateUntPts */";
};
width = 2048;
}
);
note = cat;
unicode = 1F408;
},
{
glyphname = dog;
layers = (
{
layerId = "841189CE-7A88-49C9-B3DD-2B83509AFCBE";
paths = (
{
closed = 1;
nodes = (
"1742.333 875.333 OFFCURVE",
"1699.667 915 OFFCURVE",
"1637 925 CURVE",
"1647 957 OFFCURVE",
"1672.333 973 OFFCURVE",
"1713 973 CURVE SMOOTH",
"1725 973 OFFCURVE",
"1736.667 972 OFFCURVE",
"1748 970 CURVE",
"1677.333 998 OFFCURVE",
"1607.667 1014.667 OFFCURVE",
"1539 1020 CURVE",
"1571 1034.667 OFFCURVE",
"1606.333 1044 OFFCURVE",
"1645 1048 CURVE",
"1581 1070 OFFCURVE",
"1526.667 1081 OFFCURVE",
"1482 1081 CURVE SMOOTH",
"1452 1081 OFFCURVE",
"1414.667 1075.667 OFFCURVE",
"1370 1065 CURVE",
"1448.667 1026.333 OFFCURVE",
"1503.333 981.667 OFFCURVE",
"1534 931 CURVE SMOOTH",
"1560.667 887 OFFCURVE",
"1574 859.333 OFFCURVE",
"1574 848 CURVE SMOOTH",
"1574 812 OFFCURVE",
"1543 794 OFFCURVE",
"1481 794 CURVE SMOOTH",
"1451 794 OFFCURVE",
"1409.5 798.333 OFFCURVE",
"1356.5 807 CURVE SMOOTH",
"1303.5 815.667 OFFCURVE",
"1264.667 820 OFFCURVE",
"1240 820 CURVE SMOOTH",
"1212.667 820 OFFCURVE",
"1173 811.333 OFFCURVE",
"1121 794 CURVE SMOOTH",
"1069 776.667 OFFCURVE",
"1029.333 768 OFFCURVE",
"1002 768 CURVE SMOOTH",
"926 768 OFFCURVE",
"843.667 802 OFFCURVE",
"755 870 CURVE",
"732.333 886 OFFCURVE",
"710 901.667 OFFCURVE",
"688 917 CURVE",
"668 935 OFFCURVE",
"658 960 OFFCURVE",
"658 992 CURVE SMOOTH",
"658 1012 OFFCURVE",
"659.667 1029.667 OFFCURVE",
"663 1045 CURVE",
"710.333 1081.667 OFFCURVE",
"734 1121 OFFCURVE",
"734 1163 CURVE SMOOTH",
"734 1174.333 OFFCURVE",
"731.667 1187 OFFCURVE",
"727 1201 CURVE",
"696.333 1178.333 OFFCURVE",
"656.667 1146 OFFCURVE",
"608 1104 CURVE",
"555.333 1109.333 OFFCURVE",
"526.333 1112 OFFCURVE",
"521 1112 CURVE SMOOTH",
"509 1112 OFFCURVE",
"494.333 1111 OFFCURVE",
"477 1109 CURVE",
"441.667 1150.333 OFFCURVE",
"418.333 1191 OFFCURVE",
"407 1231 CURVE",
"383.667 1211.667 OFFCURVE",
"372 1189 OFFCURVE",
"372 1163 CURVE SMOOTH",
"372 1137 OFFCURVE",
"381 1108.667 OFFCURVE",
"399 1078 CURVE",
"385 1056 OFFCURVE",
"374.167 1040.667 OFFCURVE",
"366.5 1032 CURVE SMOOTH",
"358.833 1023.333 OFFCURVE",
"354 1007.833 OFFCURVE",
"352 985.5 CURVE SMOOTH",
"350 963.167 OFFCURVE",
"345.333 947 OFFCURVE",
"338 937 CURVE",
"323.333 919 OFFCURVE",
"308.667 901.333 OFFCURVE",
"294 884 CURVE SMOOTH",
"274 859.333 OFFCURVE",
"264 839.667 OFFCURVE",
"264 825 CURVE SMOOTH",
"264 779 OFFCURVE",
"289.333 756 OFFCURVE",
"340 756 CURVE SMOOTH",
"377.333 756 OFFCURVE",
"438 769 OFFCURVE",
"522 795 CURVE",
"528.667 776.333 OFFCURVE",
"535.667 758.667 OFFCURVE",
"543 742 CURVE SMOOTH",
"557.667 709.333 OFFCURVE",
"565 631.667 OFFCURVE",
"565 509 CURVE SMOOTH",
"565 393.667 OFFCURVE",
"539.333 290.333 OFFCURVE",
"488 199 CURVE SMOOTH",
"446.667 125.667 OFFCURVE",
"413.333 82.333 OFFCURVE",
"388 69 CURVE SMOOTH",
"382.667 66.333 OFFCURVE",
"369.333 63.667 OFFCURVE",
"348 61 CURVE SMOOTH",
"330.667 58.333 OFFCURVE",
"319 52.667 OFFCURVE",
"313 44 CURVE SMOOTH",
"305.667 33.333 OFFCURVE",
"301.667 18.667 OFFCURVE",
"301 0 CURVE",
"432 0 LINE",
"470 73.333 OFFCURVE",
"515.667 129.667 OFFCURVE",
"569 169 CURVE",
"617 311.667 OFFCURVE",
"654.667 383 OFFCURVE",
"682 383 CURVE SMOOTH",
"710 383 OFFCURVE",
"724 342.333 OFFCURVE",
"724 261 CURVE SMOOTH",
"724 178.333 OFFCURVE",
"717.333 122.333 OFFCURVE",
"704 93 CURVE SMOOTH",
"697.333 77.667 OFFCURVE",
"683.333 65.333 OFFCURVE",
"662 56 CURVE SMOOTH",
"643.333 47.333 OFFCURVE",
"630.667 28.667 OFFCURVE",
"624 0 CURVE",
"749 0 LINE",
"751 11.333 OFFCURVE",
"760 47.333 OFFCURVE",
"776 108 CURVE SMOOTH",
"791.333 163.333 OFFCURVE",
"799 193 OFFCURVE",
"799 197 CURVE SMOOTH",
"799 276.333 OFFCURVE",
"808.333 328.667 OFFCURVE",
"827 354 CURVE SMOOTH",
"851 387.333 OFFCURVE",
"903 404 OFFCURVE",
"983 404 CURVE SMOOTH",
"1021.667 404 OFFCURVE",
"1050.333 392.667 OFFCURVE",
"1069 370 CURVE SMOOTH",
"1080.333 356 OFFCURVE",
"1093.333 327 OFFCURVE",
"1108 283 CURVE SMOOTH",
"1120 247 OFFCURVE",
"1126 221.333 OFFCURVE",
"1126 206 CURVE SMOOTH",
"1126 144.667 OFFCURVE",
"1099.667 100.667 OFFCURVE",
"1047 74 CURVE",
"1016.333 63.333 OFFCURVE",
"985.667 52.333 OFFCURVE",
"955 41 CURVE",
"947.667 33.667 OFFCURVE",
"941.333 20 OFFCURVE",
"936 0 CURVE",
"1072 0 LINE",
"1076 38.667 OFFCURVE",
"1101 80.333 OFFCURVE",
"1147 125 CURVE",
"1185 158.333 OFFCURVE",
"1223 191.333 OFFCURVE",
"1261 224 CURVE",
"1240.333 266.667 OFFCURVE",
"1230 315 OFFCURVE",
"1230 369 CURVE SMOOTH",
"1230 411.667 OFFCURVE",
"1244 433 OFFCURVE",
"1272 433 CURVE SMOOTH",
"1307.333 433 OFFCURVE",
"1341.667 404.333 OFFCURVE",
"1375 347 CURVE SMOOTH",
"1416.333 276.333 OFFCURVE",
"1443.333 236.333 OFFCURVE",
"1456 227 CURVE SMOOTH",
"1466 219.667 OFFCURVE",
"1489 213 OFFCURVE",
"1525 207 CURVE SMOOTH",
"1553 202.333 OFFCURVE",
"1570.5 191 OFFCURVE",
"1577.5 173 CURVE SMOOTH",
"1584.5 155 OFFCURVE",
"1588 139.333 OFFCURVE",
"1588 126 CURVE SMOOTH",
"1588 101.333 OFFCURVE",
"1568.333 84.167 OFFCURVE",
"1529 74.5 CURVE SMOOTH",
"1489.667 64.833 OFFCURVE",
"1470 42.667 OFFCURVE",
"1470 8 CURVE SMOOTH",
"1470 0 LINE",
"1606 0 LINE",
"1622.667 39.333 OFFCURVE",
"1635.667 90 OFFCURVE",
"1645 152 CURVE SMOOTH",
"1651.667 204 OFFCURVE",
"1658.333 256 OFFCURVE",
"1665 308 CURVE",
"1542 308 LINE",
"1542 325.333 OFFCURVE",
"1549 350.5 OFFCURVE",
"1563 383.5 CURVE SMOOTH",
"1577 416.5 OFFCURVE",
"1584 442.667 OFFCURVE",
"1584 462 CURVE SMOOTH",
"1584 487.333 OFFCURVE",
"1574.667 512.667 OFFCURVE",
"1556 538 CURVE SMOOTH",
"1530.667 574 OFFCURVE",
"1516 596.667 OFFCURVE",
"1512 606 CURVE SMOOTH",
"1502 629.333 OFFCURVE",
"1492.667 660.667 OFFCURVE",
"1484 700 CURVE",
"1531.333 726 OFFCURVE",
"1574 739 OFFCURVE",
"1612 739 CURVE SMOOTH",
"1646.667 739 OFFCURVE",
"1682.667 717.667 OFFCURVE",
"1720 675 CURVE",
"1726 694.333 OFFCURVE",
"1729 712.667 OFFCURVE",
"1729 730 CURVE SMOOTH",
"1729 766 OFFCURVE",
"1700 797 OFFCURVE",
"1642 823 CURVE",
"1656.667 830.333 OFFCURVE",
"1670 834 OFFCURVE",
"1682 834 CURVE SMOOTH",
"1706.667 834 OFFCURVE",
"1734.333 824.667 OFFCURVE",
"1765 806 CURVE",
"1765 806 LINE"
);
},
{
closed = 1;
nodes = (
"527 745 OFFCURVE",
"519 756 OFFCURVE",
"503 756 CURVE SMOOTH",
"487.667 756 OFFCURVE",
"480 745 OFFCURVE",
"480 723 CURVE SMOOTH",
"480 701 OFFCURVE",
"487.667 690 OFFCURVE",
"503 690 CURVE SMOOTH",
"519 690 OFFCURVE",
"527 701 OFFCURVE",
"527 723 CURVE",
"527 723 LINE"
);
},
{
closed = 1;
nodes = (
"636.333 852.667 OFFCURVE",
"591.667 806.333 OFFCURVE",
"555 765 CURVE",
"527 815 LINE",
"575.667 844.333 OFFCURVE",
"619.333 884.333 OFFCURVE",
"658 935 CURVE",
"689 904 LINE",
"689 904 LINE"
);
},
{
closed = 1;
nodes = (
"515.333 946 OFFCURVE",
"506 937 OFFCURVE",
"496 937 CURVE SMOOTH",
"486 937 OFFCURVE",
"476 943.333 OFFCURVE",
"466 956 CURVE",
"475.333 976.667 OFFCURVE",
"485.333 987 OFFCURVE",
"496 987 CURVE SMOOTH",
"505.333 987 OFFCURVE",
"514.667 979.333 OFFCURVE",
"524 964 CURVE",
"524 964 LINE"
);
},
{
closed = 1;
nodes = (
"343 802.333 OFFCURVE",
"334.333 791 OFFCURVE",
"317 791 CURVE SMOOTH",
"299 791 OFFCURVE",
"290 808 OFFCURVE",
"290 842 CURVE",
"343 831 LINE",
"343 825 LINE",
"343 825 LINE"
);
},
{
closed = 1;
nodes = (
"505 972.333 OFFCURVE",
"501.667 977 OFFCURVE",
"495 981 CURVE",
"488.333 977 OFFCURVE",
"485 972.333 OFFCURVE",
"485 967 CURVE SMOOTH",
"485 961.667 OFFCURVE",
"488.333 957 OFFCURVE",
"495 953 CURVE",
"501.667 957 OFFCURVE",
"505 961.667 OFFCURVE",
"505 967 CURVE",
"505 967 LINE"
);
}
);
userData = {
assembly = "NPUSHB[ ]	/* 114 values pushed */\012163 159 93 173 191 177 181 183 5 101 127 171 170 168 167 127 125 121 119 127 101 115 113 111 109 101 93 70 69 65 76 82 83 93 157 151 6 4 145 141 12 49 48 55 44 31 26 27 31 22 21 18 12 93 195 4 2 157 151 4 8 149 145 147 139 8 10 12 139 133 121 113 117 168 171 99 161 165 165 109 125 175 189 179 183 185 7 117 97 99 119 115 117 183 136 199 136 2 0 136 133 78 61 40 22 26 26 49 49 70 70 83 83 195 \012SVTCA[0]	/* SetFreedomAndProjectionVectorToAxis */\012SRP0[ ]	/* SetRefPoint0 */\012ALIGNRP[ ]	/* AlignRelativePt */\012SRP0[ ]	/* SetRefPoint0 */\012ALIGNRP[ ]	/* AlignRelativePt */\012SRP0[ ]	/* SetRefPoint0 */\012ALIGNRP[ ]	/* AlignRelativePt */\012SRP0[ ]	/* SetRefPoint0 */\012ALIGNRP[ ]	/* AlignRelativePt */\012SRP0[ ]	/* SetRefPoint0 */\012MDRP[01101]	/* MoveDirectRelPt */\012MDRP[11100]	/* MoveDirectRelPt */\012MDRP[00100]	/* MoveDirectRelPt */\012MDRP[00100]	/* MoveDirectRelPt */\012MDRP[11101]	/* MoveDirectRelPt */\012MDRP[00100]	/* MoveDirectRelPt */\012SDS[ ]	/* SetDeltaShiftInGState */\012DELTAP1[ ]	/* DeltaExceptionP1 */\012MDRP[11100]	/* MoveDirectRelPt */\012MDRP[00101]	/* MoveDirectRelPt */\012MDRP[00101]	/* MoveDirectRelPt */\012MDRP[11101]	/* MoveDirectRelPt */\012MDRP[00101]	/* MoveDirectRelPt */\012SRP2[ ]	/* SetRefPoint2 */\012SLOOP[ ]	/* SetLoopVariable */\012IP[ ]	/* InterpolatePts */\012ALIGNRP[ ]	/* AlignRelativePt */\012SRP0[ ]	/* SetRefPoint0 */\012MDRP[00101]	/* MoveDirectRelPt */\012SRP0[ ]	/* SetRefPoint0 */\012MDRP[10100]	/* MoveDirectRelPt */\012MDRP[00110]	/* MoveDirectRelPt */\012SRP0[ ]	/* SetRefPoint0 */\012MDRP[11110]	/* MoveDirectRelPt */\012MDRP[00110]	/* MoveDirectRelPt */\012SRP0[ ]	/* SetRefPoint0 */\012MDRP[10100]	/* MoveDirectRelPt */\012MDRP[01101]	/* MoveDirectRelPt */\012MDRP[11101]	/* MoveDirectRelPt */\012MDRP[00110]	/* MoveDirectRelPt */\012SRP0[ ]	/* SetRefPoint0 */\012MDRP[11100]	/* MoveDirectRelPt */\012MDRP[00101]	/* MoveDirectRelPt */\012MDRP[00101]	/* MoveDirectRelPt */\012SRP2[ ]	/* SetRefPoint2 */\012SLOOP[ ]	/* SetLoopVariable */\012IP[ ]	/* InterpolatePts */\012SVTCA[1]	/* SetFreedomAndProjectionVectorToAxis */\012SRP0[ ]	/* SetRefPoint0 */\012MDRP[10110]	/* MoveDirectRelPt */\012MDRP[11101]	/* MoveDirectRelPt */\012MDRP[00100]	/* MoveDirectRelPt */\012MDRP[10101]	/* MoveDirectRelPt */\012MDRP[00101]	/* MoveDirectRelPt */\012MDRP[10100]	/* MoveDirectRelPt */\012MDRP[11100]	/* MoveDirectRelPt */\012MDRP[01101]	/* MoveDirectRelPt */\012SRP0[ ]	/* SetRefPoint0 */\012MDRP[11110]	/* MoveDirectRelPt */\012MDRP[01101]	/* MoveDirectRelPt */\012MDRP[11110]	/* MoveDirectRelPt */\012MDRP[01101]	/* MoveDirectRelPt */\012SRP0[ ]	/* SetRefPoint0 */\012MDRP[10100]	/* MoveDirectRelPt */\012MDRP[00110]	/* MoveDirectRelPt */\012MDRP[11101]	/* MoveDirectRelPt */\012MDRP[00101]	/* MoveDirectRelPt */\012MDRP[00101]	/* MoveDirectRelPt */\012MDRP[00101]	/* MoveDirectRelPt */\012SRP0[ ]	/* SetRefPoint0 */\012MDRP[11100]	/* MoveDirectRelPt */\012MDRP[01101]	/* MoveDirectRelPt */\012MDRP[11100]	/* MoveDirectRelPt */\012MDRP[11101]	/* MoveDirectRelPt */\012MDRP[11100]	/* MoveDirectRelPt */\012MDRP[01101]	/* MoveDirectRelPt */\012SRP0[ ]	/* SetRefPoint0 */\012MDRP[10100]	/* MoveDirectRelPt */\012MDRP[10100]	/* MoveDirectRelPt */\012MDRP[10101]	/* MoveDirectRelPt */\012MDRP[00101]	/* MoveDirectRelPt */\012MDRP[00101]	/* MoveDirectRelPt */\012SRP0[ ]	/* SetRefPoint0 */\012MDRP[11100]	/* MoveDirectRelPt */\012MDRP[10101]	/* MoveDirectRelPt */\012MDRP[00101]	/* MoveDirectRelPt */\012MDRP[00101]	/* MoveDirectRelPt */\012SRP0[ ]	/* SetRefPoint0 */\012MDRP[10100]	/* MoveDirectRelPt */\012SHP[0]	/* ShiftPointByLastPoint */\012MDRP[00110]	/* MoveDirectRelPt */\012SHP[0]	/* ShiftPointByLastPoint */\012SRP1[ ]	/* SetRefPoint1 */\012SRP2[ ]	/* SetRefPoint2 */\012SLOOP[ ]	/* SetLoopVariable */\012IP[ ]	/* InterpolatePts */\012SRP0[ ]	/* SetRefPoint0 */\012MDRP[10110]	/* MoveDirectRelPt */\012MDRP[00101]	/* MoveDirectRelPt */\012IUP[1]	/* InterpolateUntPts */\012IUP[0]	/* InterpolateUntPts */";
};
width = 2048;
}
);
note = dog;
unicode = 1F415;
},
{
glyphname = fish;
layers = (
{
layerId = "841189CE-7A88-49C9-B3DD-2B83509AFCBE";
paths = (
{
closed = 1;
nodes = (
"1769.333 430.333 OFFCURVE",
"1718.333 478.667 OFFCURVE",
"1663 526 CURVE",
"1699.667 576.667 OFFCURVE",
"1745.333 630.333 OFFCURVE",
"1800 687 CURVE",
"1704.667 629.667 OFFCURVE",
"1622.333 601 OFFCURVE",
"1553 601 CURVE SMOOTH",
"1518.333 601 OFFCURVE",
"1474.667 607 OFFCURVE",
"1422 619 CURVE SMOOTH",
"1379.333 629 OFFCURVE",
"1336.333 638.667 OFFCURVE",
"1293 648 CURVE",
"1300 663 LINE",
"1333 675 LINE",
"1316 691 LINE",
"1298.667 693.667 OFFCURVE",
"1288 695 OFFCURVE",
"1284 695 CURVE SMOOTH",
"1244 695 OFFCURVE",
"1208.333 686.667 OFFCURVE",
"1177 670 CURVE",
"1088.333 684.667 OFFCURVE",
"1009 691.667 OFFCURVE",
"939 691 CURVE SMOOTH",
"879 691 LINE",
"909 711 LINE",
"909 739 LINE",
"869 735 LINE",
"861 760 LINE",
"825 772 LINE",
"817 792 LINE",
"745 760 OFFCURVE",
"699 721.667 OFFCURVE",
"679 677 CURVE",
"573 663.667 OFFCURVE",
"485 638.667 OFFCURVE",
"415 602 CURVE SMOOTH",
"343 564 OFFCURVE",
"272.667 505 OFFCURVE",
"204 425 CURVE",
"236 434.333 OFFCURVE",
"266 439 OFFCURVE",
"294 439 CURVE SMOOTH",
"353.333 439 OFFCURVE",
"383 430 OFFCURVE",
"383 412 CURVE SMOOTH",
"383 406.667 OFFCURVE",
"371 404 OFFCURVE",
"347 404 CURVE SMOOTH",
"300.333 404 OFFCURVE",
"258 393.667 OFFCURVE",
"220 373 CURVE",
"520 373 OFFCURVE",
"693.333 372 OFFCURVE",
"740 370 CURVE",
"748.667 329.333 OFFCURVE",
"783.667 299.333 OFFCURVE",
"845 280 CURVE",
"853 300 LINE",
"889 312 LINE",
"897 336 LINE",
"950 316 LINE",
"950 356 LINE",
"940 368 LINE",
"1049.333 373.333 OFFCURVE",
"1149.333 384 OFFCURVE",
"1240 400 CURVE",
"1291.333 373.333 OFFCURVE",
"1328.667 360 OFFCURVE",
"1352 360 CURVE SMOOTH",
"1372 360 OFFCURVE",
"1388.333 361.667 OFFCURVE",
"1401 365 CURVE",
"1365 405 LINE",
"1360 423 LINE",
"1369.333 425 OFFCURVE",
"1399.333 434.333 OFFCURVE",
"1450 451 CURVE SMOOTH",
"1490 463.667 OFFCURVE",
"1519 470 OFFCURVE",
"1537 470 CURVE SMOOTH",
"1558.333 470 OFFCURVE",
"1581 464 OFFCURVE",
"1605 452 CURVE SMOOTH",
"1643.667 432.667 OFFCURVE",
"1664.333 422.333 OFFCURVE",
"1667 421 CURVE",
"1701 408.333 OFFCURVE",
"1750.667 395 OFFCURVE",
"1816 381 CURVE",
"1816 381 LINE"
);
},
{
closed = 1;
nodes = (
"1607 506.667 OFFCURVE",
"1580 494.667 OFFCURVE",
"1526 494 CURVE",
"1534 508 OFFCURVE",
"1538 520 OFFCURVE",
"1538 530 CURVE SMOOTH",
"1538 541.333 OFFCURVE",
"1532.667 554.667 OFFCURVE",
"1522 570 CURVE",
"1578.667 567.333 OFFCURVE",
"1607 554 OFFCURVE",
"1607 530 CURVE",
"1607 530 LINE"
);
},
{
closed = 1;
nodes = (
"646 482.667 OFFCURVE",
"632.833 456.5 OFFCURVE",
"606.5 433.5 CURVE SMOOTH",
"580.167 410.5 OFFCURVE",
"552 399 OFFCURVE",
"522 399 CURVE SMOOTH",
"514.667 399 OFFCURVE",
"506.667 399.667 OFFCURVE",
"498 401 CURVE",
"486 421 LINE",
"517.333 419.667 OFFCURVE",
"544 426.333 OFFCURVE",
"566 441 CURVE SMOOTH",
"590.667 457.667 OFFCURVE",
"603 481.333 OFFCURVE",
"603 512 CURVE SMOOTH",
"603 538 OFFCURVE",
"592.5 559.333 OFFCURVE",
"571.5 576 CURVE SMOOTH",
"550.5 592.667 OFFCURVE",
"526.333 601 OFFCURVE",
"499 601 CURVE SMOOTH",
"478.333 601 OFFCURVE",
"456.667 597.333 OFFCURVE",
"434 590 CURVE",
"471.333 607.333 OFFCURVE",
"503 616 OFFCURVE",
"529 616 CURVE SMOOTH",
"559.667 616 OFFCURVE",
"586.833 606.167 OFFCURVE",
"610.5 586.5 CURVE SMOOTH",
"634.167 566.833 OFFCURVE",
"646 542 OFFCURVE",
"646 512 CURVE",
"646 512 LINE"
);
},
{
closed = 1;
nodes = (
"466 470.667 OFFCURVE",
"453.333 457 OFFCURVE",
"428 457 CURVE SMOOTH",
"402 457 OFFCURVE",
"389 470.667 OFFCURVE",
"389 498 CURVE SMOOTH",
"389 524.667 OFFCURVE",
"402 538 OFFCURVE",
"428 538 CURVE SMOOTH",
"453.333 538 OFFCURVE",
"466 524.667 OFFCURVE",
"466 498 CURVE",
"466 498 LINE"
);
},
{
closed = 1;
nodes = (
"444 507.333 OFFCURVE",
"439.333 514 OFFCURVE",
"430 514 CURVE SMOOTH",
"420.667 514 OFFCURVE",
"416 507.333 OFFCURVE",
"416 494 CURVE SMOOTH",
"416 480 OFFCURVE",
"420.667 473 OFFCURVE",
"430 473 CURVE SMOOTH",
"439.333 473 OFFCURVE",
"444 480 OFFCURVE",
"444 494 CURVE",
"444 494 LINE"
);
}
);
userData = {
assembly = "NPUSHB[ ]	/* 80 values pushed */\01274 70 72 68 66 58 51 56 16 10 12 66 64 0 113 48 47 40 20 26 40 36 86 76 104 96 108 90 81 108 100 32 28 36 112 110 98 106 102 28 51 58 49 62 81 83 79 79 40 34 48 42 49 28 90 93 36 34 28 21 20 24 26 10 16 6 18 28 66 66 0 64 70 62 0 74 12 6 28 112 \012SVTCA[0]	/* SetFreedomAndProjectionVectorToAxis */\012SRP0[ ]	/* SetRefPoint0 */\012MDRP[10110]	/* MoveDirectRelPt */\012MDRP[10100]	/* MoveDirectRelPt */\012MDRP[01110]	/* MoveDirectRelPt */\012MDRP[00101]	/* MoveDirectRelPt */\012MDRP[01100]	/* MoveDirectRelPt */\012MDRP[11100]	/* MoveDirectRelPt */\012MDRP[00101]	/* MoveDirectRelPt */\012MDRP[01110]	/* MoveDirectRelPt */\012SRP1[ ]	/* SetRefPoint1 */\012IP[ ]	/* InterpolatePts */\012RTDG[ ]	/* RoundToDoubleGrid */\012MDAP[1]	/* MoveDirectAbsPt */\012RTG[ ]	/* RoundToGrid */\012SRP0[ ]	/* SetRefPoint0 */\012MDRP[00100]	/* MoveDirectRelPt */\012SRP1[ ]	/* SetRefPoint1 */\012IP[ ]	/* InterpolatePts */\012IP[ ]	/* InterpolatePts */\012MDRP[10110]	/* MoveDirectRelPt */\012MDRP[11101]	/* MoveDirectRelPt */\012MDRP[10110]	/* MoveDirectRelPt */\012MDRP[00101]	/* MoveDirectRelPt */\012SRP0[ ]	/* SetRefPoint0 */\012MDRP[11110]	/* MoveDirectRelPt */\012MDRP[00110]	/* MoveDirectRelPt */\012MDRP[10100]	/* MoveDirectRelPt */\012MDRP[00110]	/* MoveDirectRelPt */\012SRP0[ ]	/* SetRefPoint0 */\012MDRP[11100]	/* MoveDirectRelPt */\012MDRP[00100]	/* MoveDirectRelPt */\012ALIGNRP[ ]	/* AlignRelativePt */\012SRP2[ ]	/* SetRefPoint2 */\012IP[ ]	/* InterpolatePts */\012IP[ ]	/* InterpolatePts */\012MDAP[1]	/* MoveDirectAbsPt */\012MDRP[10110]	/* MoveDirectRelPt */\012MDRP[00101]	/* MoveDirectRelPt */\012SRP1[ ]	/* SetRefPoint1 */\012SRP2[ ]	/* SetRefPoint2 */\012IP[ ]	/* InterpolatePts */\012IP[ ]	/* InterpolatePts */\012SRP0[ ]	/* SetRefPoint0 */\012MDRP[10100]	/* MoveDirectRelPt */\012MDRP[10110]	/* MoveDirectRelPt */\012MDRP[11100]	/* MoveDirectRelPt */\012MDRP[00110]	/* MoveDirectRelPt */\012SVTCA[1]	/* SetFreedomAndProjectionVectorToAxis */\012SRP0[ ]	/* SetRefPoint0 */\012MDRP[10110]	/* MoveDirectRelPt */\012MDRP[00110]	/* MoveDirectRelPt */\012MDRP[11110]	/* MoveDirectRelPt */\012MDRP[10101]	/* MoveDirectRelPt */\012MDRP[10110]	/* MoveDirectRelPt */\012MDRP[10100]	/* MoveDirectRelPt */\012MDRP[00100]	/* MoveDirectRelPt */\012SRP0[ ]	/* SetRefPoint0 */\012MDRP[10100]	/* MoveDirectRelPt */\012MDRP[00110]	/* MoveDirectRelPt */\012MDRP[10100]	/* MoveDirectRelPt */\012MDRP[01110]	/* MoveDirectRelPt */\012SRP0[ ]	/* SetRefPoint0 */\012MDRP[11100]	/* MoveDirectRelPt */\012MDRP[10101]	/* MoveDirectRelPt */\012MDRP[00100]	/* MoveDirectRelPt */\012SRP0[ ]	/* SetRefPoint0 */\012MDRP[11101]	/* MoveDirectRelPt */\012MDRP[00101]	/* MoveDirectRelPt */\012SRP0[ ]	/* SetRefPoint0 */\012MDRP[10110]	/* MoveDirectRelPt */\012MDRP[00110]	/* MoveDirectRelPt */\012MDRP[10101]	/* MoveDirectRelPt */\012MDRP[10100]	/* MoveDirectRelPt */\012MDRP[00110]	/* MoveDirectRelPt */\012MDRP[01101]	/* MoveDirectRelPt */\012MDRP[10100]	/* MoveDirectRelPt */\012MDRP[01101]	/* MoveDirectRelPt */\012MDRP[00110]	/* MoveDirectRelPt */\012SRP0[ ]	/* SetRefPoint0 */\012MDRP[10101]	/* MoveDirectRelPt */\012MDRP[01110]	/* MoveDirectRelPt */\012SHP[0]	/* ShiftPointByLastPoint */\012SHP[0]	/* ShiftPointByLastPoint */\012IUP[1]	/* InterpolateUntPts */\012IUP[0]	/* InterpolateUntPts */";
};
width = 2048;
}
);
note = fish;
unicode = 1F41F;
},
{
glyphname = bird;
layers = (
{
layerId = "841189CE-7A88-49C9-B3DD-2B83509AFCBE";
paths = (
{
closed = 1;
nodes = (
"1514 869.333 OFFCURVE",
"1506.667 907.333 OFFCURVE",
"1492 934 CURVE",
"1493.333 947.333 OFFCURVE",
"1494 959 OFFCURVE",
"1494 969 CURVE SMOOTH",
"1494 1009 OFFCURVE",
"1471.667 1048.667 OFFCURVE",
"1427 1088 CURVE",
"1406.333 1126.667 OFFCURVE",
"1392 1159.333 OFFCURVE",
"1384 1186 CURVE",
"1347.333 1146.667 OFFCURVE",
"1329 1109.667 OFFCURVE",
"1329 1075 CURVE SMOOTH",
"1329 1066.333 OFFCURVE",
"1330 1057.333 OFFCURVE",
"1332 1048 CURVE",
"1294.667 1034.667 OFFCURVE",
"1255.667 997.667 OFFCURVE",
"1215 937 CURVE",
"1119 906.333 OFFCURVE",
"1008.667 813.667 OFFCURVE",
"884 659 CURVE SMOOTH",
"761.333 507.667 OFFCURVE",
"690.667 380.333 OFFCURVE",
"672 277 CURVE",
"683.333 269.667 OFFCURVE",
"694 266 OFFCURVE",
"704 266 CURVE SMOOTH",
"710.667 266 OFFCURVE",
"721.167 268.833 OFFCURVE",
"735.5 274.5 CURVE SMOOTH",
"749.833 280.167 OFFCURVE",
"760.667 283.333 OFFCURVE",
"768 284 CURVE",
"592 129.333 OFFCURVE",
"468.667 -6.333 OFFCURVE",
"398 -123 CURVE",
"443.333 -141 OFFCURVE",
"479.333 -153 OFFCURVE",
"506 -159 CURVE",
"536 -175.667 OFFCURVE",
"562.667 -190.667 OFFCURVE",
"586 -204 CURVE",
"636.667 -204 OFFCURVE",
"669.667 -195.667 OFFCURVE",
"685 -179 CURVE SMOOTH",
"714.333 -145 OFFCURVE",
"747.833 -80.833 OFFCURVE",
"785.5 13.5 CURVE SMOOTH",
"823.167 107.833 OFFCURVE",
"854 168 OFFCURVE",
"878 194 CURVE SMOOTH",
"890 206.667 OFFCURVE",
"907 213 OFFCURVE",
"929 213 CURVE SMOOTH",
"947.667 213 OFFCURVE",
"962.667 210.667 OFFCURVE",
"974 206 CURVE",
"977 202 LINE",
"1009.667 202.667 OFFCURVE",
"1040.667 170.333 OFFCURVE",
"1070 105 CURVE",
"1016.667 83 OFFCURVE",
"963.667 61.333 OFFCURVE",
"911 40 CURVE SMOOTH",
"840.333 9.333 OFFCURVE",
"805 -24.667 OFFCURVE",
"805 -62 CURVE SMOOTH",
"805 -106 OFFCURVE",
"825.333 -128 OFFCURVE",
"866 -128 CURVE",
"1357 93 LINE",
"1363 103.667 OFFCURVE",
"1369 114 OFFCURVE",
"1375 124 CURVE SMOOTH",
"1381 134 OFFCURVE",
"1384 147 OFFCURVE",
"1384 163 CURVE SMOOTH",
"1384 182.333 OFFCURVE",
"1367.333 199.333 OFFCURVE",
"1334 214 CURVE",
"1159 142 LINE",
"1138.333 182.667 OFFCURVE",
"1128 211 OFFCURVE",
"1128 227 CURVE SMOOTH",
"1128 252.333 OFFCURVE",
"1144 274 OFFCURVE",
"1176 292 CURVE SMOOTH",
"1242.667 330.667 OFFCURVE",
"1289 367 OFFCURVE",
"1315 401 CURVE SMOOTH",
"1341 435 OFFCURVE",
"1363 489.333 OFFCURVE",
"1381 564 CURVE",
"1385 614.667 OFFCURVE",
"1389 665.333 OFFCURVE",
"1393 716 CURVE SMOOTH",
"1400.333 798 OFFCURVE",
"1412 839.667 OFFCURVE",
"1428 841 CURVE",
"1457.333 831.667 OFFCURVE",
"1480 826.667 OFFCURVE",
"1496 826 CURVE",
"1514 820 LINE",
"1514 820 LINE"
);
},
{
closed = 1;
nodes = (
"1141 133 LINE",
"1098 123 LINE",
"1027 256 LINE",
"1073 265 LINE",
"1076 231 LINE",
"1141 133 LINE"
);
}
);
userData = {
assembly = "NPUSHB[ ]	/* 38 values pushed */\01214 72 27 3 23 17 58 7 3 0 64 43 23 37 43 73 45 48 32 70 71 3 32 60 56 0 3 184 32 1 0 32 68 27 15 39 21 73 \012SVTCA[0]	/* SetFreedomAndProjectionVectorToAxis */\012SRP0[ ]	/* SetRefPoint0 */\012MDRP[11100]	/* MoveDirectRelPt */\012MDRP[00100]	/* MoveDirectRelPt */\012MDRP[11101]	/* MoveDirectRelPt */\012IP[ ]	/* InterpolatePts */\012IP[ ]	/* InterpolatePts */\012MDRP[11100]	/* MoveDirectRelPt */\012SDS[ ]	/* SetDeltaShiftInGState */\012DELTAP1[ ]	/* DeltaExceptionP1 */\012MDRP[11100]	/* MoveDirectRelPt */\012MDRP[00100]	/* MoveDirectRelPt */\012MDRP[10101]	/* MoveDirectRelPt */\012MDRP[01101]	/* MoveDirectRelPt */\012SRP1[ ]	/* SetRefPoint1 */\012SRP2[ ]	/* SetRefPoint2 */\012IP[ ]	/* InterpolatePts */\012IP[ ]	/* InterpolatePts */\012SRP0[ ]	/* SetRefPoint0 */\012MDRP[01100]	/* MoveDirectRelPt */\012SHP[0]	/* ShiftPointByLastPoint */\012SVTCA[1]	/* SetFreedomAndProjectionVectorToAxis */\012SRP0[ ]	/* SetRefPoint0 */\012MDRP[10110]	/* MoveDirectRelPt */\012MDRP[10101]	/* MoveDirectRelPt */\012MDRP[00110]	/* MoveDirectRelPt */\012SRP0[ ]	/* SetRefPoint0 */\012MDRP[10101]	/* MoveDirectRelPt */\012MDRP[01100]	/* MoveDirectRelPt */\012MDRP[00101]	/* MoveDirectRelPt */\012MDRP[00100]	/* MoveDirectRelPt */\012MDRP[01101]	/* MoveDirectRelPt */\012MDRP[00100]	/* MoveDirectRelPt */\012SRP1[ ]	/* SetRefPoint1 */\012SLOOP[ ]	/* SetLoopVariable */\012IP[ ]	/* InterpolatePts */\012IUP[1]	/* InterpolateUntPts */\012IUP[0]	/* InterpolateUntPts */";
};
width = 2048;
}
);
note = bird;
unicode = 1F426;
},
{
glyphname = boy;
layers = (
{
layerId = "841189CE-7A88-49C9-B3DD-2B83509AFCBE";
paths = (
{
closed = 1;
nodes = (
"1115 1216.667 OFFCURVE",
"1106 1242.667 OFFCURVE",
"1088 1264 CURVE SMOOTH",
"1070 1285.333 OFFCURVE",
"1048.333 1296 OFFCURVE",
"1023 1296 CURVE SMOOTH",
"997.667 1296 OFFCURVE",
"976 1285.333 OFFCURVE",
"958 1264 CURVE SMOOTH",
"940 1242.667 OFFCURVE",
"931 1216.667 OFFCURVE",
"931 1186 CURVE SMOOTH",
"931 1156 OFFCURVE",
"940 1130.167 OFFCURVE",
"958 1108.5 CURVE SMOOTH",
"976 1086.833 OFFCURVE",
"997.667 1076 OFFCURVE",
"1023 1076 CURVE SMOOTH",
"1048.333 1076 OFFCURVE",
"1070 1086.833 OFFCURVE",
"1088 1108.5 CURVE SMOOTH",
"1106 1130.167 OFFCURVE",
"1115 1156 OFFCURVE",
"1115 1186 CURVE",
"1115 1186 LINE"
);
},
{
closed = 1;
nodes = (
"1327 841 LINE",
"1217 1020 LINE SMOOTH",
"1197.667 1050.667 OFFCURVE",
"1176 1066 OFFCURVE",
"1152 1066 CURVE SMOOTH",
"895 1066 LINE SMOOTH",
"871 1066 OFFCURVE",
"849.333 1050.667 OFFCURVE",
"830 1020 CURVE SMOOTH",
"720 841 LINE SMOOTH",
"714 831 OFFCURVE",
"711 820.667 OFFCURVE",
"711 810 CURVE SMOOTH",
"711 791.333 OFFCURVE",
"722.333 766.333 OFFCURVE",
"745 735 CURVE SMOOTH",
"846 594 LINE",
"880 682 LINE",
"796 804 LINE",
"892 929 LINE",
"892 677 LINE",
"853 565 LINE",
"869 540 LINE",
"869 407 LINE",
"888 407 LINE",
"888 0 LINE SMOOTH",
"888 -36.667 OFFCURVE",
"905.333 -55 OFFCURVE",
"940 -55 CURVE SMOOTH",
"974.667 -55 OFFCURVE",
"992 -36.667 OFFCURVE",
"992 0 CURVE SMOOTH",
"992 407 LINE",
"1010 407 LINE",
"1010 540 LINE",
"1037 540 LINE",
"1037 407 LINE",
"1055 407 LINE",
"1055 0 LINE SMOOTH",
"1055 -36.667 OFFCURVE",
"1072.333 -55 OFFCURVE",
"1107 -55 CURVE SMOOTH",
"1142.333 -55 OFFCURVE",
"1160 -36.667 OFFCURVE",
"1160 0 CURVE SMOOTH",
"1160 407 LINE",
"1178 407 LINE",
"1178 540 LINE",
"1194 565 LINE",
"1156 677 LINE",
"1156 929 LINE",
"1251 804 LINE",
"1167 682 LINE",
"1201 594 LINE",
"1302 735 LINE SMOOTH",
"1324.667 766.333 OFFCURVE",
"1336 791.333 OFFCURVE",
"1336 810 CURVE SMOOTH",
"1336 820.667 OFFCURVE",
"1333 831 OFFCURVE",
"1327 841 CURVE"
);
}
);
userData = {
assembly = "NPUSHB[ ]	/* 111 values pushed */\012168 48 184 48 2 1 138 48 154 48 2 3 120 48 1 2 90 48 106 48 2 3 72 48 1 2 168 19 184 19 2 1 154 19 1 3 136 19 1 1 74 19 90 19 106 19 122 19 4 3 53 119 48 140 47 49 50 24 45 1 0 45 47 43 41 109 36 34 24 26 109 30 32 37 34 34 47 20 18 17 22 20 14 119 19 140 20 47 0 6 47 62 28 39 62 24 43 33 17 18 18 50 49 47 47 20 102 58 9 3 58 \012SVTCA[0]	/* SetFreedomAndProjectionVectorToAxis */\012MDAP[1]	/* MoveDirectAbsPt */\012MDRP[11110]	/* MoveDirectRelPt */\012MDRP[01101]	/* MoveDirectRelPt */\012SRP0[ ]	/* SetRefPoint0 */\012MIRP[11101]	/* MoveIndirectRelPt */\012ALIGNRP[ ]	/* AlignRelativePt */\012SRP0[ ]	/* SetRefPoint0 */\012MDRP[11110]	/* MoveDirectRelPt */\012MDRP[01101]	/* MoveDirectRelPt */\012ALIGNRP[ ]	/* AlignRelativePt */\012SRP0[ ]	/* SetRefPoint0 */\012MDRP[01101]	/* MoveDirectRelPt */\012MDRP[11100]	/* MoveDirectRelPt */\012MDRP[11100]	/* MoveDirectRelPt */\012ALIGNRP[ ]	/* AlignRelativePt */\012SRP0[ ]	/* SetRefPoint0 */\012MDRP[11100]	/* MoveDirectRelPt */\012ALIGNRP[ ]	/* AlignRelativePt */\012SVTCA[1]	/* SetFreedomAndProjectionVectorToAxis */\012SRP0[ ]	/* SetRefPoint0 */\012MDRP[11100]	/* MoveDirectRelPt */\012MDRP[10100]	/* MoveDirectRelPt */\012MDRP[01101]	/* MoveDirectRelPt */\012SRP0[ ]	/* SetRefPoint0 */\012MDRP[11101]	/* MoveDirectRelPt */\012MIRP[11110]	/* MoveIndirectRelPt */\012MIRP[01101]	/* MoveIndirectRelPt */\012SRP0[ ]	/* SetRefPoint0 */\012MDRP[10100]	/* MoveDirectRelPt */\012MDRP[00110]	/* MoveDirectRelPt */\012SHP[0]	/* ShiftPointByLastPoint */\012SRP1[ ]	/* SetRefPoint1 */\012SRP2[ ]	/* SetRefPoint2 */\012IP[ ]	/* InterpolatePts */\012MDAP[1]	/* MoveDirectAbsPt */\012MDRP[00100]	/* MoveDirectRelPt */\012MDRP[11110]	/* MoveDirectRelPt */\012MDRP[10110]	/* MoveDirectRelPt */\012MIRP[11101]	/* MoveIndirectRelPt */\012MDRP[00110]	/* MoveDirectRelPt */\012SRP0[ ]	/* SetRefPoint0 */\012MDRP[10101]	/* MoveDirectRelPt */\012MIRP[11101]	/* MoveIndirectRelPt */\012MDRP[00110]	/* MoveDirectRelPt */\012SRP0[ ]	/* SetRefPoint0 */\012MDRP[10100]	/* MoveDirectRelPt */\012SDS[ ]	/* SetDeltaShiftInGState */\012DELTAP2[ ]	/* DeltaExceptionP2 */\012MDRP[00110]	/* MoveDirectRelPt */\012SHP[0]	/* ShiftPointByLastPoint */\012SRP0[ ]	/* SetRefPoint0 */\012MIRP[11110]	/* MoveIndirectRelPt */\012MIRP[01101]	/* MoveIndirectRelPt */\012IUP[1]	/* InterpolateUntPts */\012IUP[0]	/* InterpolateUntPts */\012SVTCA[0]	/* SetFreedomAndProjectionVectorToAxis */\012SDS[ ]	/* SetDeltaShiftInGState */\012DELTAP1[ ]	/* DeltaExceptionP1 */\012SDS[ ]	/* SetDeltaShiftInGState */\012DELTAP1[ ]	/* DeltaExceptionP1 */\012SDS[ ]	/* SetDeltaShiftInGState */\012DELTAP1[ ]	/* DeltaExceptionP1 */\012SDS[ ]	/* SetDeltaShiftInGState */\012DELTAP1[ ]	/* DeltaExceptionP1 */\012SDS[ ]	/* SetDeltaShiftInGState */\012DELTAP1[ ]	/* DeltaExceptionP1 */\012SDS[ ]	/* SetDeltaShiftInGState */\012DELTAP1[ ]	/* DeltaExceptionP1 */\012SDS[ ]	/* SetDeltaShiftInGState */\012DELTAP1[ ]	/* DeltaExceptionP1 */\012SDS[ ]	/* SetDeltaShiftInGState */\012DELTAP1[ ]	/* DeltaExceptionP1 */\012SDS[ ]	/* SetDeltaShiftInGState */\012DELTAP1[ ]	/* DeltaExceptionP1 */";
};
width = 2048;
}
);
note = boy;
unicode = 1F466;
},
{
glyphname = girl;
layers = (
{
layerId = "841189CE-7A88-49C9-B3DD-2B83509AFCBE";
paths = (
{
closed = 1;
nodes = (
"1227 1086 LINE",
"1227 1116 LINE",
"1201 1112 LINE",
"1201 1090 LINE",
"1227 1086 LINE"
);
},
{
closed = 1;
nodes = (
"1207 1142 LINE",
"1161 1142 LINE",
"1177 1112 LINE",
"1177 1090 LINE",
"1162 1061 LINE",
"1206 1061 LINE",
"1191 1090 LINE",
"1191 1112 LINE",
"1207 1142 LINE"
);
},
{
closed = 1;
nodes = (
"1168 1090 LINE",
"1168 1112 LINE",
"1132.667 1113.333 OFFCURVE",
"1115 1131.667 OFFCURVE",
"1115 1167 CURVE SMOOTH",
"1115 1191.667 OFFCURVE",
"1106 1214.667 OFFCURVE",
"1088 1236 CURVE SMOOTH",
"1070 1257.333 OFFCURVE",
"1048.667 1268 OFFCURVE",
"1024 1268 CURVE SMOOTH",
"1000 1268 OFFCURVE",
"978.833 1257.333 OFFCURVE",
"960.5 1236 CURVE SMOOTH",
"942.167 1214.667 OFFCURVE",
"933 1191.667 OFFCURVE",
"933 1167 CURVE SMOOTH",
"933 1131.667 OFFCURVE",
"915.333 1113.333 OFFCURVE",
"880 1112 CURVE",
"880 1090 LINE",
"910.667 1090.667 OFFCURVE",
"930 1099.667 OFFCURVE",
"938 1117 CURVE",
"950.667 1070.333 OFFCURVE",
"979.333 1047 OFFCURVE",
"1024 1047 CURVE SMOOTH",
"1068.667 1047 OFFCURVE",
"1097.333 1070.333 OFFCURVE",
"1110 1117 CURVE",
"1118.667 1099.667 OFFCURVE",
"1138 1090.667 OFFCURVE",
"1168 1090 CURVE"
);
},
{
closed = 1;
nodes = (
"888 1142 LINE",
"842 1142 LINE",
"857 1112 LINE",
"857 1090 LINE",
"843 1061 LINE",
"887 1061 LINE",
"872 1090 LINE",
"872 1112 LINE",
"888 1142 LINE"
);
},
{
closed = 1;
nodes = (
"848 1090 LINE",
"848 1112 LINE",
"822 1116 LINE",
"822 1086 LINE",
"848 1090 LINE"
);
},
{
closed = 1;
nodes = (
"1249 383 LINE",
"1143 657 LINE",
"1143 904 LINE",
"1163 904 LINE",
"1163 675 LINE SMOOTH",
"1163 638.333 OFFCURVE",
"1177.333 620 OFFCURVE",
"1206 620 CURVE SMOOTH",
"1234.667 620 OFFCURVE",
"1249 638.333 OFFCURVE",
"1249 675 CURVE SMOOTH",
"1249 904 LINE SMOOTH",
"1249 992.667 OFFCURVE",
"1201.333 1037 OFFCURVE",
"1106 1037 CURVE SMOOTH",
"946 1037 LINE SMOOTH",
"850 1037 OFFCURVE",
"802 992.667 OFFCURVE",
"802 904 CURVE SMOOTH",
"802 675 LINE SMOOTH",
"802 638.333 OFFCURVE",
"816.333 620 OFFCURVE",
"845 620 CURVE SMOOTH",
"873 620 OFFCURVE",
"887 638.333 OFFCURVE",
"887 675 CURVE SMOOTH",
"887 904 LINE",
"907 904 LINE",
"907 657 LINE",
"799 383 LINE",
"907 383 LINE",
"907 0 LINE SMOOTH",
"907 -36.667 OFFCURVE",
"924.333 -55 OFFCURVE",
"959 -55 CURVE SMOOTH",
"993.667 -55 OFFCURVE",
"1011 -36.667 OFFCURVE",
"1011 0 CURVE SMOOTH",
"1011 383 LINE",
"1038 383 LINE",
"1038 0 LINE SMOOTH",
"1038 -36.667 OFFCURVE",
"1055.333 -55 OFFCURVE",
"1090 -55 CURVE SMOOTH",
"1125.333 -55 OFFCURVE",
"1143 -36.667 OFFCURVE",
"1143 0 CURVE SMOOTH",
"1143 383 LINE",
"1249 383 LINE"
);
}
);
userData = {
assembly = "NPUSHB[ ]	/* 117 values pushed */\01273 119 79 81 85 59 1 1 71 59 1 59 140 58 109 52 88 44 1 0 44 140 46 109 50 52 52 81 60 68 119 62 60 0 2 7 4 6 11 8 10 12 14 29 23 42 40 39 36 38 35 32 34 20 18 23 60 82 48 55 82 152 60 168 60 184 60 3 1 81 60 59 80 61 70 43 118 40 40 20 32 144 21 118 20 11 144 31 118 12 2 118 1 1 8 144 12 12 35 144 20 40 26 56 26 72 26 3 0 26 16 70 76 65 59 44 52 \012SVTCA[0]	/* SetFreedomAndProjectionVectorToAxis */\012MDAP[1]	/* MoveDirectAbsPt */\012ALIGNRP[ ]	/* AlignRelativePt */\012ALIGNRP[ ]	/* AlignRelativePt */\012MDRP[11100]	/* MoveDirectRelPt */\012ALIGNRP[ ]	/* AlignRelativePt */\012MDAP[1]	/* MoveDirectAbsPt */\012MDRP[11110]	/* MoveDirectRelPt */\012MDRP[01101]	/* MoveDirectRelPt */\012SDS[ ]	/* SetDeltaShiftInGState */\012DELTAP1[ ]	/* DeltaExceptionP1 */\012MDRP[11100]	/* MoveDirectRelPt */\012MIRP[01110]	/* MoveIndirectRelPt */\012ALIGNRP[ ]	/* AlignRelativePt */\012SRP0[ ]	/* SetRefPoint0 */\012MIRP[01110]	/* MoveIndirectRelPt */\012ALIGNRP[ ]	/* AlignRelativePt */\012SRP0[ ]	/* SetRefPoint0 */\012MIRP[01101]	/* MoveIndirectRelPt */\012SRP0[ ]	/* SetRefPoint0 */\012MIRP[11101]	/* MoveIndirectRelPt */\012MIRP[01110]	/* MoveIndirectRelPt */\012SRP0[ ]	/* SetRefPoint0 */\012MIRP[11101]	/* MoveIndirectRelPt */\012MIRP[01110]	/* MoveIndirectRelPt */\012SRP0[ ]	/* SetRefPoint0 */\012ALIGNRP[ ]	/* AlignRelativePt */\012SRP0[ ]	/* SetRefPoint0 */\012MIRP[01101]	/* MoveIndirectRelPt */\012SRP0[ ]	/* SetRefPoint0 */\012MDRP[11101]	/* MoveDirectRelPt */\012ALIGNRP[ ]	/* AlignRelativePt */\012SRP1[ ]	/* SetRefPoint1 */\012IP[ ]	/* InterpolatePts */\012IP[ ]	/* InterpolatePts */\012SDS[ ]	/* SetDeltaShiftInGState */\012DELTAP1[ ]	/* DeltaExceptionP1 */\012SRP0[ ]	/* SetRefPoint0 */\012MDRP[10100]	/* MoveDirectRelPt */\012ALIGNRP[ ]	/* AlignRelativePt */\012SVTCA[1]	/* SetFreedomAndProjectionVectorToAxis */\012SRP0[ ]	/* SetRefPoint0 */\012MDRP[11100]	/* MoveDirectRelPt */\012MDRP[10100]	/* MoveDirectRelPt */\012SHP[0]	/* ShiftPointByLastPoint */\012MDRP[11100]	/* MoveDirectRelPt */\012MDRP[10110]	/* MoveDirectRelPt */\012SHP[0]	/* ShiftPointByLastPoint */\012SHP[0]	/* ShiftPointByLastPoint */\012MDRP[11101]	/* MoveDirectRelPt */\012SHP[0]	/* ShiftPointByLastPoint */\012SHP[0]	/* ShiftPointByLastPoint */\012MDRP[10110]	/* MoveDirectRelPt */\012MDRP[01101]	/* MoveDirectRelPt */\012SRP0[ ]	/* SetRefPoint0 */\012MDRP[11101]	/* MoveDirectRelPt */\012SHP[0]	/* ShiftPointByLastPoint */\012MDRP[11100]	/* MoveDirectRelPt */\012MDRP[10110]	/* MoveDirectRelPt */\012SHP[0]	/* ShiftPointByLastPoint */\012SHP[0]	/* ShiftPointByLastPoint */\012MDRP[11101]	/* MoveDirectRelPt */\012SHP[0]	/* ShiftPointByLastPoint */\012SHP[0]	/* ShiftPointByLastPoint */\012MDRP[10110]	/* MoveDirectRelPt */\012MDRP[01101]	/* MoveDirectRelPt */\012SRP0[ ]	/* SetRefPoint0 */\012MDRP[11110]	/* MoveDirectRelPt */\012MIRP[01101]	/* MoveIndirectRelPt */\012SRP0[ ]	/* SetRefPoint0 */\012MDRP[01101]	/* MoveDirectRelPt */\012IP[ ]	/* InterpolatePts */\012MDAP[1]	/* MoveDirectAbsPt */\012MDRP[11110]	/* MoveDirectRelPt */\012MIRP[11101]	/* MoveIndirectRelPt */\012MIRP[01110]	/* MoveIndirectRelPt */\012SDS[ ]	/* SetDeltaShiftInGState */\012DELTAP1[ ]	/* DeltaExceptionP1 */\012SRP0[ ]	/* SetRefPoint0 */\012MIRP[11101]	/* MoveIndirectRelPt */\012MIRP[01101]	/* MoveIndirectRelPt */\012DELTAP1[ ]	/* DeltaExceptionP1 */\012SDS[ ]	/* SetDeltaShiftInGState */\012DELTAP1[ ]	/* DeltaExceptionP1 */\012SRP0[ ]	/* SetRefPoint0 */\012MDRP[11110]	/* MoveDirectRelPt */\012MIRP[01101]	/* MoveIndirectRelPt */\012IUP[1]	/* InterpolateUntPts */\012IUP[0]	/* InterpolateUntPts */";
};
width = 2048;
}
);
note = girl;
unicode = 1F467;
},
{
glyphname = man;
layers = (
{
layerId = "841189CE-7A88-49C9-B3DD-2B83509AFCBE";
paths = (
{
closed = 1;
nodes = (
"1138 1369 OFFCURVE",
"1126.667 1401.5 OFFCURVE",
"1104 1428.5 CURVE SMOOTH",
"1081.333 1455.5 OFFCURVE",
"1054.333 1469 OFFCURVE",
"1023 1469 CURVE SMOOTH",
"991 1469 OFFCURVE",
"963.833 1455.5 OFFCURVE",
"941.5 1428.5 CURVE SMOOTH",
"919.167 1401.5 OFFCURVE",
"908 1369 OFFCURVE",
"908 1331 CURVE SMOOTH",
"908 1292.333 OFFCURVE",
"919.333 1257.667 OFFCURVE",
"942 1227 CURVE SMOOTH",
"964.667 1196.333 OFFCURVE",
"991.667 1181 OFFCURVE",
"1023 1181 CURVE SMOOTH",
"1054.333 1181 OFFCURVE",
"1081.333 1196.333 OFFCURVE",
"1104 1227 CURVE SMOOTH",
"1126.667 1257.667 OFFCURVE",
"1138 1292.333 OFFCURVE",
"1138 1331 CURVE",
"1138 1331 LINE"
);
},
{
closed = 1;
nodes = (
"1303 504 LINE",
"1303 1037 LINE SMOOTH",
"1303 1123.667 OFFCURVE",
"1255 1167 OFFCURVE",
"1159 1167 CURVE SMOOTH",
"890 1167 LINE SMOOTH",
"793.333 1167 OFFCURVE",
"745 1123.667 OFFCURVE",
"745 1037 CURVE SMOOTH",
"745 504 LINE SMOOTH",
"745 458 OFFCURVE",
"762.667 435 OFFCURVE",
"798 435 CURVE SMOOTH",
"833.333 435 OFFCURVE",
"851 458 OFFCURVE",
"851 504 CURVE SMOOTH",
"851 969 LINE",
"877 969 LINE",
"877 -151 LINE SMOOTH",
"877 -197 OFFCURVE",
"898.667 -220 OFFCURVE",
"942 -220 CURVE SMOOTH",
"985.333 -220 OFFCURVE",
"1007 -197 OFFCURVE",
"1007 -151 CURVE SMOOTH",
"1007 512 LINE",
"1041 512 LINE",
"1041 -151 LINE SMOOTH",
"1041 -197 OFFCURVE",
"1062.667 -220 OFFCURVE",
"1106 -220 CURVE SMOOTH",
"1149.333 -220 OFFCURVE",
"1171 -197 OFFCURVE",
"1171 -151 CURVE SMOOTH",
"1171 969 LINE",
"1197 969 LINE",
"1197 504 LINE SMOOTH",
"1197 458 OFFCURVE",
"1214.667 435 OFFCURVE",
"1250 435 CURVE SMOOTH",
"1285.333 435 OFFCURVE",
"1303 458 OFFCURVE",
"1303 504 CURVE"
);
}
);
userData = {
assembly = "NPUSHB[ ]	/* 28 values pushed */\01237 109 33 6 31 102 25 12 109 16 0 19 102 24 25 25 45 21 28 44 25 14 35 18 31 40 3 9 \012SVTCA[0]	/* SetFreedomAndProjectionVectorToAxis */\012MDAP[1]	/* MoveDirectAbsPt */\012MDRP[11101]	/* MoveDirectRelPt */\012MDRP[11110]	/* MoveDirectRelPt */\012MDRP[11101]	/* MoveDirectRelPt */\012ALIGNRP[ ]	/* AlignRelativePt */\012MDRP[10100]	/* MoveDirectRelPt */\012ALIGNRP[ ]	/* AlignRelativePt */\012MDRP[00100]	/* MoveDirectRelPt */\012SRP0[ ]	/* SetRefPoint0 */\012MDRP[10100]	/* MoveDirectRelPt */\012ALIGNRP[ ]	/* AlignRelativePt */\012SVTCA[1]	/* SetFreedomAndProjectionVectorToAxis */\012SRP2[ ]	/* SetRefPoint2 */\012IP[ ]	/* InterpolatePts */\012MDAP[1]	/* MoveDirectAbsPt */\012MDRP[11110]	/* MoveDirectRelPt */\012MIRP[11101]	/* MoveIndirectRelPt */\012MDRP[00100]	/* MoveDirectRelPt */\012MDRP[11110]	/* MoveDirectRelPt */\012MIRP[01101]	/* MoveIndirectRelPt */\012SRP0[ ]	/* SetRefPoint0 */\012MIRP[11101]	/* MoveIndirectRelPt */\012MDRP[00100]	/* MoveDirectRelPt */\012MDRP[11110]	/* MoveDirectRelPt */\012MIRP[01101]	/* MoveIndirectRelPt */\012IUP[1]	/* InterpolateUntPts */\012IUP[0]	/* InterpolateUntPts */";
};
width = 2048;
}
);
note = man;
unicode = 1F468;
},
{
glyphname = woman;
layers = (
{
layerId = "841189CE-7A88-49C9-B3DD-2B83509AFCBE";
paths = (
{
closed = 1;
nodes = (
"1139 1355 OFFCURVE",
"1127.833 1387.5 OFFCURVE",
"1105.5 1414.5 CURVE SMOOTH",
"1083.167 1441.5 OFFCURVE",
"1056.333 1455 OFFCURVE",
"1025 1455 CURVE SMOOTH",
"993 1455 OFFCURVE",
"965.833 1441.5 OFFCURVE",
"943.5 1414.5 CURVE SMOOTH",
"921.167 1387.5 OFFCURVE",
"910 1355 OFFCURVE",
"910 1317 CURVE SMOOTH",
"910 1279 OFFCURVE",
"921.167 1246.5 OFFCURVE",
"943.5 1219.5 CURVE SMOOTH",
"965.833 1192.5 OFFCURVE",
"993 1179 OFFCURVE",
"1025 1179 CURVE SMOOTH",
"1056.333 1179 OFFCURVE",
"1083.167 1192.5 OFFCURVE",
"1105.5 1219.5 CURVE SMOOTH",
"1127.833 1246.5 OFFCURVE",
"1139 1279 OFFCURVE",
"1139 1317 CURVE",
"1139 1317 LINE"
);
},
{
closed = 1;
nodes = (
"1305 349 LINE",
"1173 692 LINE",
"1173 1019 LINE",
"1199 1019 LINE",
"1199 713 LINE SMOOTH",
"1199 667.667 OFFCURVE",
"1216.667 645 OFFCURVE",
"1252 645 CURVE SMOOTH",
"1286 645 OFFCURVE",
"1303 667.667 OFFCURVE",
"1303 713 CURVE SMOOTH",
"1303 1019 LINE SMOOTH",
"1303 1117 OFFCURVE",
"1255 1166 OFFCURVE",
"1159 1166 CURVE SMOOTH",
"890 1166 LINE SMOOTH",
"794 1166 OFFCURVE",
"746 1117 OFFCURVE",
"746 1019 CURVE SMOOTH",
"746 713 LINE SMOOTH",
"746 667.667 OFFCURVE",
"764 645 OFFCURVE",
"800 645 CURVE SMOOTH",
"835.333 645 OFFCURVE",
"853 667.667 OFFCURVE",
"853 713 CURVE SMOOTH",
"853 1019 LINE",
"878 1019 LINE",
"878 692 LINE",
"743 349 LINE",
"879 349 LINE",
"879 -130 LINE SMOOTH",
"879 -176 OFFCURVE",
"900.333 -199 OFFCURVE",
"943 -199 CURVE SMOOTH",
"987 -199 OFFCURVE",
"1009 -176 OFFCURVE",
"1009 -130 CURVE SMOOTH",
"1009 349 LINE",
"1042 349 LINE",
"1042 -130 LINE SMOOTH",
"1042 -176 OFFCURVE",
"1063.667 -199 OFFCURVE",
"1107 -199 CURVE SMOOTH",
"1151 -199 OFFCURVE",
"1173 -176 OFFCURVE",
"1173 -130 CURVE SMOOTH",
"1173 349 LINE",
"1305 349 LINE"
);
}
);
userData = {
assembly = "NPUSHB[ ]	/* 56 values pushed */\01242 109 47 49 27 26 102 20 12 14 102 18 20 20 49 28 35 109 30 28 0 231 6 247 6 2 71 6 87 6 103 6 119 6 135 6 5 0 6 28 50 16 23 50 44 33 48 29 135 38 9 3 38 26 13 20 \012SVTCA[0]	/* SetFreedomAndProjectionVectorToAxis */\012MDAP[1]	/* MoveDirectAbsPt */\012ALIGNRP[ ]	/* AlignRelativePt */\012ALIGNRP[ ]	/* AlignRelativePt */\012MDAP[1]	/* MoveDirectAbsPt */\012MDRP[11110]	/* MoveDirectRelPt */\012MDRP[01101]	/* MoveDirectRelPt */\012SRP0[ ]	/* SetRefPoint0 */\012MIRP[11101]	/* MoveIndirectRelPt */\012ALIGNRP[ ]	/* AlignRelativePt */\012MDRP[11100]	/* MoveDirectRelPt */\012ALIGNRP[ ]	/* AlignRelativePt */\012SRP0[ ]	/* SetRefPoint0 */\012MDRP[11100]	/* MoveDirectRelPt */\012ALIGNRP[ ]	/* AlignRelativePt */\012SVTCA[1]	/* SetFreedomAndProjectionVectorToAxis */\012SRP0[ ]	/* SetRefPoint0 */\012MDRP[11100]	/* MoveDirectRelPt */\012MDRP[11100]	/* MoveDirectRelPt */\012SDS[ ]	/* SetDeltaShiftInGState */\012DELTAP1[ ]	/* DeltaExceptionP1 */\012DELTAP1[ ]	/* DeltaExceptionP1 */\012MDRP[01101]	/* MoveDirectRelPt */\012SRP0[ ]	/* SetRefPoint0 */\012MDRP[11110]	/* MoveDirectRelPt */\012MIRP[01101]	/* MoveIndirectRelPt */\012SRP0[ ]	/* SetRefPoint0 */\012MDRP[01101]	/* MoveDirectRelPt */\012IP[ ]	/* InterpolatePts */\012MDAP[1]	/* MoveDirectAbsPt */\012MDRP[11110]	/* MoveDirectRelPt */\012MIRP[11101]	/* MoveIndirectRelPt */\012MDRP[01110]	/* MoveDirectRelPt */\012SRP0[ ]	/* SetRefPoint0 */\012MIRP[11101]	/* MoveIndirectRelPt */\012MDRP[01101]	/* MoveDirectRelPt */\012SRP0[ ]	/* SetRefPoint0 */\012MDRP[11110]	/* MoveDirectRelPt */\012MIRP[01101]	/* MoveIndirectRelPt */\012IUP[1]	/* InterpolateUntPts */\012IUP[0]	/* InterpolateUntPts */";
};
width = 2048;
}
);
note = woman;
unicode = 1F469;
},
